G04 #@! TF.FileFunction,Soldermask,Top*
%FSLAX46Y46*%
G04 Gerber Fmt 4.6, Leading zero omitted, Abs format (unit mm)*
G04 Created by KiCad (PCBNEW 4.0.4-stable) date 04/19/17 19:13:54*
%MOMM*%
%LPD*%
G01*
G04 APERTURE LIST*
%ADD10C,0.100000*%
%ADD11C,2.000000*%
%ADD12C,4.400000*%
%ADD13R,1.850000X0.850000*%
%ADD14R,0.850000X1.850000*%
%ADD15R,1.300000X1.600000*%
%ADD16R,3.900000X2.600000*%
%ADD17R,2.800000X2.000000*%
%ADD18O,2.800000X2.000000*%
%ADD19C,1.924000*%
%ADD20C,17.200000*%
%ADD21R,14.100000X11.600000*%
%ADD22R,15.400000X1.800000*%
%ADD23R,5.400000X3.400000*%
%ADD24R,2.100000X2.400000*%
%ADD25R,2.400000X2.100000*%
%ADD26R,4.400000X6.600000*%
%ADD27R,0.700000X1.900000*%
%ADD28R,1.960000X1.050000*%
%ADD29R,1.950000X1.000000*%
%ADD30R,1.050000X1.960000*%
%ADD31R,1.900000X1.650000*%
%ADD32R,1.650000X1.900000*%
%ADD33R,2.000000X2.400000*%
%ADD34R,2.900000X2.400000*%
%ADD35R,2.400000X2.000000*%
%ADD36C,0.254000*%
G04 APERTURE END LIST*
D10*
D11*
X199771000Y-122448000D03*
X199771000Y-124948000D03*
X201771000Y-124948000D03*
X201771000Y-122448000D03*
D12*
X204471000Y-117698000D03*
X204471000Y-129698000D03*
D13*
X93304000Y-98847000D03*
X93304000Y-99497000D03*
X93304000Y-100147000D03*
X93304000Y-100797000D03*
X97704000Y-100797000D03*
X97704000Y-100147000D03*
X97704000Y-99497000D03*
X97704000Y-98847000D03*
D14*
X158410000Y-91862000D03*
X159060000Y-91862000D03*
X159710000Y-91862000D03*
X160360000Y-91862000D03*
X160360000Y-87462000D03*
X159710000Y-87462000D03*
X159060000Y-87462000D03*
X158410000Y-87462000D03*
D15*
X90805000Y-97071000D03*
X90805000Y-99271000D03*
D10*
G36*
X94418000Y-91383000D02*
X94418000Y-94783000D01*
X92018000Y-94783000D01*
X92018000Y-91383000D01*
X94418000Y-91383000D01*
X94418000Y-91383000D01*
G37*
G36*
X94418000Y-86183000D02*
X94418000Y-89583000D01*
X92018000Y-89583000D01*
X92018000Y-86183000D01*
X94418000Y-86183000D01*
X94418000Y-86183000D01*
G37*
D16*
X155329000Y-56007000D03*
X161029000Y-56007000D03*
D17*
X142750000Y-129000000D03*
D18*
X127510000Y-90900000D03*
X142750000Y-126460000D03*
X127510000Y-93440000D03*
X142750000Y-123920000D03*
X127510000Y-95980000D03*
X142750000Y-121380000D03*
X127510000Y-98520000D03*
X142750000Y-118840000D03*
X127510000Y-101060000D03*
X142750000Y-116300000D03*
X127510000Y-103600000D03*
X142750000Y-113760000D03*
X127510000Y-106140000D03*
X142750000Y-111220000D03*
X127510000Y-108680000D03*
X142750000Y-108680000D03*
X127510000Y-111220000D03*
X142750000Y-106140000D03*
X127510000Y-113760000D03*
X142750000Y-103600000D03*
X127510000Y-116300000D03*
X142750000Y-101060000D03*
X127510000Y-118840000D03*
X142750000Y-98520000D03*
X127510000Y-121380000D03*
X142750000Y-95980000D03*
X127510000Y-123920000D03*
X142750000Y-93440000D03*
X127510000Y-126460000D03*
X142750000Y-90900000D03*
X127510000Y-129000000D03*
D19*
X81193000Y-92583000D03*
X86193000Y-92583000D03*
D20*
X88646000Y-67310000D03*
X110363000Y-67310000D03*
X196977000Y-67310000D03*
D21*
X141986000Y-67437000D03*
D22*
X141386000Y-60337000D03*
X141386000Y-74537000D03*
D23*
X156186000Y-64937000D03*
X156186000Y-69937000D03*
D21*
X176022000Y-62484000D03*
D22*
X176622000Y-69584000D03*
X176622000Y-55384000D03*
D23*
X161822000Y-64984000D03*
X161822000Y-59984000D03*
D24*
X91059000Y-101886000D03*
X91059000Y-105886000D03*
X121031000Y-97060000D03*
X121031000Y-101060000D03*
X121031000Y-103664000D03*
X121031000Y-107664000D03*
D25*
X105759000Y-102235000D03*
X101759000Y-102235000D03*
D26*
X130810000Y-67437000D03*
X121210000Y-67437000D03*
D25*
X94139000Y-109982000D03*
X98139000Y-109982000D03*
X101759000Y-109982000D03*
X105759000Y-109982000D03*
D24*
X114173000Y-86455000D03*
X114173000Y-82455000D03*
D25*
X116745000Y-82296000D03*
X120745000Y-82296000D03*
X120745000Y-78613000D03*
X116745000Y-78613000D03*
D24*
X111506000Y-108109000D03*
X111506000Y-112109000D03*
D25*
X159099000Y-85090000D03*
X155099000Y-85090000D03*
D24*
X131250000Y-81500000D03*
X131250000Y-85500000D03*
X146750000Y-114500000D03*
X146750000Y-118500000D03*
D25*
X175673000Y-123444000D03*
X179673000Y-123444000D03*
X179673000Y-125857000D03*
X175673000Y-125857000D03*
D27*
X124980000Y-78239000D03*
X125480000Y-78239000D03*
X125980000Y-78239000D03*
X125980000Y-75939000D03*
X125480000Y-75939000D03*
X124980000Y-75939000D03*
D28*
X103171000Y-116652000D03*
X103171000Y-117602000D03*
X103171000Y-118552000D03*
X105871000Y-118552000D03*
X105871000Y-116652000D03*
D29*
X149300000Y-123345000D03*
X149300000Y-124615000D03*
X149300000Y-125885000D03*
X149300000Y-127155000D03*
X154700000Y-127155000D03*
X154700000Y-125885000D03*
X154700000Y-124615000D03*
X154700000Y-123345000D03*
D24*
X128500000Y-81500000D03*
X128500000Y-85500000D03*
D30*
X160467000Y-101553000D03*
X161417000Y-101553000D03*
X162367000Y-101553000D03*
X162367000Y-98853000D03*
X160467000Y-98853000D03*
D31*
X125837000Y-80899000D03*
X123337000Y-80899000D03*
D32*
X118491000Y-104414000D03*
X118491000Y-106914000D03*
D33*
X101600000Y-98901000D03*
X101600000Y-94901000D03*
D34*
X104648000Y-98901000D03*
X104648000Y-94901000D03*
D31*
X94889000Y-106299000D03*
X97389000Y-106299000D03*
D35*
X101759000Y-105918000D03*
X105759000Y-105918000D03*
D33*
X100711000Y-115094000D03*
X100711000Y-119094000D03*
X108077000Y-118523000D03*
X108077000Y-122523000D03*
X110998000Y-116745000D03*
X110998000Y-120745000D03*
X122936000Y-125698000D03*
X122936000Y-121698000D03*
X114300000Y-108109000D03*
X114300000Y-112109000D03*
D31*
X146500000Y-121500000D03*
X149000000Y-121500000D03*
D32*
X157861000Y-126472000D03*
X157861000Y-123972000D03*
D33*
X164465000Y-126016000D03*
X164465000Y-130016000D03*
X170942000Y-123984000D03*
X170942000Y-127984000D03*
D35*
X156750000Y-106299000D03*
X160750000Y-106299000D03*
X156750000Y-103886000D03*
X160750000Y-103886000D03*
X162020000Y-96266000D03*
X158020000Y-96266000D03*
X163862000Y-87630000D03*
X167862000Y-87630000D03*
D36*
G36*
X123085000Y-70415500D02*
X118068500Y-70415500D01*
X118068500Y-64446500D01*
X123085000Y-64446500D01*
X123085000Y-70415500D01*
X123085000Y-70415500D01*
G37*
X123085000Y-70415500D02*
X118068500Y-70415500D01*
X118068500Y-64446500D01*
X123085000Y-64446500D01*
X123085000Y-70415500D01*
G36*
X138642500Y-70415500D02*
X128927000Y-70415500D01*
X128927000Y-64446500D01*
X138642500Y-64446500D01*
X138642500Y-70415500D01*
X138642500Y-70415500D01*
G37*
X138642500Y-70415500D02*
X128927000Y-70415500D01*
X128927000Y-64446500D01*
X138642500Y-64446500D01*
X138642500Y-70415500D01*
G36*
X159915000Y-66669000D02*
X157883000Y-66669000D01*
X157883000Y-63240000D01*
X159915000Y-63240000D01*
X159915000Y-66669000D01*
X159915000Y-66669000D01*
G37*
X159915000Y-66669000D02*
X157883000Y-66669000D01*
X157883000Y-63240000D01*
X159915000Y-63240000D01*
X159915000Y-66669000D01*
G36*
X194649500Y-65843500D02*
X181568500Y-65843500D01*
X181568500Y-59112500D01*
X194649500Y-59112500D01*
X194649500Y-65843500D01*
X194649500Y-65843500D01*
G37*
X194649500Y-65843500D02*
X181568500Y-65843500D01*
X181568500Y-59112500D01*
X194649500Y-59112500D01*
X194649500Y-65843500D01*
M02*
