G04 #@! TF.FileFunction,Legend,Top*
%FSLAX46Y46*%
G04 Gerber Fmt 4.6, Leading zero omitted, Abs format (unit mm)*
G04 Created by KiCad (PCBNEW 4.0.4-stable) date 04/19/17 19:13:54*
%MOMM*%
%LPD*%
G01*
G04 APERTURE LIST*
%ADD10C,0.100000*%
%ADD11C,0.300000*%
%ADD12C,0.500000*%
%ADD13C,0.200000*%
%ADD14C,0.150000*%
%ADD15C,0.120000*%
%ADD16C,0.010000*%
G04 APERTURE END LIST*
D10*
D11*
X170581000Y-111549571D02*
X170581000Y-110049571D01*
X170581000Y-110621000D02*
X170723857Y-110549571D01*
X171009571Y-110549571D01*
X171152428Y-110621000D01*
X171223857Y-110692429D01*
X171295286Y-110835286D01*
X171295286Y-111263857D01*
X171223857Y-111406714D01*
X171152428Y-111478143D01*
X171009571Y-111549571D01*
X170723857Y-111549571D01*
X170581000Y-111478143D01*
X171795286Y-110549571D02*
X172152429Y-111549571D01*
X172509571Y-110549571D02*
X172152429Y-111549571D01*
X172009571Y-111906714D01*
X171938143Y-111978143D01*
X171795286Y-112049571D01*
X173081000Y-111406714D02*
X173152428Y-111478143D01*
X173081000Y-111549571D01*
X173009571Y-111478143D01*
X173081000Y-111406714D01*
X173081000Y-111549571D01*
X173081000Y-110621000D02*
X173152428Y-110692429D01*
X173081000Y-110763857D01*
X173009571Y-110692429D01*
X173081000Y-110621000D01*
X173081000Y-110763857D01*
X168237429Y-106469571D02*
X168237429Y-104969571D01*
X169094572Y-106469571D02*
X168451715Y-105612429D01*
X169094572Y-104969571D02*
X168237429Y-105826714D01*
X169737429Y-105898143D02*
X170880286Y-105898143D01*
X171594572Y-105683857D02*
X172094572Y-105683857D01*
X172308858Y-106469571D02*
X171594572Y-106469571D01*
X171594572Y-104969571D01*
X172308858Y-104969571D01*
X172737429Y-104969571D02*
X173237429Y-106469571D01*
X173737429Y-104969571D01*
X175380286Y-106469571D02*
X175380286Y-104969571D01*
X175951714Y-104969571D01*
X176094572Y-105041000D01*
X176166000Y-105112429D01*
X176237429Y-105255286D01*
X176237429Y-105469571D01*
X176166000Y-105612429D01*
X176094572Y-105683857D01*
X175951714Y-105755286D01*
X175380286Y-105755286D01*
X177094572Y-106469571D02*
X176951714Y-106398143D01*
X176880286Y-106326714D01*
X176808857Y-106183857D01*
X176808857Y-105755286D01*
X176880286Y-105612429D01*
X176951714Y-105541000D01*
X177094572Y-105469571D01*
X177308857Y-105469571D01*
X177451714Y-105541000D01*
X177523143Y-105612429D01*
X177594572Y-105755286D01*
X177594572Y-106183857D01*
X177523143Y-106326714D01*
X177451714Y-106398143D01*
X177308857Y-106469571D01*
X177094572Y-106469571D01*
X178094572Y-105469571D02*
X178380286Y-106469571D01*
X178666000Y-105755286D01*
X178951715Y-106469571D01*
X179237429Y-105469571D01*
X180380286Y-106398143D02*
X180237429Y-106469571D01*
X179951715Y-106469571D01*
X179808858Y-106398143D01*
X179737429Y-106255286D01*
X179737429Y-105683857D01*
X179808858Y-105541000D01*
X179951715Y-105469571D01*
X180237429Y-105469571D01*
X180380286Y-105541000D01*
X180451715Y-105683857D01*
X180451715Y-105826714D01*
X179737429Y-105969571D01*
X181094572Y-106469571D02*
X181094572Y-105469571D01*
X181094572Y-105755286D02*
X181166000Y-105612429D01*
X181237429Y-105541000D01*
X181380286Y-105469571D01*
X181523143Y-105469571D01*
X184023143Y-106326714D02*
X183951714Y-106398143D01*
X183737428Y-106469571D01*
X183594571Y-106469571D01*
X183380286Y-106398143D01*
X183237428Y-106255286D01*
X183166000Y-106112429D01*
X183094571Y-105826714D01*
X183094571Y-105612429D01*
X183166000Y-105326714D01*
X183237428Y-105183857D01*
X183380286Y-105041000D01*
X183594571Y-104969571D01*
X183737428Y-104969571D01*
X183951714Y-105041000D01*
X184023143Y-105112429D01*
X184880286Y-106469571D02*
X184737428Y-106398143D01*
X184666000Y-106326714D01*
X184594571Y-106183857D01*
X184594571Y-105755286D01*
X184666000Y-105612429D01*
X184737428Y-105541000D01*
X184880286Y-105469571D01*
X185094571Y-105469571D01*
X185237428Y-105541000D01*
X185308857Y-105612429D01*
X185380286Y-105755286D01*
X185380286Y-106183857D01*
X185308857Y-106326714D01*
X185237428Y-106398143D01*
X185094571Y-106469571D01*
X184880286Y-106469571D01*
X186023143Y-105469571D02*
X186023143Y-106469571D01*
X186023143Y-105612429D02*
X186094571Y-105541000D01*
X186237429Y-105469571D01*
X186451714Y-105469571D01*
X186594571Y-105541000D01*
X186666000Y-105683857D01*
X186666000Y-106469571D01*
X187166000Y-105469571D02*
X187737429Y-105469571D01*
X187380286Y-104969571D02*
X187380286Y-106255286D01*
X187451714Y-106398143D01*
X187594572Y-106469571D01*
X187737429Y-106469571D01*
X188237429Y-106469571D02*
X188237429Y-105469571D01*
X188237429Y-105755286D02*
X188308857Y-105612429D01*
X188380286Y-105541000D01*
X188523143Y-105469571D01*
X188666000Y-105469571D01*
X189380286Y-106469571D02*
X189237428Y-106398143D01*
X189166000Y-106326714D01*
X189094571Y-106183857D01*
X189094571Y-105755286D01*
X189166000Y-105612429D01*
X189237428Y-105541000D01*
X189380286Y-105469571D01*
X189594571Y-105469571D01*
X189737428Y-105541000D01*
X189808857Y-105612429D01*
X189880286Y-105755286D01*
X189880286Y-106183857D01*
X189808857Y-106326714D01*
X189737428Y-106398143D01*
X189594571Y-106469571D01*
X189380286Y-106469571D01*
X190737429Y-106469571D02*
X190594571Y-106398143D01*
X190523143Y-106255286D01*
X190523143Y-104969571D01*
X192451714Y-104969571D02*
X192451714Y-106183857D01*
X192523142Y-106326714D01*
X192594571Y-106398143D01*
X192737428Y-106469571D01*
X193023142Y-106469571D01*
X193166000Y-106398143D01*
X193237428Y-106326714D01*
X193308857Y-106183857D01*
X193308857Y-104969571D01*
X194023143Y-105469571D02*
X194023143Y-106469571D01*
X194023143Y-105612429D02*
X194094571Y-105541000D01*
X194237429Y-105469571D01*
X194451714Y-105469571D01*
X194594571Y-105541000D01*
X194666000Y-105683857D01*
X194666000Y-106469571D01*
X195380286Y-106469571D02*
X195380286Y-105469571D01*
X195380286Y-104969571D02*
X195308857Y-105041000D01*
X195380286Y-105112429D01*
X195451714Y-105041000D01*
X195380286Y-104969571D01*
X195380286Y-105112429D01*
X195880286Y-105469571D02*
X196451715Y-105469571D01*
X196094572Y-104969571D02*
X196094572Y-106255286D01*
X196166000Y-106398143D01*
X196308858Y-106469571D01*
X196451715Y-106469571D01*
X197951715Y-105469571D02*
X198308858Y-106469571D01*
X198666000Y-105469571D01*
X199523143Y-104969571D02*
X199666000Y-104969571D01*
X199808857Y-105041000D01*
X199880286Y-105112429D01*
X199951715Y-105255286D01*
X200023143Y-105541000D01*
X200023143Y-105898143D01*
X199951715Y-106183857D01*
X199880286Y-106326714D01*
X199808857Y-106398143D01*
X199666000Y-106469571D01*
X199523143Y-106469571D01*
X199380286Y-106398143D01*
X199308857Y-106326714D01*
X199237429Y-106183857D01*
X199166000Y-105898143D01*
X199166000Y-105541000D01*
X199237429Y-105255286D01*
X199308857Y-105112429D01*
X199380286Y-105041000D01*
X199523143Y-104969571D01*
X200666000Y-106326714D02*
X200737428Y-106398143D01*
X200666000Y-106469571D01*
X200594571Y-106398143D01*
X200666000Y-106326714D01*
X200666000Y-106469571D01*
X202166000Y-106469571D02*
X201308857Y-106469571D01*
X201737429Y-106469571D02*
X201737429Y-104969571D01*
X201594572Y-105183857D01*
X201451714Y-105326714D01*
X201308857Y-105398143D01*
D12*
X182270286Y-81208905D02*
X185127429Y-81208905D01*
X183698858Y-86208905D02*
X183698858Y-81208905D01*
X186794096Y-86208905D02*
X186794096Y-82875571D01*
X186794096Y-83827952D02*
X187032191Y-83351762D01*
X187270287Y-83113667D01*
X187746477Y-82875571D01*
X188222668Y-82875571D01*
X189889334Y-85732714D02*
X190127429Y-85970810D01*
X189889334Y-86208905D01*
X189651239Y-85970810D01*
X189889334Y-85732714D01*
X189889334Y-86208905D01*
X194889334Y-81447000D02*
X194413143Y-81208905D01*
X193698858Y-81208905D01*
X192984572Y-81447000D01*
X192508381Y-81923190D01*
X192270286Y-82399381D01*
X192032191Y-83351762D01*
X192032191Y-84066048D01*
X192270286Y-85018429D01*
X192508381Y-85494619D01*
X192984572Y-85970810D01*
X193698858Y-86208905D01*
X194175048Y-86208905D01*
X194889334Y-85970810D01*
X195127429Y-85732714D01*
X195127429Y-84066048D01*
X194175048Y-84066048D01*
X197270286Y-86208905D02*
X197270286Y-81208905D01*
X200127429Y-86208905D01*
X200127429Y-81208905D01*
X202508381Y-86208905D02*
X202508381Y-81208905D01*
X203698857Y-81208905D01*
X204413143Y-81447000D01*
X204889334Y-81923190D01*
X205127429Y-82399381D01*
X205365524Y-83351762D01*
X205365524Y-84066048D01*
X205127429Y-85018429D01*
X204889334Y-85494619D01*
X204413143Y-85970810D01*
X203698857Y-86208905D01*
X202508381Y-86208905D01*
X79153524Y-51363905D02*
X82486857Y-51363905D01*
X80344000Y-56363905D01*
X84153524Y-51840095D02*
X84391619Y-51602000D01*
X84867810Y-51363905D01*
X86058286Y-51363905D01*
X86534476Y-51602000D01*
X86772572Y-51840095D01*
X87010667Y-52316286D01*
X87010667Y-52792476D01*
X86772572Y-53506762D01*
X83915429Y-56363905D01*
X87010667Y-56363905D01*
X88439238Y-51363905D02*
X90105905Y-56363905D01*
X91772572Y-51363905D01*
X100196715Y-53617857D02*
X100911001Y-53855952D01*
X101149096Y-54094048D01*
X101387191Y-54570238D01*
X101387191Y-55284524D01*
X101149096Y-55760714D01*
X100911001Y-55998810D01*
X100434810Y-56236905D01*
X98530048Y-56236905D01*
X98530048Y-51236905D01*
X100196715Y-51236905D01*
X100672905Y-51475000D01*
X100911001Y-51713095D01*
X101149096Y-52189286D01*
X101149096Y-52665476D01*
X100911001Y-53141667D01*
X100672905Y-53379762D01*
X100196715Y-53617857D01*
X98530048Y-53617857D01*
X103291953Y-54808333D02*
X105672905Y-54808333D01*
X102815762Y-56236905D02*
X104482429Y-51236905D01*
X106149096Y-56236905D01*
X107101476Y-51236905D02*
X109958619Y-51236905D01*
X108530048Y-56236905D02*
X108530048Y-51236905D01*
X118053858Y-51475000D02*
X117577667Y-51236905D01*
X116863382Y-51236905D01*
X116149096Y-51475000D01*
X115672905Y-51951190D01*
X115434810Y-52427381D01*
X115196715Y-53379762D01*
X115196715Y-54094048D01*
X115434810Y-55046429D01*
X115672905Y-55522619D01*
X116149096Y-55998810D01*
X116863382Y-56236905D01*
X117339572Y-56236905D01*
X118053858Y-55998810D01*
X118291953Y-55760714D01*
X118291953Y-54094048D01*
X117339572Y-54094048D01*
X120434810Y-56236905D02*
X120434810Y-51236905D01*
X123291953Y-56236905D01*
X123291953Y-51236905D01*
X125672905Y-56236905D02*
X125672905Y-51236905D01*
X126863381Y-51236905D01*
X127577667Y-51475000D01*
X128053858Y-51951190D01*
X128291953Y-52427381D01*
X128530048Y-53379762D01*
X128530048Y-54094048D01*
X128291953Y-55046429D01*
X128053858Y-55522619D01*
X127577667Y-55998810D01*
X126863381Y-56236905D01*
X125672905Y-56236905D01*
D13*
X198071000Y-129798000D02*
X198071000Y-117598000D01*
D14*
X93829000Y-98147000D02*
X93829000Y-98322000D01*
X97179000Y-98147000D02*
X97179000Y-98397000D01*
X97179000Y-101497000D02*
X97179000Y-101247000D01*
X93829000Y-101497000D02*
X93829000Y-101247000D01*
X93829000Y-98147000D02*
X97179000Y-98147000D01*
X93829000Y-101497000D02*
X97179000Y-101497000D01*
X93829000Y-98322000D02*
X92579000Y-98322000D01*
X157710000Y-91337000D02*
X157885000Y-91337000D01*
X157710000Y-87987000D02*
X157960000Y-87987000D01*
X161060000Y-87987000D02*
X160810000Y-87987000D01*
X161060000Y-91337000D02*
X160810000Y-91337000D01*
X157710000Y-91337000D02*
X157710000Y-87987000D01*
X161060000Y-91337000D02*
X161060000Y-87987000D01*
X157885000Y-91337000D02*
X157885000Y-92587000D01*
D15*
X90125000Y-98671000D02*
X90125000Y-97671000D01*
X91485000Y-97671000D02*
X91485000Y-98671000D01*
D12*
X95018000Y-85883000D02*
X91418000Y-85883000D01*
X91418000Y-85983000D02*
X91418000Y-95083000D01*
X91418000Y-95083000D02*
X95018000Y-95083000D01*
X95018000Y-95083000D02*
X95018000Y-85983000D01*
D15*
X136130000Y-130390000D02*
X141310000Y-130390000D01*
X141310000Y-130390000D02*
X141310000Y-89510000D01*
X141310000Y-89510000D02*
X128950000Y-89510000D01*
X128950000Y-89510000D02*
X128950000Y-130390000D01*
X128950000Y-130390000D02*
X134130000Y-130390000D01*
X144140000Y-130390000D02*
X144140000Y-89510000D01*
X144140000Y-89510000D02*
X126120000Y-89510000D01*
X126120000Y-89510000D02*
X126120000Y-130390000D01*
X126120000Y-130390000D02*
X144140000Y-130390000D01*
X134130000Y-130390000D02*
G75*
G02X136130000Y-130390000I1000000J0D01*
G01*
D12*
X88443000Y-92583000D02*
G75*
G03X88443000Y-92583000I-4750000J0D01*
G01*
X149386000Y-54437000D02*
X133386000Y-54437000D01*
X133386000Y-80437000D02*
X149386000Y-80437000D01*
X133386000Y-80437000D02*
X133386000Y-54437000D01*
X149386000Y-80437000D02*
X149386000Y-54437000D01*
X168622000Y-75484000D02*
X184622000Y-75484000D01*
X184622000Y-49484000D02*
X168622000Y-49484000D01*
X184622000Y-49484000D02*
X184622000Y-75484000D01*
X168622000Y-49484000D02*
X168622000Y-75484000D01*
D15*
X89989000Y-104886000D02*
X89989000Y-102886000D01*
X92129000Y-102886000D02*
X92129000Y-104886000D01*
X119961000Y-100060000D02*
X119961000Y-98060000D01*
X122101000Y-98060000D02*
X122101000Y-100060000D01*
X119961000Y-106664000D02*
X119961000Y-104664000D01*
X122101000Y-104664000D02*
X122101000Y-106664000D01*
X102759000Y-101165000D02*
X104759000Y-101165000D01*
X104759000Y-103305000D02*
X102759000Y-103305000D01*
X133060000Y-64187000D02*
X119060000Y-64187000D01*
X133060000Y-70687000D02*
X119060000Y-70687000D01*
X119060000Y-70687000D02*
X119060000Y-64187000D01*
X133060000Y-64187000D02*
X133060000Y-70687000D01*
X97139000Y-111052000D02*
X95139000Y-111052000D01*
X95139000Y-108912000D02*
X97139000Y-108912000D01*
X104759000Y-111052000D02*
X102759000Y-111052000D01*
X102759000Y-108912000D02*
X104759000Y-108912000D01*
X115243000Y-83455000D02*
X115243000Y-85455000D01*
X113103000Y-85455000D02*
X113103000Y-83455000D01*
X119745000Y-83366000D02*
X117745000Y-83366000D01*
X117745000Y-81226000D02*
X119745000Y-81226000D01*
X117745000Y-77543000D02*
X119745000Y-77543000D01*
X119745000Y-79683000D02*
X117745000Y-79683000D01*
X110436000Y-111109000D02*
X110436000Y-109109000D01*
X112576000Y-109109000D02*
X112576000Y-111109000D01*
X156099000Y-84020000D02*
X158099000Y-84020000D01*
X158099000Y-86160000D02*
X156099000Y-86160000D01*
X130180000Y-84500000D02*
X130180000Y-82500000D01*
X132320000Y-82500000D02*
X132320000Y-84500000D01*
X145680000Y-117500000D02*
X145680000Y-115500000D01*
X147820000Y-115500000D02*
X147820000Y-117500000D01*
X178673000Y-124514000D02*
X176673000Y-124514000D01*
X176673000Y-122374000D02*
X178673000Y-122374000D01*
X176673000Y-124787000D02*
X178673000Y-124787000D01*
X178673000Y-126927000D02*
X176673000Y-126927000D01*
X103621000Y-119212000D02*
X105421000Y-119212000D01*
X105421000Y-115992000D02*
X102971000Y-115992000D01*
D14*
X149925000Y-122675000D02*
X149925000Y-122725000D01*
X154075000Y-122675000D02*
X154075000Y-122820000D01*
X154075000Y-127825000D02*
X154075000Y-127680000D01*
X149925000Y-127825000D02*
X149925000Y-127680000D01*
X149925000Y-122675000D02*
X154075000Y-122675000D01*
X149925000Y-127825000D02*
X154075000Y-127825000D01*
X149925000Y-122725000D02*
X148525000Y-122725000D01*
D15*
X127430000Y-84500000D02*
X127430000Y-82500000D01*
X129570000Y-82500000D02*
X129570000Y-84500000D01*
X163027000Y-101103000D02*
X163027000Y-99303000D01*
X159807000Y-99303000D02*
X159807000Y-101753000D01*
D16*
G36*
X180945149Y-108478943D02*
X181310643Y-108847644D01*
X181473844Y-109030140D01*
X181827641Y-109377128D01*
X182379196Y-109856808D01*
X183051266Y-110404218D01*
X183724075Y-110922637D01*
X184471913Y-111495978D01*
X184973381Y-111918213D01*
X185264797Y-112224735D01*
X185382483Y-112450937D01*
X185387670Y-112543737D01*
X185284335Y-112774330D01*
X184987113Y-112904322D01*
X184574315Y-112962201D01*
X183912590Y-113014251D01*
X183132518Y-113062019D01*
X182312970Y-113102387D01*
X181532809Y-113132243D01*
X180870904Y-113148471D01*
X180406121Y-113147954D01*
X180230628Y-113133781D01*
X180134363Y-113182809D01*
X180014631Y-113400698D01*
X179859379Y-113822476D01*
X179656553Y-114483169D01*
X179394099Y-115417804D01*
X179208751Y-116103145D01*
X178397957Y-119129068D01*
X177580140Y-118909934D01*
X178347107Y-116047574D01*
X178589777Y-115119479D01*
X178788989Y-114313754D01*
X178932616Y-113683249D01*
X179008526Y-113280816D01*
X179010378Y-113157429D01*
X178789943Y-113144568D01*
X178365644Y-113146274D01*
X178207322Y-113150139D01*
X177507963Y-113170634D01*
X177376698Y-114110894D01*
X177322293Y-114674580D01*
X177322377Y-115121361D01*
X177354712Y-115292388D01*
X177360002Y-115603691D01*
X177221471Y-116001741D01*
X176977576Y-116330301D01*
X176678607Y-116385427D01*
X176592691Y-116366361D01*
X176342467Y-116276528D01*
X176201608Y-116126854D01*
X176159685Y-115849184D01*
X176206275Y-115375363D01*
X176329445Y-114645611D01*
X176438571Y-113952351D01*
X176441896Y-113533275D01*
X176310129Y-113332658D01*
X176013975Y-113294774D01*
X175644825Y-113343212D01*
X175159895Y-113424321D01*
X174458299Y-116268533D01*
X173756702Y-119112743D01*
X173329153Y-118998107D01*
X173072041Y-118891931D01*
X172967226Y-118691030D01*
X172977735Y-118293872D01*
X173000928Y-118096737D01*
X173087923Y-117596041D01*
X173242276Y-116880845D01*
X173438996Y-116062483D01*
X173576228Y-115533634D01*
X173761135Y-114813602D01*
X173895964Y-114229273D01*
X173966172Y-113847963D01*
X173964985Y-113733894D01*
X173656456Y-113747012D01*
X173146614Y-113855936D01*
X172547471Y-114027934D01*
X171971041Y-114230278D01*
X171529338Y-114430238D01*
X171476908Y-114460897D01*
X170931043Y-114722962D01*
X170560227Y-114744744D01*
X170393790Y-114533042D01*
X170422987Y-114216613D01*
X170704933Y-113794341D01*
X171314568Y-113415810D01*
X172255020Y-113079483D01*
X173207903Y-112848026D01*
X173821209Y-112707990D01*
X174183811Y-112574032D01*
X174378916Y-112395692D01*
X174489734Y-112122514D01*
X174506898Y-112060323D01*
X174668400Y-111551149D01*
X174891612Y-110951440D01*
X174960895Y-110782041D01*
X175172145Y-110337556D01*
X175357259Y-110146471D01*
X175592888Y-110139494D01*
X175654922Y-110154656D01*
X175857759Y-110232407D01*
X175942896Y-110378291D01*
X175917635Y-110673566D01*
X175789277Y-111199491D01*
X175759005Y-111312920D01*
X175476411Y-112367574D01*
X176590809Y-112285372D01*
X176781403Y-111130628D01*
X176952226Y-110287108D01*
X177143423Y-109749727D01*
X177371927Y-109485980D01*
X177650416Y-109462199D01*
X177897147Y-109628843D01*
X177972789Y-109982585D01*
X177883967Y-110573016D01*
X177828489Y-110795226D01*
X177711772Y-111325794D01*
X177650770Y-111777227D01*
X177648190Y-111850154D01*
X177673321Y-112074280D01*
X177807554Y-112185312D01*
X178139492Y-112224588D01*
X178464151Y-112230845D01*
X179279965Y-112238974D01*
X179644752Y-110845974D01*
X180552250Y-111089137D01*
X180242871Y-112243756D01*
X181085756Y-112205769D01*
X181804468Y-112174164D01*
X182577650Y-112141282D01*
X182796505Y-112132225D01*
X183664368Y-112096669D01*
X182444079Y-111157608D01*
X181881864Y-110724681D01*
X181412122Y-110362446D01*
X181106832Y-110126430D01*
X181042710Y-110076533D01*
X180919389Y-110087169D01*
X180782290Y-110338800D01*
X180611883Y-110871742D01*
X180552250Y-111089137D01*
X179644752Y-110845974D01*
X179802219Y-110244656D01*
X180051097Y-109329227D01*
X180256359Y-108719259D01*
X180451476Y-108390434D01*
X180669915Y-108318434D01*
X180945149Y-108478943D01*
X180945149Y-108478943D01*
G37*
X180945149Y-108478943D02*
X181310643Y-108847644D01*
X181473844Y-109030140D01*
X181827641Y-109377128D01*
X182379196Y-109856808D01*
X183051266Y-110404218D01*
X183724075Y-110922637D01*
X184471913Y-111495978D01*
X184973381Y-111918213D01*
X185264797Y-112224735D01*
X185382483Y-112450937D01*
X185387670Y-112543737D01*
X185284335Y-112774330D01*
X184987113Y-112904322D01*
X184574315Y-112962201D01*
X183912590Y-113014251D01*
X183132518Y-113062019D01*
X182312970Y-113102387D01*
X181532809Y-113132243D01*
X180870904Y-113148471D01*
X180406121Y-113147954D01*
X180230628Y-113133781D01*
X180134363Y-113182809D01*
X180014631Y-113400698D01*
X179859379Y-113822476D01*
X179656553Y-114483169D01*
X179394099Y-115417804D01*
X179208751Y-116103145D01*
X178397957Y-119129068D01*
X177580140Y-118909934D01*
X178347107Y-116047574D01*
X178589777Y-115119479D01*
X178788989Y-114313754D01*
X178932616Y-113683249D01*
X179008526Y-113280816D01*
X179010378Y-113157429D01*
X178789943Y-113144568D01*
X178365644Y-113146274D01*
X178207322Y-113150139D01*
X177507963Y-113170634D01*
X177376698Y-114110894D01*
X177322293Y-114674580D01*
X177322377Y-115121361D01*
X177354712Y-115292388D01*
X177360002Y-115603691D01*
X177221471Y-116001741D01*
X176977576Y-116330301D01*
X176678607Y-116385427D01*
X176592691Y-116366361D01*
X176342467Y-116276528D01*
X176201608Y-116126854D01*
X176159685Y-115849184D01*
X176206275Y-115375363D01*
X176329445Y-114645611D01*
X176438571Y-113952351D01*
X176441896Y-113533275D01*
X176310129Y-113332658D01*
X176013975Y-113294774D01*
X175644825Y-113343212D01*
X175159895Y-113424321D01*
X174458299Y-116268533D01*
X173756702Y-119112743D01*
X173329153Y-118998107D01*
X173072041Y-118891931D01*
X172967226Y-118691030D01*
X172977735Y-118293872D01*
X173000928Y-118096737D01*
X173087923Y-117596041D01*
X173242276Y-116880845D01*
X173438996Y-116062483D01*
X173576228Y-115533634D01*
X173761135Y-114813602D01*
X173895964Y-114229273D01*
X173966172Y-113847963D01*
X173964985Y-113733894D01*
X173656456Y-113747012D01*
X173146614Y-113855936D01*
X172547471Y-114027934D01*
X171971041Y-114230278D01*
X171529338Y-114430238D01*
X171476908Y-114460897D01*
X170931043Y-114722962D01*
X170560227Y-114744744D01*
X170393790Y-114533042D01*
X170422987Y-114216613D01*
X170704933Y-113794341D01*
X171314568Y-113415810D01*
X172255020Y-113079483D01*
X173207903Y-112848026D01*
X173821209Y-112707990D01*
X174183811Y-112574032D01*
X174378916Y-112395692D01*
X174489734Y-112122514D01*
X174506898Y-112060323D01*
X174668400Y-111551149D01*
X174891612Y-110951440D01*
X174960895Y-110782041D01*
X175172145Y-110337556D01*
X175357259Y-110146471D01*
X175592888Y-110139494D01*
X175654922Y-110154656D01*
X175857759Y-110232407D01*
X175942896Y-110378291D01*
X175917635Y-110673566D01*
X175789277Y-111199491D01*
X175759005Y-111312920D01*
X175476411Y-112367574D01*
X176590809Y-112285372D01*
X176781403Y-111130628D01*
X176952226Y-110287108D01*
X177143423Y-109749727D01*
X177371927Y-109485980D01*
X177650416Y-109462199D01*
X177897147Y-109628843D01*
X177972789Y-109982585D01*
X177883967Y-110573016D01*
X177828489Y-110795226D01*
X177711772Y-111325794D01*
X177650770Y-111777227D01*
X177648190Y-111850154D01*
X177673321Y-112074280D01*
X177807554Y-112185312D01*
X178139492Y-112224588D01*
X178464151Y-112230845D01*
X179279965Y-112238974D01*
X179644752Y-110845974D01*
X180552250Y-111089137D01*
X180242871Y-112243756D01*
X181085756Y-112205769D01*
X181804468Y-112174164D01*
X182577650Y-112141282D01*
X182796505Y-112132225D01*
X183664368Y-112096669D01*
X182444079Y-111157608D01*
X181881864Y-110724681D01*
X181412122Y-110362446D01*
X181106832Y-110126430D01*
X181042710Y-110076533D01*
X180919389Y-110087169D01*
X180782290Y-110338800D01*
X180611883Y-110871742D01*
X180552250Y-111089137D01*
X179644752Y-110845974D01*
X179802219Y-110244656D01*
X180051097Y-109329227D01*
X180256359Y-108719259D01*
X180451476Y-108390434D01*
X180669915Y-108318434D01*
X180945149Y-108478943D01*
D15*
X124087000Y-81749000D02*
X125087000Y-81749000D01*
X125087000Y-80049000D02*
X124087000Y-80049000D01*
X119341000Y-106164000D02*
X119341000Y-105164000D01*
X117641000Y-105164000D02*
X117641000Y-106164000D01*
X100580000Y-95901000D02*
X100580000Y-97901000D01*
X102620000Y-97901000D02*
X102620000Y-95901000D01*
X103168000Y-95901000D02*
X103168000Y-97901000D01*
X106128000Y-97901000D02*
X106128000Y-95901000D01*
X96639000Y-105449000D02*
X95639000Y-105449000D01*
X95639000Y-107149000D02*
X96639000Y-107149000D01*
X104759000Y-104898000D02*
X102759000Y-104898000D01*
X102759000Y-106938000D02*
X104759000Y-106938000D01*
X101731000Y-118094000D02*
X101731000Y-116094000D01*
X99691000Y-116094000D02*
X99691000Y-118094000D01*
X109097000Y-121523000D02*
X109097000Y-119523000D01*
X107057000Y-119523000D02*
X107057000Y-121523000D01*
X112018000Y-119745000D02*
X112018000Y-117745000D01*
X109978000Y-117745000D02*
X109978000Y-119745000D01*
X121916000Y-122698000D02*
X121916000Y-124698000D01*
X123956000Y-124698000D02*
X123956000Y-122698000D01*
X115320000Y-111109000D02*
X115320000Y-109109000D01*
X113280000Y-109109000D02*
X113280000Y-111109000D01*
X148250000Y-120650000D02*
X147250000Y-120650000D01*
X147250000Y-122350000D02*
X148250000Y-122350000D01*
X157011000Y-124722000D02*
X157011000Y-125722000D01*
X158711000Y-125722000D02*
X158711000Y-124722000D01*
X165485000Y-129016000D02*
X165485000Y-127016000D01*
X163445000Y-127016000D02*
X163445000Y-129016000D01*
X171962000Y-126984000D02*
X171962000Y-124984000D01*
X169922000Y-124984000D02*
X169922000Y-126984000D01*
X159750000Y-105279000D02*
X157750000Y-105279000D01*
X157750000Y-107319000D02*
X159750000Y-107319000D01*
X159750000Y-102866000D02*
X157750000Y-102866000D01*
X157750000Y-104906000D02*
X159750000Y-104906000D01*
X159020000Y-97286000D02*
X161020000Y-97286000D01*
X161020000Y-95246000D02*
X159020000Y-95246000D01*
X166862000Y-86610000D02*
X164862000Y-86610000D01*
X164862000Y-88650000D02*
X166862000Y-88650000D01*
D14*
X206973381Y-124686095D02*
X205973381Y-124686095D01*
X205973381Y-124305142D01*
X206021000Y-124209904D01*
X206068619Y-124162285D01*
X206163857Y-124114666D01*
X206306714Y-124114666D01*
X206401952Y-124162285D01*
X206449571Y-124209904D01*
X206497190Y-124305142D01*
X206497190Y-124686095D01*
X206306714Y-123257523D02*
X206973381Y-123257523D01*
X205925762Y-123495619D02*
X206640048Y-123733714D01*
X206640048Y-123114666D01*
X94742095Y-96674381D02*
X94742095Y-97483905D01*
X94789714Y-97579143D01*
X94837333Y-97626762D01*
X94932571Y-97674381D01*
X95123048Y-97674381D01*
X95218286Y-97626762D01*
X95265905Y-97579143D01*
X95313524Y-97483905D01*
X95313524Y-96674381D01*
X96313524Y-97674381D02*
X95742095Y-97674381D01*
X96027809Y-97674381D02*
X96027809Y-96674381D01*
X95932571Y-96817238D01*
X95837333Y-96912476D01*
X95742095Y-96960095D01*
X156237381Y-90423905D02*
X157046905Y-90423905D01*
X157142143Y-90376286D01*
X157189762Y-90328667D01*
X157237381Y-90233429D01*
X157237381Y-90042952D01*
X157189762Y-89947714D01*
X157142143Y-89900095D01*
X157046905Y-89852476D01*
X156237381Y-89852476D01*
X156570714Y-88947714D02*
X157237381Y-88947714D01*
X156189762Y-89185810D02*
X156904048Y-89423905D01*
X156904048Y-88804857D01*
X92289334Y-96877143D02*
X92241715Y-96924762D01*
X92098858Y-96972381D01*
X92003620Y-96972381D01*
X91860762Y-96924762D01*
X91765524Y-96829524D01*
X91717905Y-96734286D01*
X91670286Y-96543810D01*
X91670286Y-96400952D01*
X91717905Y-96210476D01*
X91765524Y-96115238D01*
X91860762Y-96020000D01*
X92003620Y-95972381D01*
X92098858Y-95972381D01*
X92241715Y-96020000D01*
X92289334Y-96067619D01*
X93241715Y-96972381D02*
X92670286Y-96972381D01*
X92956000Y-96972381D02*
X92956000Y-95972381D01*
X92860762Y-96115238D01*
X92765524Y-96210476D01*
X92670286Y-96258095D01*
X93670381Y-85193095D02*
X92670381Y-85193095D01*
X92670381Y-84955000D01*
X92718000Y-84812142D01*
X92813238Y-84716904D01*
X92908476Y-84669285D01*
X93098952Y-84621666D01*
X93241810Y-84621666D01*
X93432286Y-84669285D01*
X93527524Y-84716904D01*
X93622762Y-84812142D01*
X93670381Y-84955000D01*
X93670381Y-85193095D01*
X93670381Y-83669285D02*
X93670381Y-84240714D01*
X93670381Y-83955000D02*
X92670381Y-83955000D01*
X92813238Y-84050238D01*
X92908476Y-84145476D01*
X92956095Y-84240714D01*
X157376905Y-53919381D02*
X157376905Y-52919381D01*
X157615000Y-52919381D01*
X157757858Y-52967000D01*
X157853096Y-53062238D01*
X157900715Y-53157476D01*
X157948334Y-53347952D01*
X157948334Y-53490810D01*
X157900715Y-53681286D01*
X157853096Y-53776524D01*
X157757858Y-53871762D01*
X157615000Y-53919381D01*
X157376905Y-53919381D01*
X158329286Y-53014619D02*
X158376905Y-52967000D01*
X158472143Y-52919381D01*
X158710239Y-52919381D01*
X158805477Y-52967000D01*
X158853096Y-53014619D01*
X158900715Y-53109857D01*
X158900715Y-53205095D01*
X158853096Y-53347952D01*
X158281667Y-53919381D01*
X158900715Y-53919381D01*
X134153810Y-131842381D02*
X134153810Y-130842381D01*
X135201429Y-131747143D02*
X135153810Y-131794762D01*
X135010953Y-131842381D01*
X134915715Y-131842381D01*
X134772857Y-131794762D01*
X134677619Y-131699524D01*
X134630000Y-131604286D01*
X134582381Y-131413810D01*
X134582381Y-131270952D01*
X134630000Y-131080476D01*
X134677619Y-130985238D01*
X134772857Y-130890000D01*
X134915715Y-130842381D01*
X135010953Y-130842381D01*
X135153810Y-130890000D01*
X135201429Y-130937619D01*
X136153810Y-131842381D02*
X135582381Y-131842381D01*
X135868095Y-131842381D02*
X135868095Y-130842381D01*
X135772857Y-130985238D01*
X135677619Y-131080476D01*
X135582381Y-131128095D01*
X83526334Y-100535381D02*
X83050143Y-100535381D01*
X83050143Y-99535381D01*
X84383477Y-100535381D02*
X83812048Y-100535381D01*
X84097762Y-100535381D02*
X84097762Y-99535381D01*
X84002524Y-99678238D01*
X83907286Y-99773476D01*
X83812048Y-99821095D01*
X87907905Y-58362381D02*
X87907905Y-57362381D01*
X88288858Y-57362381D01*
X88384096Y-57410000D01*
X88431715Y-57457619D01*
X88479334Y-57552857D01*
X88479334Y-57695714D01*
X88431715Y-57790952D01*
X88384096Y-57838571D01*
X88288858Y-57886190D01*
X87907905Y-57886190D01*
X89431715Y-58362381D02*
X88860286Y-58362381D01*
X89146000Y-58362381D02*
X89146000Y-57362381D01*
X89050762Y-57505238D01*
X88955524Y-57600476D01*
X88860286Y-57648095D01*
X109624905Y-58362381D02*
X109624905Y-57362381D01*
X110005858Y-57362381D01*
X110101096Y-57410000D01*
X110148715Y-57457619D01*
X110196334Y-57552857D01*
X110196334Y-57695714D01*
X110148715Y-57790952D01*
X110101096Y-57838571D01*
X110005858Y-57886190D01*
X109624905Y-57886190D01*
X110577286Y-57457619D02*
X110624905Y-57410000D01*
X110720143Y-57362381D01*
X110958239Y-57362381D01*
X111053477Y-57410000D01*
X111101096Y-57457619D01*
X111148715Y-57552857D01*
X111148715Y-57648095D01*
X111101096Y-57790952D01*
X110529667Y-58362381D01*
X111148715Y-58362381D01*
X196238905Y-58362381D02*
X196238905Y-57362381D01*
X196619858Y-57362381D01*
X196715096Y-57410000D01*
X196762715Y-57457619D01*
X196810334Y-57552857D01*
X196810334Y-57695714D01*
X196762715Y-57790952D01*
X196715096Y-57838571D01*
X196619858Y-57886190D01*
X196238905Y-57886190D01*
X197143667Y-57362381D02*
X197762715Y-57362381D01*
X197429381Y-57743333D01*
X197572239Y-57743333D01*
X197667477Y-57790952D01*
X197715096Y-57838571D01*
X197762715Y-57933810D01*
X197762715Y-58171905D01*
X197715096Y-58267143D01*
X197667477Y-58314762D01*
X197572239Y-58362381D01*
X197286524Y-58362381D01*
X197191286Y-58314762D01*
X197143667Y-58267143D01*
X131603762Y-55792619D02*
X131508524Y-55745000D01*
X131413286Y-55649762D01*
X131270429Y-55506905D01*
X131175190Y-55459286D01*
X131079952Y-55459286D01*
X131127571Y-55697381D02*
X131032333Y-55649762D01*
X130937095Y-55554524D01*
X130889476Y-55364048D01*
X130889476Y-55030714D01*
X130937095Y-54840238D01*
X131032333Y-54745000D01*
X131127571Y-54697381D01*
X131318048Y-54697381D01*
X131413286Y-54745000D01*
X131508524Y-54840238D01*
X131556143Y-55030714D01*
X131556143Y-55364048D01*
X131508524Y-55554524D01*
X131413286Y-55649762D01*
X131318048Y-55697381D01*
X131127571Y-55697381D01*
X132508524Y-55697381D02*
X131937095Y-55697381D01*
X132222809Y-55697381D02*
X132222809Y-54697381D01*
X132127571Y-54840238D01*
X132032333Y-54935476D01*
X131937095Y-54983095D01*
X166782762Y-50966619D02*
X166687524Y-50919000D01*
X166592286Y-50823762D01*
X166449429Y-50680905D01*
X166354190Y-50633286D01*
X166258952Y-50633286D01*
X166306571Y-50871381D02*
X166211333Y-50823762D01*
X166116095Y-50728524D01*
X166068476Y-50538048D01*
X166068476Y-50204714D01*
X166116095Y-50014238D01*
X166211333Y-49919000D01*
X166306571Y-49871381D01*
X166497048Y-49871381D01*
X166592286Y-49919000D01*
X166687524Y-50014238D01*
X166735143Y-50204714D01*
X166735143Y-50538048D01*
X166687524Y-50728524D01*
X166592286Y-50823762D01*
X166497048Y-50871381D01*
X166306571Y-50871381D01*
X167116095Y-49966619D02*
X167163714Y-49919000D01*
X167258952Y-49871381D01*
X167497048Y-49871381D01*
X167592286Y-49919000D01*
X167639905Y-49966619D01*
X167687524Y-50061857D01*
X167687524Y-50157095D01*
X167639905Y-50299952D01*
X167068476Y-50871381D01*
X167687524Y-50871381D01*
X91019334Y-108402381D02*
X90686000Y-107926190D01*
X90447905Y-108402381D02*
X90447905Y-107402381D01*
X90828858Y-107402381D01*
X90924096Y-107450000D01*
X90971715Y-107497619D01*
X91019334Y-107592857D01*
X91019334Y-107735714D01*
X90971715Y-107830952D01*
X90924096Y-107878571D01*
X90828858Y-107926190D01*
X90447905Y-107926190D01*
X91971715Y-108402381D02*
X91400286Y-108402381D01*
X91686000Y-108402381D02*
X91686000Y-107402381D01*
X91590762Y-107545238D01*
X91495524Y-107640476D01*
X91400286Y-107688095D01*
X123333381Y-99226666D02*
X122857190Y-99560000D01*
X123333381Y-99798095D02*
X122333381Y-99798095D01*
X122333381Y-99417142D01*
X122381000Y-99321904D01*
X122428619Y-99274285D01*
X122523857Y-99226666D01*
X122666714Y-99226666D01*
X122761952Y-99274285D01*
X122809571Y-99321904D01*
X122857190Y-99417142D01*
X122857190Y-99798095D01*
X122428619Y-98845714D02*
X122381000Y-98798095D01*
X122333381Y-98702857D01*
X122333381Y-98464761D01*
X122381000Y-98369523D01*
X122428619Y-98321904D01*
X122523857Y-98274285D01*
X122619095Y-98274285D01*
X122761952Y-98321904D01*
X123333381Y-98893333D01*
X123333381Y-98274285D01*
X123333381Y-105830666D02*
X122857190Y-106164000D01*
X123333381Y-106402095D02*
X122333381Y-106402095D01*
X122333381Y-106021142D01*
X122381000Y-105925904D01*
X122428619Y-105878285D01*
X122523857Y-105830666D01*
X122666714Y-105830666D01*
X122761952Y-105878285D01*
X122809571Y-105925904D01*
X122857190Y-106021142D01*
X122857190Y-106402095D01*
X122333381Y-105497333D02*
X122333381Y-104878285D01*
X122714333Y-105211619D01*
X122714333Y-105068761D01*
X122761952Y-104973523D01*
X122809571Y-104925904D01*
X122904810Y-104878285D01*
X123142905Y-104878285D01*
X123238143Y-104925904D01*
X123285762Y-104973523D01*
X123333381Y-105068761D01*
X123333381Y-105354476D01*
X123285762Y-105449714D01*
X123238143Y-105497333D01*
X103592334Y-104537381D02*
X103259000Y-104061190D01*
X103020905Y-104537381D02*
X103020905Y-103537381D01*
X103401858Y-103537381D01*
X103497096Y-103585000D01*
X103544715Y-103632619D01*
X103592334Y-103727857D01*
X103592334Y-103870714D01*
X103544715Y-103965952D01*
X103497096Y-104013571D01*
X103401858Y-104061190D01*
X103020905Y-104061190D01*
X104449477Y-103870714D02*
X104449477Y-104537381D01*
X104211381Y-103489762D02*
X103973286Y-104204048D01*
X104592334Y-104204048D01*
X125817334Y-62809381D02*
X125484000Y-62333190D01*
X125245905Y-62809381D02*
X125245905Y-61809381D01*
X125626858Y-61809381D01*
X125722096Y-61857000D01*
X125769715Y-61904619D01*
X125817334Y-61999857D01*
X125817334Y-62142714D01*
X125769715Y-62237952D01*
X125722096Y-62285571D01*
X125626858Y-62333190D01*
X125245905Y-62333190D01*
X126722096Y-61809381D02*
X126245905Y-61809381D01*
X126198286Y-62285571D01*
X126245905Y-62237952D01*
X126341143Y-62190333D01*
X126579239Y-62190333D01*
X126674477Y-62237952D01*
X126722096Y-62285571D01*
X126769715Y-62380810D01*
X126769715Y-62618905D01*
X126722096Y-62714143D01*
X126674477Y-62761762D01*
X126579239Y-62809381D01*
X126341143Y-62809381D01*
X126245905Y-62761762D01*
X126198286Y-62714143D01*
X95972334Y-108584381D02*
X95639000Y-108108190D01*
X95400905Y-108584381D02*
X95400905Y-107584381D01*
X95781858Y-107584381D01*
X95877096Y-107632000D01*
X95924715Y-107679619D01*
X95972334Y-107774857D01*
X95972334Y-107917714D01*
X95924715Y-108012952D01*
X95877096Y-108060571D01*
X95781858Y-108108190D01*
X95400905Y-108108190D01*
X96829477Y-107584381D02*
X96639000Y-107584381D01*
X96543762Y-107632000D01*
X96496143Y-107679619D01*
X96400905Y-107822476D01*
X96353286Y-108012952D01*
X96353286Y-108393905D01*
X96400905Y-108489143D01*
X96448524Y-108536762D01*
X96543762Y-108584381D01*
X96734239Y-108584381D01*
X96829477Y-108536762D01*
X96877096Y-108489143D01*
X96924715Y-108393905D01*
X96924715Y-108155810D01*
X96877096Y-108060571D01*
X96829477Y-108012952D01*
X96734239Y-107965333D01*
X96543762Y-107965333D01*
X96448524Y-108012952D01*
X96400905Y-108060571D01*
X96353286Y-108155810D01*
X103592334Y-112466381D02*
X103259000Y-111990190D01*
X103020905Y-112466381D02*
X103020905Y-111466381D01*
X103401858Y-111466381D01*
X103497096Y-111514000D01*
X103544715Y-111561619D01*
X103592334Y-111656857D01*
X103592334Y-111799714D01*
X103544715Y-111894952D01*
X103497096Y-111942571D01*
X103401858Y-111990190D01*
X103020905Y-111990190D01*
X103925667Y-111466381D02*
X104592334Y-111466381D01*
X104163762Y-112466381D01*
X112775381Y-84621666D02*
X112299190Y-84955000D01*
X112775381Y-85193095D02*
X111775381Y-85193095D01*
X111775381Y-84812142D01*
X111823000Y-84716904D01*
X111870619Y-84669285D01*
X111965857Y-84621666D01*
X112108714Y-84621666D01*
X112203952Y-84669285D01*
X112251571Y-84716904D01*
X112299190Y-84812142D01*
X112299190Y-85193095D01*
X112203952Y-84050238D02*
X112156333Y-84145476D01*
X112108714Y-84193095D01*
X112013476Y-84240714D01*
X111965857Y-84240714D01*
X111870619Y-84193095D01*
X111823000Y-84145476D01*
X111775381Y-84050238D01*
X111775381Y-83859761D01*
X111823000Y-83764523D01*
X111870619Y-83716904D01*
X111965857Y-83669285D01*
X112013476Y-83669285D01*
X112108714Y-83716904D01*
X112156333Y-83764523D01*
X112203952Y-83859761D01*
X112203952Y-84050238D01*
X112251571Y-84145476D01*
X112299190Y-84193095D01*
X112394429Y-84240714D01*
X112584905Y-84240714D01*
X112680143Y-84193095D01*
X112727762Y-84145476D01*
X112775381Y-84050238D01*
X112775381Y-83859761D01*
X112727762Y-83764523D01*
X112680143Y-83716904D01*
X112584905Y-83669285D01*
X112394429Y-83669285D01*
X112299190Y-83716904D01*
X112251571Y-83764523D01*
X112203952Y-83859761D01*
X118578334Y-84653381D02*
X118245000Y-84177190D01*
X118006905Y-84653381D02*
X118006905Y-83653381D01*
X118387858Y-83653381D01*
X118483096Y-83701000D01*
X118530715Y-83748619D01*
X118578334Y-83843857D01*
X118578334Y-83986714D01*
X118530715Y-84081952D01*
X118483096Y-84129571D01*
X118387858Y-84177190D01*
X118006905Y-84177190D01*
X119054524Y-84653381D02*
X119245000Y-84653381D01*
X119340239Y-84605762D01*
X119387858Y-84558143D01*
X119483096Y-84415286D01*
X119530715Y-84224810D01*
X119530715Y-83843857D01*
X119483096Y-83748619D01*
X119435477Y-83701000D01*
X119340239Y-83653381D01*
X119149762Y-83653381D01*
X119054524Y-83701000D01*
X119006905Y-83748619D01*
X118959286Y-83843857D01*
X118959286Y-84081952D01*
X119006905Y-84177190D01*
X119054524Y-84224810D01*
X119149762Y-84272429D01*
X119340239Y-84272429D01*
X119435477Y-84224810D01*
X119483096Y-84177190D01*
X119530715Y-84081952D01*
X118102143Y-80915381D02*
X117768809Y-80439190D01*
X117530714Y-80915381D02*
X117530714Y-79915381D01*
X117911667Y-79915381D01*
X118006905Y-79963000D01*
X118054524Y-80010619D01*
X118102143Y-80105857D01*
X118102143Y-80248714D01*
X118054524Y-80343952D01*
X118006905Y-80391571D01*
X117911667Y-80439190D01*
X117530714Y-80439190D01*
X119054524Y-80915381D02*
X118483095Y-80915381D01*
X118768809Y-80915381D02*
X118768809Y-79915381D01*
X118673571Y-80058238D01*
X118578333Y-80153476D01*
X118483095Y-80201095D01*
X119673571Y-79915381D02*
X119768810Y-79915381D01*
X119864048Y-79963000D01*
X119911667Y-80010619D01*
X119959286Y-80105857D01*
X120006905Y-80296333D01*
X120006905Y-80534429D01*
X119959286Y-80724905D01*
X119911667Y-80820143D01*
X119864048Y-80867762D01*
X119768810Y-80915381D01*
X119673571Y-80915381D01*
X119578333Y-80867762D01*
X119530714Y-80820143D01*
X119483095Y-80724905D01*
X119435476Y-80534429D01*
X119435476Y-80296333D01*
X119483095Y-80105857D01*
X119530714Y-80010619D01*
X119578333Y-79963000D01*
X119673571Y-79915381D01*
X110609143Y-114752381D02*
X110275809Y-114276190D01*
X110037714Y-114752381D02*
X110037714Y-113752381D01*
X110418667Y-113752381D01*
X110513905Y-113800000D01*
X110561524Y-113847619D01*
X110609143Y-113942857D01*
X110609143Y-114085714D01*
X110561524Y-114180952D01*
X110513905Y-114228571D01*
X110418667Y-114276190D01*
X110037714Y-114276190D01*
X111561524Y-114752381D02*
X110990095Y-114752381D01*
X111275809Y-114752381D02*
X111275809Y-113752381D01*
X111180571Y-113895238D01*
X111085333Y-113990476D01*
X110990095Y-114038095D01*
X112513905Y-114752381D02*
X111942476Y-114752381D01*
X112228190Y-114752381D02*
X112228190Y-113752381D01*
X112132952Y-113895238D01*
X112037714Y-113990476D01*
X111942476Y-114038095D01*
X154424143Y-87574381D02*
X154090809Y-87098190D01*
X153852714Y-87574381D02*
X153852714Y-86574381D01*
X154233667Y-86574381D01*
X154328905Y-86622000D01*
X154376524Y-86669619D01*
X154424143Y-86764857D01*
X154424143Y-86907714D01*
X154376524Y-87002952D01*
X154328905Y-87050571D01*
X154233667Y-87098190D01*
X153852714Y-87098190D01*
X155376524Y-87574381D02*
X154805095Y-87574381D01*
X155090809Y-87574381D02*
X155090809Y-86574381D01*
X154995571Y-86717238D01*
X154900333Y-86812476D01*
X154805095Y-86860095D01*
X155757476Y-86669619D02*
X155805095Y-86622000D01*
X155900333Y-86574381D01*
X156138429Y-86574381D01*
X156233667Y-86622000D01*
X156281286Y-86669619D01*
X156328905Y-86764857D01*
X156328905Y-86860095D01*
X156281286Y-87002952D01*
X155709857Y-87574381D01*
X156328905Y-87574381D01*
X133702381Y-86142857D02*
X133226190Y-86476191D01*
X133702381Y-86714286D02*
X132702381Y-86714286D01*
X132702381Y-86333333D01*
X132750000Y-86238095D01*
X132797619Y-86190476D01*
X132892857Y-86142857D01*
X133035714Y-86142857D01*
X133130952Y-86190476D01*
X133178571Y-86238095D01*
X133226190Y-86333333D01*
X133226190Y-86714286D01*
X133702381Y-85190476D02*
X133702381Y-85761905D01*
X133702381Y-85476191D02*
X132702381Y-85476191D01*
X132845238Y-85571429D01*
X132940476Y-85666667D01*
X132988095Y-85761905D01*
X132702381Y-84857143D02*
X132702381Y-84238095D01*
X133083333Y-84571429D01*
X133083333Y-84428571D01*
X133130952Y-84333333D01*
X133178571Y-84285714D01*
X133273810Y-84238095D01*
X133511905Y-84238095D01*
X133607143Y-84285714D01*
X133654762Y-84333333D01*
X133702381Y-84428571D01*
X133702381Y-84714286D01*
X133654762Y-84809524D01*
X133607143Y-84857143D01*
X149052381Y-117142857D02*
X148576190Y-117476191D01*
X149052381Y-117714286D02*
X148052381Y-117714286D01*
X148052381Y-117333333D01*
X148100000Y-117238095D01*
X148147619Y-117190476D01*
X148242857Y-117142857D01*
X148385714Y-117142857D01*
X148480952Y-117190476D01*
X148528571Y-117238095D01*
X148576190Y-117333333D01*
X148576190Y-117714286D01*
X149052381Y-116190476D02*
X149052381Y-116761905D01*
X149052381Y-116476191D02*
X148052381Y-116476191D01*
X148195238Y-116571429D01*
X148290476Y-116666667D01*
X148338095Y-116761905D01*
X148385714Y-115333333D02*
X149052381Y-115333333D01*
X148004762Y-115571429D02*
X148719048Y-115809524D01*
X148719048Y-115190476D01*
X177030143Y-122046381D02*
X176696809Y-121570190D01*
X176458714Y-122046381D02*
X176458714Y-121046381D01*
X176839667Y-121046381D01*
X176934905Y-121094000D01*
X176982524Y-121141619D01*
X177030143Y-121236857D01*
X177030143Y-121379714D01*
X176982524Y-121474952D01*
X176934905Y-121522571D01*
X176839667Y-121570190D01*
X176458714Y-121570190D01*
X177982524Y-122046381D02*
X177411095Y-122046381D01*
X177696809Y-122046381D02*
X177696809Y-121046381D01*
X177601571Y-121189238D01*
X177506333Y-121284476D01*
X177411095Y-121332095D01*
X178887286Y-121046381D02*
X178411095Y-121046381D01*
X178363476Y-121522571D01*
X178411095Y-121474952D01*
X178506333Y-121427333D01*
X178744429Y-121427333D01*
X178839667Y-121474952D01*
X178887286Y-121522571D01*
X178934905Y-121617810D01*
X178934905Y-121855905D01*
X178887286Y-121951143D01*
X178839667Y-121998762D01*
X178744429Y-122046381D01*
X178506333Y-122046381D01*
X178411095Y-121998762D01*
X178363476Y-121951143D01*
X177030143Y-128159381D02*
X176696809Y-127683190D01*
X176458714Y-128159381D02*
X176458714Y-127159381D01*
X176839667Y-127159381D01*
X176934905Y-127207000D01*
X176982524Y-127254619D01*
X177030143Y-127349857D01*
X177030143Y-127492714D01*
X176982524Y-127587952D01*
X176934905Y-127635571D01*
X176839667Y-127683190D01*
X176458714Y-127683190D01*
X177982524Y-128159381D02*
X177411095Y-128159381D01*
X177696809Y-128159381D02*
X177696809Y-127159381D01*
X177601571Y-127302238D01*
X177506333Y-127397476D01*
X177411095Y-127445095D01*
X178839667Y-127159381D02*
X178649190Y-127159381D01*
X178553952Y-127207000D01*
X178506333Y-127254619D01*
X178411095Y-127397476D01*
X178363476Y-127587952D01*
X178363476Y-127968905D01*
X178411095Y-128064143D01*
X178458714Y-128111762D01*
X178553952Y-128159381D01*
X178744429Y-128159381D01*
X178839667Y-128111762D01*
X178887286Y-128064143D01*
X178934905Y-127968905D01*
X178934905Y-127730810D01*
X178887286Y-127635571D01*
X178839667Y-127587952D01*
X178744429Y-127540333D01*
X178553952Y-127540333D01*
X178458714Y-127587952D01*
X178411095Y-127635571D01*
X178363476Y-127730810D01*
X122555095Y-74128381D02*
X122555095Y-74937905D01*
X122602714Y-75033143D01*
X122650333Y-75080762D01*
X122745571Y-75128381D01*
X122936048Y-75128381D01*
X123031286Y-75080762D01*
X123078905Y-75033143D01*
X123126524Y-74937905D01*
X123126524Y-74128381D01*
X123555095Y-74223619D02*
X123602714Y-74176000D01*
X123697952Y-74128381D01*
X123936048Y-74128381D01*
X124031286Y-74176000D01*
X124078905Y-74223619D01*
X124126524Y-74318857D01*
X124126524Y-74414095D01*
X124078905Y-74556952D01*
X123507476Y-75128381D01*
X124126524Y-75128381D01*
X103759095Y-114154381D02*
X103759095Y-114963905D01*
X103806714Y-115059143D01*
X103854333Y-115106762D01*
X103949571Y-115154381D01*
X104140048Y-115154381D01*
X104235286Y-115106762D01*
X104282905Y-115059143D01*
X104330524Y-114963905D01*
X104330524Y-114154381D01*
X104711476Y-114154381D02*
X105330524Y-114154381D01*
X104997190Y-114535333D01*
X105140048Y-114535333D01*
X105235286Y-114582952D01*
X105282905Y-114630571D01*
X105330524Y-114725810D01*
X105330524Y-114963905D01*
X105282905Y-115059143D01*
X105235286Y-115106762D01*
X105140048Y-115154381D01*
X104854333Y-115154381D01*
X104759095Y-115106762D01*
X104711476Y-115059143D01*
X153924095Y-121372381D02*
X153924095Y-122181905D01*
X153971714Y-122277143D01*
X154019333Y-122324762D01*
X154114571Y-122372381D01*
X154305048Y-122372381D01*
X154400286Y-122324762D01*
X154447905Y-122277143D01*
X154495524Y-122181905D01*
X154495524Y-121372381D01*
X155447905Y-121372381D02*
X154971714Y-121372381D01*
X154924095Y-121848571D01*
X154971714Y-121800952D01*
X155066952Y-121753333D01*
X155305048Y-121753333D01*
X155400286Y-121800952D01*
X155447905Y-121848571D01*
X155495524Y-121943810D01*
X155495524Y-122181905D01*
X155447905Y-122277143D01*
X155400286Y-122324762D01*
X155305048Y-122372381D01*
X155066952Y-122372381D01*
X154971714Y-122324762D01*
X154924095Y-122277143D01*
X126952381Y-86142857D02*
X126476190Y-86476191D01*
X126952381Y-86714286D02*
X125952381Y-86714286D01*
X125952381Y-86333333D01*
X126000000Y-86238095D01*
X126047619Y-86190476D01*
X126142857Y-86142857D01*
X126285714Y-86142857D01*
X126380952Y-86190476D01*
X126428571Y-86238095D01*
X126476190Y-86333333D01*
X126476190Y-86714286D01*
X126952381Y-85190476D02*
X126952381Y-85761905D01*
X126952381Y-85476191D02*
X125952381Y-85476191D01*
X126095238Y-85571429D01*
X126190476Y-85666667D01*
X126238095Y-85761905D01*
X125952381Y-84857143D02*
X125952381Y-84190476D01*
X126952381Y-84619048D01*
X157969381Y-100964905D02*
X158778905Y-100964905D01*
X158874143Y-100917286D01*
X158921762Y-100869667D01*
X158969381Y-100774429D01*
X158969381Y-100583952D01*
X158921762Y-100488714D01*
X158874143Y-100441095D01*
X158778905Y-100393476D01*
X157969381Y-100393476D01*
X157969381Y-99488714D02*
X157969381Y-99679191D01*
X158017000Y-99774429D01*
X158064619Y-99822048D01*
X158207476Y-99917286D01*
X158397952Y-99964905D01*
X158778905Y-99964905D01*
X158874143Y-99917286D01*
X158921762Y-99869667D01*
X158969381Y-99774429D01*
X158969381Y-99583952D01*
X158921762Y-99488714D01*
X158874143Y-99441095D01*
X158778905Y-99393476D01*
X158540810Y-99393476D01*
X158445571Y-99441095D01*
X158397952Y-99488714D01*
X158350333Y-99583952D01*
X158350333Y-99774429D01*
X158397952Y-99869667D01*
X158445571Y-99917286D01*
X158540810Y-99964905D01*
X124420334Y-83006143D02*
X124372715Y-83053762D01*
X124229858Y-83101381D01*
X124134620Y-83101381D01*
X123991762Y-83053762D01*
X123896524Y-82958524D01*
X123848905Y-82863286D01*
X123801286Y-82672810D01*
X123801286Y-82529952D01*
X123848905Y-82339476D01*
X123896524Y-82244238D01*
X123991762Y-82149000D01*
X124134620Y-82101381D01*
X124229858Y-82101381D01*
X124372715Y-82149000D01*
X124420334Y-82196619D01*
X124753667Y-82101381D02*
X125420334Y-82101381D01*
X124991762Y-83101381D01*
X118197334Y-109196143D02*
X118149715Y-109243762D01*
X118006858Y-109291381D01*
X117911620Y-109291381D01*
X117768762Y-109243762D01*
X117673524Y-109148524D01*
X117625905Y-109053286D01*
X117578286Y-108862810D01*
X117578286Y-108719952D01*
X117625905Y-108529476D01*
X117673524Y-108434238D01*
X117768762Y-108339000D01*
X117911620Y-108291381D01*
X118006858Y-108291381D01*
X118149715Y-108339000D01*
X118197334Y-108386619D01*
X119102096Y-108291381D02*
X118625905Y-108291381D01*
X118578286Y-108767571D01*
X118625905Y-108719952D01*
X118721143Y-108672333D01*
X118959239Y-108672333D01*
X119054477Y-108719952D01*
X119102096Y-108767571D01*
X119149715Y-108862810D01*
X119149715Y-109100905D01*
X119102096Y-109196143D01*
X119054477Y-109243762D01*
X118959239Y-109291381D01*
X118721143Y-109291381D01*
X118625905Y-109243762D01*
X118578286Y-109196143D01*
X100207143Y-97067666D02*
X100254762Y-97115285D01*
X100302381Y-97258142D01*
X100302381Y-97353380D01*
X100254762Y-97496238D01*
X100159524Y-97591476D01*
X100064286Y-97639095D01*
X99873810Y-97686714D01*
X99730952Y-97686714D01*
X99540476Y-97639095D01*
X99445238Y-97591476D01*
X99350000Y-97496238D01*
X99302381Y-97353380D01*
X99302381Y-97258142D01*
X99350000Y-97115285D01*
X99397619Y-97067666D01*
X99397619Y-96686714D02*
X99350000Y-96639095D01*
X99302381Y-96543857D01*
X99302381Y-96305761D01*
X99350000Y-96210523D01*
X99397619Y-96162904D01*
X99492857Y-96115285D01*
X99588095Y-96115285D01*
X99730952Y-96162904D01*
X100302381Y-96734333D01*
X100302381Y-96115285D01*
X107148334Y-94337143D02*
X107100715Y-94384762D01*
X106957858Y-94432381D01*
X106862620Y-94432381D01*
X106719762Y-94384762D01*
X106624524Y-94289524D01*
X106576905Y-94194286D01*
X106529286Y-94003810D01*
X106529286Y-93860952D01*
X106576905Y-93670476D01*
X106624524Y-93575238D01*
X106719762Y-93480000D01*
X106862620Y-93432381D01*
X106957858Y-93432381D01*
X107100715Y-93480000D01*
X107148334Y-93527619D01*
X107481667Y-93432381D02*
X108100715Y-93432381D01*
X107767381Y-93813333D01*
X107910239Y-93813333D01*
X108005477Y-93860952D01*
X108053096Y-93908571D01*
X108100715Y-94003810D01*
X108100715Y-94241905D01*
X108053096Y-94337143D01*
X108005477Y-94384762D01*
X107910239Y-94432381D01*
X107624524Y-94432381D01*
X107529286Y-94384762D01*
X107481667Y-94337143D01*
X95972334Y-104906143D02*
X95924715Y-104953762D01*
X95781858Y-105001381D01*
X95686620Y-105001381D01*
X95543762Y-104953762D01*
X95448524Y-104858524D01*
X95400905Y-104763286D01*
X95353286Y-104572810D01*
X95353286Y-104429952D01*
X95400905Y-104239476D01*
X95448524Y-104144238D01*
X95543762Y-104049000D01*
X95686620Y-104001381D01*
X95781858Y-104001381D01*
X95924715Y-104049000D01*
X95972334Y-104096619D01*
X96829477Y-104001381D02*
X96639000Y-104001381D01*
X96543762Y-104049000D01*
X96496143Y-104096619D01*
X96400905Y-104239476D01*
X96353286Y-104429952D01*
X96353286Y-104810905D01*
X96400905Y-104906143D01*
X96448524Y-104953762D01*
X96543762Y-105001381D01*
X96734239Y-105001381D01*
X96829477Y-104953762D01*
X96877096Y-104906143D01*
X96924715Y-104810905D01*
X96924715Y-104572810D01*
X96877096Y-104477571D01*
X96829477Y-104429952D01*
X96734239Y-104382333D01*
X96543762Y-104382333D01*
X96448524Y-104429952D01*
X96400905Y-104477571D01*
X96353286Y-104572810D01*
X103592334Y-104525143D02*
X103544715Y-104572762D01*
X103401858Y-104620381D01*
X103306620Y-104620381D01*
X103163762Y-104572762D01*
X103068524Y-104477524D01*
X103020905Y-104382286D01*
X102973286Y-104191810D01*
X102973286Y-104048952D01*
X103020905Y-103858476D01*
X103068524Y-103763238D01*
X103163762Y-103668000D01*
X103306620Y-103620381D01*
X103401858Y-103620381D01*
X103544715Y-103668000D01*
X103592334Y-103715619D01*
X104449477Y-103953714D02*
X104449477Y-104620381D01*
X104211381Y-103572762D02*
X103973286Y-104287048D01*
X104592334Y-104287048D01*
X98512334Y-120245143D02*
X98464715Y-120292762D01*
X98321858Y-120340381D01*
X98226620Y-120340381D01*
X98083762Y-120292762D01*
X97988524Y-120197524D01*
X97940905Y-120102286D01*
X97893286Y-119911810D01*
X97893286Y-119768952D01*
X97940905Y-119578476D01*
X97988524Y-119483238D01*
X98083762Y-119388000D01*
X98226620Y-119340381D01*
X98321858Y-119340381D01*
X98464715Y-119388000D01*
X98512334Y-119435619D01*
X99083762Y-119768952D02*
X98988524Y-119721333D01*
X98940905Y-119673714D01*
X98893286Y-119578476D01*
X98893286Y-119530857D01*
X98940905Y-119435619D01*
X98988524Y-119388000D01*
X99083762Y-119340381D01*
X99274239Y-119340381D01*
X99369477Y-119388000D01*
X99417096Y-119435619D01*
X99464715Y-119530857D01*
X99464715Y-119578476D01*
X99417096Y-119673714D01*
X99369477Y-119721333D01*
X99274239Y-119768952D01*
X99083762Y-119768952D01*
X98988524Y-119816571D01*
X98940905Y-119864190D01*
X98893286Y-119959429D01*
X98893286Y-120149905D01*
X98940905Y-120245143D01*
X98988524Y-120292762D01*
X99083762Y-120340381D01*
X99274239Y-120340381D01*
X99369477Y-120292762D01*
X99417096Y-120245143D01*
X99464715Y-120149905D01*
X99464715Y-119959429D01*
X99417096Y-119864190D01*
X99369477Y-119816571D01*
X99274239Y-119768952D01*
X110704334Y-123293143D02*
X110656715Y-123340762D01*
X110513858Y-123388381D01*
X110418620Y-123388381D01*
X110275762Y-123340762D01*
X110180524Y-123245524D01*
X110132905Y-123150286D01*
X110085286Y-122959810D01*
X110085286Y-122816952D01*
X110132905Y-122626476D01*
X110180524Y-122531238D01*
X110275762Y-122436000D01*
X110418620Y-122388381D01*
X110513858Y-122388381D01*
X110656715Y-122436000D01*
X110704334Y-122483619D01*
X111180524Y-123388381D02*
X111371000Y-123388381D01*
X111466239Y-123340762D01*
X111513858Y-123293143D01*
X111609096Y-123150286D01*
X111656715Y-122959810D01*
X111656715Y-122578857D01*
X111609096Y-122483619D01*
X111561477Y-122436000D01*
X111466239Y-122388381D01*
X111275762Y-122388381D01*
X111180524Y-122436000D01*
X111132905Y-122483619D01*
X111085286Y-122578857D01*
X111085286Y-122816952D01*
X111132905Y-122912190D01*
X111180524Y-122959810D01*
X111275762Y-123007429D01*
X111466239Y-123007429D01*
X111561477Y-122959810D01*
X111609096Y-122912190D01*
X111656715Y-122816952D01*
X113105143Y-119387857D02*
X113152762Y-119435476D01*
X113200381Y-119578333D01*
X113200381Y-119673571D01*
X113152762Y-119816429D01*
X113057524Y-119911667D01*
X112962286Y-119959286D01*
X112771810Y-120006905D01*
X112628952Y-120006905D01*
X112438476Y-119959286D01*
X112343238Y-119911667D01*
X112248000Y-119816429D01*
X112200381Y-119673571D01*
X112200381Y-119578333D01*
X112248000Y-119435476D01*
X112295619Y-119387857D01*
X113200381Y-118435476D02*
X113200381Y-119006905D01*
X113200381Y-118721191D02*
X112200381Y-118721191D01*
X112343238Y-118816429D01*
X112438476Y-118911667D01*
X112486095Y-119006905D01*
X113200381Y-117483095D02*
X113200381Y-118054524D01*
X113200381Y-117768810D02*
X112200381Y-117768810D01*
X112343238Y-117864048D01*
X112438476Y-117959286D01*
X112486095Y-118054524D01*
X121543143Y-124340857D02*
X121590762Y-124388476D01*
X121638381Y-124531333D01*
X121638381Y-124626571D01*
X121590762Y-124769429D01*
X121495524Y-124864667D01*
X121400286Y-124912286D01*
X121209810Y-124959905D01*
X121066952Y-124959905D01*
X120876476Y-124912286D01*
X120781238Y-124864667D01*
X120686000Y-124769429D01*
X120638381Y-124626571D01*
X120638381Y-124531333D01*
X120686000Y-124388476D01*
X120733619Y-124340857D01*
X121638381Y-123388476D02*
X121638381Y-123959905D01*
X121638381Y-123674191D02*
X120638381Y-123674191D01*
X120781238Y-123769429D01*
X120876476Y-123864667D01*
X120924095Y-123959905D01*
X120733619Y-123007524D02*
X120686000Y-122959905D01*
X120638381Y-122864667D01*
X120638381Y-122626571D01*
X120686000Y-122531333D01*
X120733619Y-122483714D01*
X120828857Y-122436095D01*
X120924095Y-122436095D01*
X121066952Y-122483714D01*
X121638381Y-123055143D01*
X121638381Y-122436095D01*
X116407143Y-110751857D02*
X116454762Y-110799476D01*
X116502381Y-110942333D01*
X116502381Y-111037571D01*
X116454762Y-111180429D01*
X116359524Y-111275667D01*
X116264286Y-111323286D01*
X116073810Y-111370905D01*
X115930952Y-111370905D01*
X115740476Y-111323286D01*
X115645238Y-111275667D01*
X115550000Y-111180429D01*
X115502381Y-111037571D01*
X115502381Y-110942333D01*
X115550000Y-110799476D01*
X115597619Y-110751857D01*
X116502381Y-109799476D02*
X116502381Y-110370905D01*
X116502381Y-110085191D02*
X115502381Y-110085191D01*
X115645238Y-110180429D01*
X115740476Y-110275667D01*
X115788095Y-110370905D01*
X115502381Y-109180429D02*
X115502381Y-109085190D01*
X115550000Y-108989952D01*
X115597619Y-108942333D01*
X115692857Y-108894714D01*
X115883333Y-108847095D01*
X116121429Y-108847095D01*
X116311905Y-108894714D01*
X116407143Y-108942333D01*
X116454762Y-108989952D01*
X116502381Y-109085190D01*
X116502381Y-109180429D01*
X116454762Y-109275667D01*
X116407143Y-109323286D01*
X116311905Y-109370905D01*
X116121429Y-109418524D01*
X115883333Y-109418524D01*
X115692857Y-109370905D01*
X115597619Y-109323286D01*
X115550000Y-109275667D01*
X115502381Y-109180429D01*
X149725143Y-120245143D02*
X149677524Y-120292762D01*
X149534667Y-120340381D01*
X149439429Y-120340381D01*
X149296571Y-120292762D01*
X149201333Y-120197524D01*
X149153714Y-120102286D01*
X149106095Y-119911810D01*
X149106095Y-119768952D01*
X149153714Y-119578476D01*
X149201333Y-119483238D01*
X149296571Y-119388000D01*
X149439429Y-119340381D01*
X149534667Y-119340381D01*
X149677524Y-119388000D01*
X149725143Y-119435619D01*
X150677524Y-120340381D02*
X150106095Y-120340381D01*
X150391809Y-120340381D02*
X150391809Y-119340381D01*
X150296571Y-119483238D01*
X150201333Y-119578476D01*
X150106095Y-119626095D01*
X151534667Y-119673714D02*
X151534667Y-120340381D01*
X151296571Y-119292762D02*
X151058476Y-120007048D01*
X151677524Y-120007048D01*
X156468143Y-125864857D02*
X156515762Y-125912476D01*
X156563381Y-126055333D01*
X156563381Y-126150571D01*
X156515762Y-126293429D01*
X156420524Y-126388667D01*
X156325286Y-126436286D01*
X156134810Y-126483905D01*
X155991952Y-126483905D01*
X155801476Y-126436286D01*
X155706238Y-126388667D01*
X155611000Y-126293429D01*
X155563381Y-126150571D01*
X155563381Y-126055333D01*
X155611000Y-125912476D01*
X155658619Y-125864857D01*
X156563381Y-124912476D02*
X156563381Y-125483905D01*
X156563381Y-125198191D02*
X155563381Y-125198191D01*
X155706238Y-125293429D01*
X155801476Y-125388667D01*
X155849095Y-125483905D01*
X155563381Y-124579143D02*
X155563381Y-123912476D01*
X156563381Y-124341048D01*
X166572143Y-128658857D02*
X166619762Y-128706476D01*
X166667381Y-128849333D01*
X166667381Y-128944571D01*
X166619762Y-129087429D01*
X166524524Y-129182667D01*
X166429286Y-129230286D01*
X166238810Y-129277905D01*
X166095952Y-129277905D01*
X165905476Y-129230286D01*
X165810238Y-129182667D01*
X165715000Y-129087429D01*
X165667381Y-128944571D01*
X165667381Y-128849333D01*
X165715000Y-128706476D01*
X165762619Y-128658857D01*
X165762619Y-128277905D02*
X165715000Y-128230286D01*
X165667381Y-128135048D01*
X165667381Y-127896952D01*
X165715000Y-127801714D01*
X165762619Y-127754095D01*
X165857857Y-127706476D01*
X165953095Y-127706476D01*
X166095952Y-127754095D01*
X166667381Y-128325524D01*
X166667381Y-127706476D01*
X165667381Y-127087429D02*
X165667381Y-126992190D01*
X165715000Y-126896952D01*
X165762619Y-126849333D01*
X165857857Y-126801714D01*
X166048333Y-126754095D01*
X166286429Y-126754095D01*
X166476905Y-126801714D01*
X166572143Y-126849333D01*
X166619762Y-126896952D01*
X166667381Y-126992190D01*
X166667381Y-127087429D01*
X166619762Y-127182667D01*
X166572143Y-127230286D01*
X166476905Y-127277905D01*
X166286429Y-127325524D01*
X166048333Y-127325524D01*
X165857857Y-127277905D01*
X165762619Y-127230286D01*
X165715000Y-127182667D01*
X165667381Y-127087429D01*
X173049143Y-126626857D02*
X173096762Y-126674476D01*
X173144381Y-126817333D01*
X173144381Y-126912571D01*
X173096762Y-127055429D01*
X173001524Y-127150667D01*
X172906286Y-127198286D01*
X172715810Y-127245905D01*
X172572952Y-127245905D01*
X172382476Y-127198286D01*
X172287238Y-127150667D01*
X172192000Y-127055429D01*
X172144381Y-126912571D01*
X172144381Y-126817333D01*
X172192000Y-126674476D01*
X172239619Y-126626857D01*
X173144381Y-125674476D02*
X173144381Y-126245905D01*
X173144381Y-125960191D02*
X172144381Y-125960191D01*
X172287238Y-126055429D01*
X172382476Y-126150667D01*
X172430095Y-126245905D01*
X172572952Y-125103048D02*
X172525333Y-125198286D01*
X172477714Y-125245905D01*
X172382476Y-125293524D01*
X172334857Y-125293524D01*
X172239619Y-125245905D01*
X172192000Y-125198286D01*
X172144381Y-125103048D01*
X172144381Y-124912571D01*
X172192000Y-124817333D01*
X172239619Y-124769714D01*
X172334857Y-124722095D01*
X172382476Y-124722095D01*
X172477714Y-124769714D01*
X172525333Y-124817333D01*
X172572952Y-124912571D01*
X172572952Y-125103048D01*
X172620571Y-125198286D01*
X172668190Y-125245905D01*
X172763429Y-125293524D01*
X172953905Y-125293524D01*
X173049143Y-125245905D01*
X173096762Y-125198286D01*
X173144381Y-125103048D01*
X173144381Y-124912571D01*
X173096762Y-124817333D01*
X173049143Y-124769714D01*
X172953905Y-124722095D01*
X172763429Y-124722095D01*
X172668190Y-124769714D01*
X172620571Y-124817333D01*
X172572952Y-124912571D01*
X153281143Y-106783143D02*
X153233524Y-106830762D01*
X153090667Y-106878381D01*
X152995429Y-106878381D01*
X152852571Y-106830762D01*
X152757333Y-106735524D01*
X152709714Y-106640286D01*
X152662095Y-106449810D01*
X152662095Y-106306952D01*
X152709714Y-106116476D01*
X152757333Y-106021238D01*
X152852571Y-105926000D01*
X152995429Y-105878381D01*
X153090667Y-105878381D01*
X153233524Y-105926000D01*
X153281143Y-105973619D01*
X154233524Y-106878381D02*
X153662095Y-106878381D01*
X153947809Y-106878381D02*
X153947809Y-105878381D01*
X153852571Y-106021238D01*
X153757333Y-106116476D01*
X153662095Y-106164095D01*
X155090667Y-105878381D02*
X154900190Y-105878381D01*
X154804952Y-105926000D01*
X154757333Y-105973619D01*
X154662095Y-106116476D01*
X154614476Y-106306952D01*
X154614476Y-106687905D01*
X154662095Y-106783143D01*
X154709714Y-106830762D01*
X154804952Y-106878381D01*
X154995429Y-106878381D01*
X155090667Y-106830762D01*
X155138286Y-106783143D01*
X155185905Y-106687905D01*
X155185905Y-106449810D01*
X155138286Y-106354571D01*
X155090667Y-106306952D01*
X154995429Y-106259333D01*
X154804952Y-106259333D01*
X154709714Y-106306952D01*
X154662095Y-106354571D01*
X154614476Y-106449810D01*
X153281143Y-104370143D02*
X153233524Y-104417762D01*
X153090667Y-104465381D01*
X152995429Y-104465381D01*
X152852571Y-104417762D01*
X152757333Y-104322524D01*
X152709714Y-104227286D01*
X152662095Y-104036810D01*
X152662095Y-103893952D01*
X152709714Y-103703476D01*
X152757333Y-103608238D01*
X152852571Y-103513000D01*
X152995429Y-103465381D01*
X153090667Y-103465381D01*
X153233524Y-103513000D01*
X153281143Y-103560619D01*
X154233524Y-104465381D02*
X153662095Y-104465381D01*
X153947809Y-104465381D02*
X153947809Y-103465381D01*
X153852571Y-103608238D01*
X153757333Y-103703476D01*
X153662095Y-103751095D01*
X155138286Y-103465381D02*
X154662095Y-103465381D01*
X154614476Y-103941571D01*
X154662095Y-103893952D01*
X154757333Y-103846333D01*
X154995429Y-103846333D01*
X155090667Y-103893952D01*
X155138286Y-103941571D01*
X155185905Y-104036810D01*
X155185905Y-104274905D01*
X155138286Y-104370143D01*
X155090667Y-104417762D01*
X154995429Y-104465381D01*
X154757333Y-104465381D01*
X154662095Y-104417762D01*
X154614476Y-104370143D01*
X159377143Y-98373143D02*
X159329524Y-98420762D01*
X159186667Y-98468381D01*
X159091429Y-98468381D01*
X158948571Y-98420762D01*
X158853333Y-98325524D01*
X158805714Y-98230286D01*
X158758095Y-98039810D01*
X158758095Y-97896952D01*
X158805714Y-97706476D01*
X158853333Y-97611238D01*
X158948571Y-97516000D01*
X159091429Y-97468381D01*
X159186667Y-97468381D01*
X159329524Y-97516000D01*
X159377143Y-97563619D01*
X160329524Y-98468381D02*
X159758095Y-98468381D01*
X160043809Y-98468381D02*
X160043809Y-97468381D01*
X159948571Y-97611238D01*
X159853333Y-97706476D01*
X159758095Y-97754095D01*
X160805714Y-98468381D02*
X160996190Y-98468381D01*
X161091429Y-98420762D01*
X161139048Y-98373143D01*
X161234286Y-98230286D01*
X161281905Y-98039810D01*
X161281905Y-97658857D01*
X161234286Y-97563619D01*
X161186667Y-97516000D01*
X161091429Y-97468381D01*
X160900952Y-97468381D01*
X160805714Y-97516000D01*
X160758095Y-97563619D01*
X160710476Y-97658857D01*
X160710476Y-97896952D01*
X160758095Y-97992190D01*
X160805714Y-98039810D01*
X160900952Y-98087429D01*
X161091429Y-98087429D01*
X161186667Y-98039810D01*
X161234286Y-97992190D01*
X161281905Y-97896952D01*
X165219143Y-86237143D02*
X165171524Y-86284762D01*
X165028667Y-86332381D01*
X164933429Y-86332381D01*
X164790571Y-86284762D01*
X164695333Y-86189524D01*
X164647714Y-86094286D01*
X164600095Y-85903810D01*
X164600095Y-85760952D01*
X164647714Y-85570476D01*
X164695333Y-85475238D01*
X164790571Y-85380000D01*
X164933429Y-85332381D01*
X165028667Y-85332381D01*
X165171524Y-85380000D01*
X165219143Y-85427619D01*
X166171524Y-86332381D02*
X165600095Y-86332381D01*
X165885809Y-86332381D02*
X165885809Y-85332381D01*
X165790571Y-85475238D01*
X165695333Y-85570476D01*
X165600095Y-85618095D01*
X166504857Y-85332381D02*
X167123905Y-85332381D01*
X166790571Y-85713333D01*
X166933429Y-85713333D01*
X167028667Y-85760952D01*
X167076286Y-85808571D01*
X167123905Y-85903810D01*
X167123905Y-86141905D01*
X167076286Y-86237143D01*
X167028667Y-86284762D01*
X166933429Y-86332381D01*
X166647714Y-86332381D01*
X166552476Y-86284762D01*
X166504857Y-86237143D01*
M02*
