M48
INCH,TZ
T1C0.016
T2C0.030
T3C0.031
T4C0.091
T5C0.331
%
G90
G05
T1
X35827Y-41831
X36700Y-39800
X39100Y-39250
X39100Y-40200
X39469Y-46949
X39862Y-46949
X41634Y-41732
X41634Y-43307
X42520Y-48327
X42800Y-34700
X43701Y-47539
X44980Y-44193
X45150Y-35750
X45650Y-36250
X45965Y-31004
X46650Y-42131
X47650Y-40813
X47650Y-42387
X48500Y-31850
X48720Y-29921
X48720Y-30315
X49300Y-31350
X50591Y-30807
X51673Y-30807
X57185Y-48524
X57185Y-51575
X57677Y-47835
X57677Y-50000
X57776Y-46752
X60800Y-33300
X60800Y-33700
X61300Y-33300
X61300Y-33700
X61500Y-49050
X61500Y-49550
X62008Y-37697
X62008Y-38091
X62205Y-37894
X62800Y-49050
X62800Y-49550
X63150Y-38950
X63976Y-39961
X65950Y-34300
X65950Y-34700
X66300Y-34300
X66300Y-34700
T2
X31966Y-36450
X33934Y-36450
T3
X50201Y-35787
X50201Y-36787
X50201Y-37787
X50201Y-38787
X50201Y-39787
X50201Y-40787
X50201Y-41787
X50201Y-42787
X50201Y-43787
X50201Y-44787
X50201Y-45787
X50201Y-46787
X50201Y-47787
X50201Y-48787
X50201Y-49787
X50201Y-50787
X53750Y-23750
X53750Y-29360
X55719Y-23750
X55719Y-29360
X56201Y-35787
X56201Y-36787
X56201Y-37787
X56201Y-38787
X56201Y-39787
X56201Y-40787
X56201Y-41787
X56201Y-42787
X56201Y-43787
X56201Y-44787
X56201Y-45787
X56201Y-46787
X56201Y-47787
X56201Y-48787
X56201Y-49787
X56201Y-50787
X57687Y-23750
X57687Y-29360
X62850Y-35400
X67350Y-21750
X67350Y-27360
X69319Y-21750
X69319Y-27360
X71287Y-21750
X71287Y-27360
X78650Y-48208
X78650Y-49192
X79437Y-48208
X79437Y-49192
T4
X80500Y-46338
X80500Y-51062
T5
X34900Y-26500
X43450Y-26500
X77550Y-26500
T0
M30
