G04 #@! TF.FileFunction,Copper,L1,Top,Signal*
%FSLAX46Y46*%
G04 Gerber Fmt 4.6, Leading zero omitted, Abs format (unit mm)*
G04 Created by KiCad (PCBNEW 4.0.4-stable) date 04/19/17 19:13:53*
%MOMM*%
%LPD*%
G01*
G04 APERTURE LIST*
%ADD10C,0.100000*%
%ADD11C,1.600000*%
%ADD12C,4.000000*%
%ADD13R,1.450000X0.450000*%
%ADD14C,1.200000*%
%ADD15R,0.450000X1.450000*%
%ADD16R,0.900000X1.200000*%
%ADD17R,3.500000X2.200000*%
%ADD18R,2.400000X1.600000*%
%ADD19O,2.400000X1.600000*%
%ADD20C,1.524000*%
%ADD21C,16.800000*%
%ADD22R,13.700000X11.200000*%
%ADD23R,15.000000X1.400000*%
%ADD24R,5.000000X3.000000*%
%ADD25R,1.700000X2.000000*%
%ADD26R,2.000000X1.700000*%
%ADD27R,4.000000X6.200000*%
%ADD28R,0.300000X1.500000*%
%ADD29R,1.560000X0.650000*%
%ADD30R,1.550000X0.600000*%
%ADD31R,0.650000X1.560000*%
%ADD32R,1.500000X1.250000*%
%ADD33R,1.250000X1.500000*%
%ADD34R,1.600000X2.000000*%
%ADD35R,2.500000X2.000000*%
%ADD36R,2.000000X1.600000*%
%ADD37C,0.600000*%
%ADD38C,1.000000*%
%ADD39C,0.500000*%
%ADD40C,0.250000*%
%ADD41C,7.000000*%
%ADD42C,2.000000*%
%ADD43C,0.254000*%
G04 APERTURE END LIST*
D10*
D11*
X199771000Y-122448000D03*
X199771000Y-124948000D03*
X201771000Y-124948000D03*
X201771000Y-122448000D03*
D12*
X204471000Y-117698000D03*
X204471000Y-129698000D03*
D13*
X93304000Y-98847000D03*
X93304000Y-99497000D03*
X93304000Y-100147000D03*
X93304000Y-100797000D03*
X97704000Y-100797000D03*
X97704000Y-100147000D03*
X97704000Y-99497000D03*
X97704000Y-98847000D03*
D14*
X181069000Y-69495000D03*
X176069000Y-69495000D03*
X171069000Y-69495000D03*
X181069000Y-55245000D03*
X176069000Y-55245000D03*
X171069000Y-55245000D03*
X146525000Y-74575000D03*
X141525000Y-74575000D03*
X136525000Y-74575000D03*
X146525000Y-60325000D03*
X141525000Y-60325000D03*
X136525000Y-60325000D03*
D15*
X158410000Y-91862000D03*
X159060000Y-91862000D03*
X159710000Y-91862000D03*
X160360000Y-91862000D03*
X160360000Y-87462000D03*
X159710000Y-87462000D03*
X159060000Y-87462000D03*
X158410000Y-87462000D03*
D16*
X90805000Y-97071000D03*
X90805000Y-99271000D03*
D10*
G36*
X94218000Y-91583000D02*
X94218000Y-94583000D01*
X92218000Y-94583000D01*
X92218000Y-91583000D01*
X94218000Y-91583000D01*
X94218000Y-91583000D01*
G37*
G36*
X94218000Y-86383000D02*
X94218000Y-89383000D01*
X92218000Y-89383000D01*
X92218000Y-86383000D01*
X94218000Y-86383000D01*
X94218000Y-86383000D01*
G37*
D17*
X155329000Y-56007000D03*
X161029000Y-56007000D03*
D18*
X142750000Y-129000000D03*
D19*
X127510000Y-90900000D03*
X142750000Y-126460000D03*
X127510000Y-93440000D03*
X142750000Y-123920000D03*
X127510000Y-95980000D03*
X142750000Y-121380000D03*
X127510000Y-98520000D03*
X142750000Y-118840000D03*
X127510000Y-101060000D03*
X142750000Y-116300000D03*
X127510000Y-103600000D03*
X142750000Y-113760000D03*
X127510000Y-106140000D03*
X142750000Y-111220000D03*
X127510000Y-108680000D03*
X142750000Y-108680000D03*
X127510000Y-111220000D03*
X142750000Y-106140000D03*
X127510000Y-113760000D03*
X142750000Y-103600000D03*
X127510000Y-116300000D03*
X142750000Y-101060000D03*
X127510000Y-118840000D03*
X142750000Y-98520000D03*
X127510000Y-121380000D03*
X142750000Y-95980000D03*
X127510000Y-123920000D03*
X142750000Y-93440000D03*
X127510000Y-126460000D03*
X142750000Y-90900000D03*
X127510000Y-129000000D03*
D20*
X81193000Y-92583000D03*
X86193000Y-92583000D03*
D21*
X88646000Y-67310000D03*
X110363000Y-67310000D03*
X196977000Y-67310000D03*
D22*
X141986000Y-67437000D03*
D23*
X141386000Y-60337000D03*
X141386000Y-74537000D03*
D24*
X156186000Y-64937000D03*
X156186000Y-69937000D03*
D22*
X176022000Y-62484000D03*
D23*
X176622000Y-69584000D03*
X176622000Y-55384000D03*
D24*
X161822000Y-64984000D03*
X161822000Y-59984000D03*
D25*
X91059000Y-101886000D03*
X91059000Y-105886000D03*
X121031000Y-97060000D03*
X121031000Y-101060000D03*
X121031000Y-103664000D03*
X121031000Y-107664000D03*
D26*
X105759000Y-102235000D03*
X101759000Y-102235000D03*
D27*
X130810000Y-67437000D03*
X121210000Y-67437000D03*
D26*
X94139000Y-109982000D03*
X98139000Y-109982000D03*
X101759000Y-109982000D03*
X105759000Y-109982000D03*
D25*
X114173000Y-86455000D03*
X114173000Y-82455000D03*
D26*
X116745000Y-82296000D03*
X120745000Y-82296000D03*
X120745000Y-78613000D03*
X116745000Y-78613000D03*
D25*
X111506000Y-108109000D03*
X111506000Y-112109000D03*
D26*
X159099000Y-85090000D03*
X155099000Y-85090000D03*
D25*
X131250000Y-81500000D03*
X131250000Y-85500000D03*
X146750000Y-114500000D03*
X146750000Y-118500000D03*
D26*
X175673000Y-123444000D03*
X179673000Y-123444000D03*
X179673000Y-125857000D03*
X175673000Y-125857000D03*
D28*
X124980000Y-78239000D03*
X125480000Y-78239000D03*
X125980000Y-78239000D03*
X125980000Y-75939000D03*
X125480000Y-75939000D03*
X124980000Y-75939000D03*
D29*
X103171000Y-116652000D03*
X103171000Y-117602000D03*
X103171000Y-118552000D03*
X105871000Y-118552000D03*
X105871000Y-116652000D03*
D30*
X149300000Y-123345000D03*
X149300000Y-124615000D03*
X149300000Y-125885000D03*
X149300000Y-127155000D03*
X154700000Y-127155000D03*
X154700000Y-125885000D03*
X154700000Y-124615000D03*
X154700000Y-123345000D03*
D25*
X128500000Y-81500000D03*
X128500000Y-85500000D03*
D31*
X160467000Y-101553000D03*
X161417000Y-101553000D03*
X162367000Y-101553000D03*
X162367000Y-98853000D03*
X160467000Y-98853000D03*
D14*
X159639000Y-89916000D03*
D32*
X125837000Y-80899000D03*
X123337000Y-80899000D03*
D33*
X118491000Y-104414000D03*
X118491000Y-106914000D03*
D34*
X101600000Y-98901000D03*
X101600000Y-94901000D03*
D35*
X104648000Y-98901000D03*
X104648000Y-94901000D03*
D32*
X94889000Y-106299000D03*
X97389000Y-106299000D03*
D36*
X101759000Y-105918000D03*
X105759000Y-105918000D03*
D34*
X100711000Y-115094000D03*
X100711000Y-119094000D03*
X108077000Y-118523000D03*
X108077000Y-122523000D03*
X110998000Y-116745000D03*
X110998000Y-120745000D03*
X122936000Y-125698000D03*
X122936000Y-121698000D03*
X114300000Y-108109000D03*
X114300000Y-112109000D03*
D32*
X146500000Y-121500000D03*
X149000000Y-121500000D03*
D33*
X157861000Y-126472000D03*
X157861000Y-123972000D03*
D34*
X164465000Y-126016000D03*
X164465000Y-130016000D03*
X170942000Y-123984000D03*
X170942000Y-127984000D03*
D36*
X156750000Y-106299000D03*
X160750000Y-106299000D03*
X156750000Y-103886000D03*
X160750000Y-103886000D03*
X162020000Y-96266000D03*
X158020000Y-96266000D03*
X163862000Y-87630000D03*
X167862000Y-87630000D03*
D37*
X115951000Y-92075000D03*
X114681000Y-90805000D03*
X108712000Y-88138000D03*
X93218000Y-101092000D03*
X123190000Y-80899000D03*
X125222000Y-79629000D03*
X167513000Y-87122000D03*
X168402000Y-87122000D03*
X168402000Y-88138000D03*
X167513000Y-88138000D03*
X154432000Y-84582000D03*
X155702000Y-84582000D03*
X155702000Y-85598000D03*
X154432000Y-85598000D03*
X118491000Y-107014000D03*
X121031000Y-107664000D03*
X100250000Y-119250000D03*
X101250000Y-119250000D03*
X157500000Y-95750000D03*
X157500000Y-96750000D03*
X158000000Y-96250000D03*
X116750000Y-78750000D03*
X114250000Y-112250000D03*
X111000000Y-120750000D03*
X108000000Y-122750000D03*
X105750000Y-110000000D03*
X91000000Y-106250000D03*
X105750000Y-106000000D03*
X162500000Y-101500000D03*
X99314000Y-99695000D03*
X99314000Y-102108000D03*
X121031000Y-103664000D03*
X160401000Y-98933000D03*
X145250000Y-131000000D03*
X145250000Y-123250000D03*
X146500000Y-121500000D03*
X146500000Y-127000000D03*
X159512000Y-124587000D03*
X156210000Y-124587000D03*
X159512000Y-125857000D03*
X156210000Y-125857000D03*
X146750000Y-118750000D03*
X128500000Y-78250000D03*
X123750000Y-77000000D03*
X131250000Y-78250000D03*
X123750000Y-76000000D03*
D38*
X93304000Y-92669000D02*
X93218000Y-92583000D01*
D39*
X93304000Y-92669000D02*
X93218000Y-92583000D01*
D40*
X93218000Y-92583000D02*
X93304000Y-92669000D01*
X93304000Y-93259000D02*
X93345000Y-93218000D01*
X93304000Y-99497000D02*
X91031000Y-99497000D01*
X91031000Y-99497000D02*
X90805000Y-99271000D01*
X121031000Y-97060000D02*
X120936000Y-97060000D01*
X120936000Y-97060000D02*
X115951000Y-92075000D01*
X114681000Y-90805000D02*
X112014000Y-88138000D01*
X112014000Y-88138000D02*
X108712000Y-88138000D01*
X97790000Y-97917000D02*
X97155000Y-98552000D01*
X98933000Y-98806000D02*
X98679000Y-98806000D01*
X98679000Y-98806000D02*
X97790000Y-97917000D01*
D38*
X88646000Y-67310000D02*
X88646000Y-72898000D01*
X88646000Y-72898000D02*
X97790000Y-82042000D01*
X97790000Y-82042000D02*
X97790000Y-97917000D01*
X97790000Y-97917000D02*
X97790000Y-98425000D01*
D40*
X98298000Y-98552000D02*
X97282000Y-98552000D01*
X97282000Y-98552000D02*
X97577000Y-98847000D01*
X98298000Y-98552000D02*
X98171000Y-98552000D01*
X98171000Y-98552000D02*
X98171000Y-98679000D01*
X97704000Y-98847000D02*
X98003000Y-98847000D01*
X98003000Y-98847000D02*
X98171000Y-98679000D01*
X98171000Y-98679000D02*
X98298000Y-98552000D01*
X97704000Y-98847000D02*
X97749000Y-98847000D01*
X97749000Y-98847000D02*
X98044000Y-98552000D01*
X97704000Y-98847000D02*
X97704000Y-98638000D01*
X97704000Y-98638000D02*
X97790000Y-98552000D01*
X97704000Y-98847000D02*
X97704000Y-98720000D01*
X97704000Y-98720000D02*
X97536000Y-98552000D01*
X97704000Y-98847000D02*
X97577000Y-98847000D01*
X105759000Y-101568000D02*
X104902000Y-100711000D01*
X99949000Y-99314000D02*
X99441000Y-98806000D01*
X99949000Y-100076000D02*
X99949000Y-99314000D01*
X100584000Y-100711000D02*
X99949000Y-100076000D01*
X104902000Y-100711000D02*
X100584000Y-100711000D01*
X98933000Y-98806000D02*
X99441000Y-98806000D01*
X99949000Y-98806000D02*
X101505000Y-98806000D01*
X99441000Y-98806000D02*
X99949000Y-98806000D01*
X101505000Y-98806000D02*
X101600000Y-98901000D01*
X104648000Y-98901000D02*
X101600000Y-98901000D01*
X105759000Y-102235000D02*
X105759000Y-101568000D01*
X104648000Y-98901000D02*
X104648000Y-99314000D01*
X98933000Y-98806000D02*
X98892000Y-98847000D01*
X98892000Y-98847000D02*
X97704000Y-98847000D01*
X93304000Y-100797000D02*
X93304000Y-101006000D01*
X93304000Y-101006000D02*
X93218000Y-101092000D01*
X159710000Y-91862000D02*
X159710000Y-89987000D01*
X159710000Y-89987000D02*
X159639000Y-89916000D01*
X159710000Y-89987000D02*
X159639000Y-89916000D01*
X123237000Y-80899000D02*
X123110000Y-80979000D01*
X123110000Y-80979000D02*
X123190000Y-80899000D01*
X125480000Y-78239000D02*
X125480000Y-79117000D01*
X125480000Y-79117000D02*
X125222000Y-79629000D01*
X167862000Y-87630000D02*
X167898000Y-87630000D01*
X167898000Y-87630000D02*
X168450000Y-87087000D01*
X167862000Y-87630000D02*
X167898000Y-87630000D01*
X167898000Y-87630000D02*
X168450000Y-88087000D01*
X167862000Y-87630000D02*
X167950000Y-87587000D01*
D38*
X127510000Y-126460000D02*
X123698000Y-126460000D01*
X123698000Y-126460000D02*
X122936000Y-125698000D01*
X119141000Y-107664000D02*
X118491000Y-107014000D01*
X119141000Y-107664000D02*
X121031000Y-107664000D01*
D39*
X93718000Y-88133000D02*
X92718000Y-87968000D01*
X92718000Y-87968000D02*
X92750000Y-88000000D01*
D40*
X93750000Y-88000000D02*
X93741000Y-87991000D01*
D39*
X101211000Y-119094000D02*
X100156000Y-119344000D01*
X100156000Y-119344000D02*
X100250000Y-119250000D01*
X101211000Y-119094000D02*
X101250000Y-119250000D01*
D40*
X158020000Y-96266000D02*
X157734000Y-96266000D01*
X157734000Y-96266000D02*
X157500000Y-95750000D01*
X158020000Y-96266000D02*
X157734000Y-96266000D01*
X157734000Y-96266000D02*
X157500000Y-96750000D01*
X158020000Y-96266000D02*
X158000000Y-96250000D01*
X155099000Y-85090000D02*
X155000000Y-85000000D01*
D39*
X116745000Y-78613000D02*
X116750000Y-78750000D01*
D40*
X123237000Y-80899000D02*
X123698000Y-80899000D01*
D39*
X114300000Y-112109000D02*
X114250000Y-112250000D01*
D40*
X121210000Y-67437000D02*
X123571000Y-67437000D01*
X123571000Y-67437000D02*
X125480000Y-69346000D01*
X125480000Y-69346000D02*
X125480000Y-75939000D01*
D39*
X110998000Y-120745000D02*
X111000000Y-120750000D01*
X108077000Y-122523000D02*
X108000000Y-122750000D01*
X105759000Y-109982000D02*
X105750000Y-110000000D01*
X103171000Y-117602000D02*
X102203000Y-117602000D01*
X102203000Y-117602000D02*
X101211000Y-119094000D01*
D40*
X93718000Y-88133000D02*
X93741000Y-87991000D01*
X104648000Y-94901000D02*
X104750000Y-94750000D01*
X101600000Y-94901000D02*
X101500000Y-94750000D01*
X91059000Y-105886000D02*
X91000000Y-106250000D01*
X105509000Y-105918000D02*
X105750000Y-106000000D01*
X162367000Y-101553000D02*
X162326000Y-101326000D01*
X162326000Y-101326000D02*
X162500000Y-101500000D01*
X97704000Y-99497000D02*
X99116000Y-99497000D01*
X99116000Y-99497000D02*
X99314000Y-99695000D01*
X99314000Y-102108000D02*
X99314000Y-103759000D01*
X99314000Y-103759000D02*
X101473000Y-105918000D01*
X101473000Y-105918000D02*
X101759000Y-105918000D01*
D38*
X121031000Y-103664000D02*
X119141000Y-103664000D01*
X119141000Y-103664000D02*
X118491000Y-104314000D01*
X121031000Y-101060000D02*
X121031000Y-103664000D01*
D40*
X94139000Y-109982000D02*
X91567000Y-109982000D01*
X91567000Y-109982000D02*
X90551000Y-110998000D01*
D38*
X100711000Y-115094000D02*
X94647000Y-115094000D01*
X94647000Y-115094000D02*
X90551000Y-110998000D01*
X90551000Y-110998000D02*
X81193000Y-101640000D01*
X81193000Y-101640000D02*
X81193000Y-92583000D01*
D39*
X103171000Y-116652000D02*
X102269000Y-116652000D01*
X102269000Y-116652000D02*
X100711000Y-115094000D01*
D40*
X103171000Y-118552000D02*
X104079000Y-118552000D01*
X104079000Y-118552000D02*
X104521000Y-118110000D01*
X104521000Y-118110000D02*
X104521000Y-117094000D01*
X104521000Y-117094000D02*
X104079000Y-116652000D01*
X104079000Y-116652000D02*
X103171000Y-116652000D01*
X102978000Y-116459000D02*
X103171000Y-116652000D01*
X94139000Y-109982000D02*
X94139000Y-106949000D01*
X94139000Y-106949000D02*
X94789000Y-106299000D01*
X98139000Y-109982000D02*
X101759000Y-109982000D01*
X98139000Y-109982000D02*
X98139000Y-106949000D01*
X98139000Y-106949000D02*
X97489000Y-106299000D01*
X97704000Y-100797000D02*
X97704000Y-106084000D01*
X97704000Y-106084000D02*
X97489000Y-106299000D01*
X114173000Y-88392000D02*
X116308500Y-90527500D01*
D39*
X114300000Y-97028000D02*
X114300000Y-92536000D01*
X114300000Y-92536000D02*
X116308500Y-90527500D01*
D40*
X114173000Y-86455000D02*
X114173000Y-88392000D01*
D39*
X114300000Y-108109000D02*
X114300000Y-97028000D01*
X116308500Y-90527500D02*
X125937000Y-80899000D01*
X111506000Y-108109000D02*
X114300000Y-108109000D01*
X111665000Y-107950000D02*
X111506000Y-108109000D01*
D40*
X125980000Y-78239000D02*
X125980000Y-80856000D01*
X125980000Y-80856000D02*
X125937000Y-80899000D01*
D39*
X105871000Y-118552000D02*
X108048000Y-118552000D01*
X108048000Y-118552000D02*
X108077000Y-118523000D01*
D38*
X160401000Y-98933000D02*
X160467000Y-98867000D01*
X160467000Y-98867000D02*
X160467000Y-98853000D01*
X110998000Y-116745000D02*
X111919000Y-116745000D01*
X144805000Y-131445000D02*
X145250000Y-131000000D01*
X114173000Y-131445000D02*
X144805000Y-131445000D01*
X113157000Y-130429000D02*
X114173000Y-131445000D01*
X113157000Y-117983000D02*
X113157000Y-130429000D01*
X111919000Y-116745000D02*
X113157000Y-117983000D01*
X110998000Y-116745000D02*
X117983000Y-116745000D01*
X117983000Y-116745000D02*
X122936000Y-121698000D01*
X122936000Y-121698000D02*
X127192000Y-121698000D01*
X127192000Y-121698000D02*
X127510000Y-121380000D01*
D39*
X149100000Y-121500000D02*
X149100000Y-123145000D01*
X149100000Y-123145000D02*
X149300000Y-123345000D01*
X149205000Y-123250000D02*
X145250000Y-123250000D01*
X149205000Y-123250000D02*
X149300000Y-123345000D01*
D38*
X145250000Y-131000000D02*
X145250000Y-131000000D01*
D39*
X111506000Y-112109000D02*
X110649000Y-112109000D01*
X110649000Y-112109000D02*
X106106000Y-116652000D01*
X106106000Y-116652000D02*
X105871000Y-116652000D01*
X105871000Y-116652000D02*
X110905000Y-116652000D01*
X110905000Y-116652000D02*
X110998000Y-116745000D01*
X162020000Y-98506000D02*
X162367000Y-98853000D01*
D40*
X159893000Y-88646000D02*
X162973000Y-88646000D01*
X162973000Y-88646000D02*
X163862000Y-87630000D01*
X159710000Y-87462000D02*
X159710000Y-88463000D01*
X159710000Y-88463000D02*
X159893000Y-88646000D01*
D39*
X162020000Y-96266000D02*
X162020000Y-89599000D01*
X162020000Y-89599000D02*
X163862000Y-87630000D01*
X162020000Y-96266000D02*
X162020000Y-98506000D01*
D40*
X158410000Y-91862000D02*
X158410000Y-93340000D01*
X158410000Y-93340000D02*
X157750000Y-94000000D01*
X159060000Y-91862000D02*
X158410000Y-91862000D01*
X158410000Y-91862000D02*
X158369000Y-91903000D01*
X157750000Y-94000000D02*
X148750000Y-94000000D01*
X148750000Y-94000000D02*
X146000000Y-96750000D01*
X146000000Y-96750000D02*
X146000000Y-109750000D01*
X145000000Y-110750000D02*
X145000000Y-120250000D01*
X146000000Y-109750000D02*
X145000000Y-110750000D01*
D39*
X149300000Y-127155000D02*
X146655000Y-127155000D01*
X146500000Y-121500000D02*
X146650000Y-121500000D01*
X146655000Y-127155000D02*
X146500000Y-127000000D01*
X146650000Y-121500000D02*
X142870000Y-121500000D01*
X142870000Y-121500000D02*
X142750000Y-121380000D01*
D40*
X142750000Y-121380000D02*
X143870000Y-121380000D01*
X143870000Y-121380000D02*
X145000000Y-120250000D01*
X160467000Y-101553000D02*
X159083000Y-101553000D01*
X156750000Y-103886000D02*
X156750000Y-106299000D01*
X159083000Y-101553000D02*
X156750000Y-103886000D01*
X160750000Y-103886000D02*
X160750000Y-106299000D01*
X161417000Y-101553000D02*
X161417000Y-103219000D01*
X161417000Y-103219000D02*
X160750000Y-103886000D01*
X164465000Y-130016000D02*
X164465000Y-131572000D01*
X170942000Y-127984000D02*
X170942000Y-131572000D01*
D39*
X201771000Y-122448000D02*
X202331000Y-122448000D01*
X202331000Y-122448000D02*
X203708000Y-123825000D01*
X197993000Y-131572000D02*
X170942000Y-131572000D01*
X203708000Y-125857000D02*
X197993000Y-131572000D01*
X203708000Y-123825000D02*
X203708000Y-125857000D01*
X170942000Y-131572000D02*
X164465000Y-131572000D01*
X164465000Y-131572000D02*
X160274000Y-131572000D01*
X160274000Y-131572000D02*
X157861000Y-129159000D01*
X157861000Y-129159000D02*
X157861000Y-126572000D01*
D40*
X170466000Y-127254000D02*
X170942000Y-127730000D01*
X170942000Y-127730000D02*
X170339000Y-127730000D01*
X154700000Y-127155000D02*
X157278000Y-127155000D01*
D39*
X157861000Y-123872000D02*
X157941000Y-123872000D01*
X157941000Y-123872000D02*
X161544000Y-120269000D01*
X197612000Y-120269000D02*
X199771000Y-122448000D01*
X161544000Y-120269000D02*
X197612000Y-120269000D01*
D40*
X154700000Y-123345000D02*
X157334000Y-123345000D01*
X157334000Y-123345000D02*
X157861000Y-123872000D01*
X175673000Y-123444000D02*
X171482000Y-123444000D01*
X171482000Y-123444000D02*
X170942000Y-123984000D01*
X154700000Y-124615000D02*
X156182000Y-124615000D01*
X160115000Y-123984000D02*
X170942000Y-123984000D01*
X159512000Y-124587000D02*
X160115000Y-123984000D01*
X156182000Y-124615000D02*
X156210000Y-124587000D01*
X175673000Y-125857000D02*
X164624000Y-125857000D01*
X164624000Y-125857000D02*
X164465000Y-126016000D01*
X154700000Y-125885000D02*
X156182000Y-125885000D01*
X159671000Y-126016000D02*
X164465000Y-126016000D01*
X159512000Y-125857000D02*
X159671000Y-126016000D01*
X156182000Y-125885000D02*
X156210000Y-125857000D01*
D41*
X141986000Y-67437000D02*
X133858000Y-67437000D01*
D42*
X155829000Y-56007000D02*
X155829000Y-57023000D01*
X155829000Y-57023000D02*
X145415000Y-67437000D01*
D40*
X130810000Y-67437000D02*
X127839002Y-67437000D01*
X125980000Y-69296002D02*
X125980000Y-75939000D01*
X127839002Y-67437000D02*
X125980000Y-69296002D01*
D42*
X145415000Y-67437000D02*
X141986000Y-67437000D01*
D41*
X176022000Y-62484000D02*
X192151000Y-62484000D01*
X192151000Y-62484000D02*
X196977000Y-67310000D01*
D42*
X160529000Y-56007000D02*
X164846000Y-56007000D01*
X164846000Y-56007000D02*
X171323000Y-62484000D01*
X171323000Y-62484000D02*
X176022000Y-62484000D01*
D40*
X149300000Y-125885000D02*
X146403000Y-125885000D01*
X146403000Y-125885000D02*
X143288000Y-129000000D01*
X143288000Y-129000000D02*
X142750000Y-129000000D01*
X149300000Y-124615000D02*
X146276000Y-124615000D01*
X144431000Y-126460000D02*
X142750000Y-126460000D01*
X146276000Y-124615000D02*
X144431000Y-126460000D01*
X143445000Y-124615000D02*
X142750000Y-123920000D01*
X146750000Y-118500000D02*
X146750000Y-118750000D01*
X125310000Y-101060000D02*
X127510000Y-101060000D01*
X124250000Y-100000000D02*
X125310000Y-101060000D01*
X131250000Y-85500000D02*
X131250000Y-86500000D01*
X131250000Y-86500000D02*
X129750000Y-88000000D01*
X129750000Y-88000000D02*
X125500000Y-88000000D01*
X125500000Y-88000000D02*
X124250000Y-89250000D01*
X124250000Y-89250000D02*
X124250000Y-100000000D01*
X128500000Y-85500000D02*
X128500000Y-86250000D01*
X128500000Y-86250000D02*
X127500000Y-87250000D01*
X127500000Y-87250000D02*
X125250000Y-87250000D01*
X125250000Y-87250000D02*
X123500000Y-89000000D01*
X123500000Y-89000000D02*
X123500000Y-106750000D01*
X123500000Y-106750000D02*
X125430000Y-108680000D01*
X125430000Y-108680000D02*
X127510000Y-108680000D01*
X199771000Y-124948000D02*
X182860000Y-124948000D01*
X181356000Y-123444000D02*
X179673000Y-123444000D01*
X182860000Y-124948000D02*
X181356000Y-123444000D01*
X201771000Y-124948000D02*
X201771000Y-125254000D01*
X201771000Y-125254000D02*
X200533000Y-126492000D01*
X183515000Y-125857000D02*
X179673000Y-125857000D01*
X184150000Y-126492000D02*
X183515000Y-125857000D01*
X200533000Y-126492000D02*
X184150000Y-126492000D01*
D39*
X201771000Y-124948000D02*
X201771000Y-125508000D01*
D40*
X159639000Y-86106000D02*
X159639000Y-85630000D01*
X159060000Y-86685000D02*
X159639000Y-86106000D01*
X159060000Y-87462000D02*
X159060000Y-86685000D01*
X158496000Y-86106000D02*
X158496000Y-85693000D01*
X159060000Y-86670000D02*
X158496000Y-86106000D01*
X159060000Y-87462000D02*
X159060000Y-86670000D01*
X159639000Y-85630000D02*
X159099000Y-85090000D01*
X158496000Y-85693000D02*
X159099000Y-85090000D01*
D42*
X155686000Y-69937000D02*
X155686000Y-76946000D01*
X155686000Y-76946000D02*
X159099000Y-80359000D01*
X159099000Y-80359000D02*
X159099000Y-85090000D01*
X162322000Y-59984000D02*
X163997000Y-59984000D01*
X163997000Y-59984000D02*
X166497000Y-62484000D01*
X166497000Y-62484000D02*
X166497000Y-77692000D01*
X166497000Y-77692000D02*
X159099000Y-85090000D01*
D40*
X159060000Y-87462000D02*
X159060000Y-85129000D01*
X159060000Y-85129000D02*
X159099000Y-85090000D01*
X93304000Y-100147000D02*
X92004000Y-100147000D01*
X92004000Y-100147000D02*
X91059000Y-101092000D01*
X91059000Y-101092000D02*
X91059000Y-101886000D01*
X98750000Y-100147000D02*
X97704000Y-100147000D01*
X100838000Y-102235000D02*
X98750000Y-100147000D01*
X101759000Y-102235000D02*
X100838000Y-102235000D01*
X116745000Y-82296000D02*
X114332000Y-82296000D01*
X114332000Y-82296000D02*
X114173000Y-82455000D01*
X128500000Y-81500000D02*
X128500000Y-79250000D01*
X128500000Y-78250000D02*
X128500000Y-79250000D01*
X123750000Y-77000000D02*
X124980000Y-78230000D01*
X124980000Y-78239000D02*
X124980000Y-78230000D01*
X124980000Y-78239000D02*
X124980000Y-77980000D01*
X120745000Y-78613000D02*
X120745000Y-82296000D01*
X124980000Y-78239000D02*
X121119000Y-78239000D01*
X121119000Y-78239000D02*
X120745000Y-78613000D01*
X121500000Y-78239000D02*
X121126000Y-78613000D01*
X124980000Y-75939000D02*
X123811000Y-75939000D01*
X131250000Y-78250000D02*
X131250000Y-81500000D01*
X123811000Y-75939000D02*
X123750000Y-76000000D01*
X149012000Y-94488000D02*
X146750000Y-96750000D01*
X146750000Y-96750000D02*
X146750000Y-114500000D01*
X160360000Y-93767000D02*
X160360000Y-91862000D01*
X159639000Y-94488000D02*
X150622000Y-94488000D01*
X160360000Y-93767000D02*
X159639000Y-94488000D01*
X150622000Y-94488000D02*
X149012000Y-94488000D01*
D43*
G36*
X205998000Y-61576026D02*
X205906560Y-61354724D01*
X202947852Y-58390848D01*
X199080136Y-56784831D01*
X194892237Y-56781177D01*
X191804509Y-58057000D01*
X183817161Y-58057000D01*
X183817161Y-56884000D01*
X183752522Y-56540474D01*
X183549499Y-56224967D01*
X183239721Y-56013304D01*
X182872000Y-55938839D01*
X169172000Y-55938839D01*
X168828474Y-56003478D01*
X168512967Y-56206501D01*
X168301304Y-56516279D01*
X168264115Y-56699925D01*
X166775190Y-55211000D01*
X169295651Y-55211000D01*
X169616515Y-55343907D01*
X169656608Y-55384000D01*
X169616515Y-55424093D01*
X169295651Y-55557000D01*
X169829608Y-55557000D01*
X169862094Y-55589486D01*
X169995000Y-55910350D01*
X169995000Y-55557000D01*
X183249000Y-55557000D01*
X183249000Y-55910350D01*
X183381906Y-55589486D01*
X183414392Y-55557000D01*
X183948349Y-55557000D01*
X183627485Y-55424093D01*
X183587392Y-55384000D01*
X183627485Y-55343907D01*
X183948349Y-55211000D01*
X183414392Y-55211000D01*
X183381906Y-55178514D01*
X183249000Y-54857650D01*
X183249000Y-55211000D01*
X169995000Y-55211000D01*
X169995000Y-54857650D01*
X169862094Y-55178514D01*
X169829608Y-55211000D01*
X169295651Y-55211000D01*
X166775190Y-55211000D01*
X166208595Y-54644405D01*
X165583431Y-54226684D01*
X164846000Y-54080000D01*
X163210672Y-54080000D01*
X163146721Y-54036304D01*
X162779000Y-53961839D01*
X159279000Y-53961839D01*
X158935474Y-54026478D01*
X158619967Y-54229501D01*
X158408304Y-54539279D01*
X158333839Y-54907000D01*
X158333839Y-57107000D01*
X158398478Y-57450526D01*
X158601501Y-57766033D01*
X158662254Y-57807544D01*
X158451304Y-58116279D01*
X158376839Y-58484000D01*
X158376839Y-61484000D01*
X158441478Y-61827526D01*
X158644501Y-62143033D01*
X158954279Y-62354696D01*
X159322000Y-62429161D01*
X163716971Y-62429161D01*
X163771810Y-62484000D01*
X153093190Y-62484000D01*
X157191595Y-58385595D01*
X157484018Y-57947953D01*
X157738033Y-57784499D01*
X157949696Y-57474721D01*
X158024161Y-57107000D01*
X158024161Y-54907000D01*
X157959522Y-54563474D01*
X157756499Y-54247967D01*
X157446721Y-54036304D01*
X157079000Y-53961839D01*
X153579000Y-53961839D01*
X153235474Y-54026478D01*
X152919967Y-54229501D01*
X152708304Y-54539279D01*
X152633839Y-54907000D01*
X152633839Y-57107000D01*
X152694963Y-57431847D01*
X149167783Y-60959027D01*
X148836000Y-60891839D01*
X135136000Y-60891839D01*
X134792474Y-60956478D01*
X134476967Y-61159501D01*
X134265304Y-61469279D01*
X134190839Y-61837000D01*
X134190839Y-63010000D01*
X133858000Y-63010000D01*
X132163860Y-63346985D01*
X132096731Y-63391839D01*
X128810000Y-63391839D01*
X128466474Y-63456478D01*
X128150967Y-63659501D01*
X128086398Y-63754000D01*
X123317000Y-63754000D01*
X123270841Y-63762685D01*
X123228447Y-63789965D01*
X123200006Y-63831590D01*
X123190000Y-63881000D01*
X123190000Y-70993000D01*
X118618000Y-70993000D01*
X118568590Y-71003006D01*
X118526965Y-71031447D01*
X118499685Y-71073841D01*
X118491000Y-71120000D01*
X118491000Y-72972394D01*
X115136394Y-76327000D01*
X114173000Y-76327000D01*
X114123590Y-76337006D01*
X114083197Y-76364197D01*
X108622197Y-81825197D01*
X108594334Y-81867211D01*
X108585000Y-81915000D01*
X108585000Y-86910889D01*
X108469005Y-86910788D01*
X108017869Y-87097194D01*
X107672407Y-87442053D01*
X107485214Y-87892864D01*
X107484788Y-88380995D01*
X107671194Y-88832131D01*
X108016053Y-89177593D01*
X108466864Y-89364786D01*
X108585000Y-89364889D01*
X108585000Y-95885000D01*
X106533000Y-95885000D01*
X106533000Y-95186750D01*
X106374250Y-95028000D01*
X104775000Y-95028000D01*
X104775000Y-95048000D01*
X104521000Y-95048000D01*
X104521000Y-95028000D01*
X102921750Y-95028000D01*
X102899000Y-95050750D01*
X102876250Y-95028000D01*
X101727000Y-95028000D01*
X101727000Y-95048000D01*
X101473000Y-95048000D01*
X101473000Y-95028000D01*
X100323750Y-95028000D01*
X100165000Y-95186750D01*
X100165000Y-95885000D01*
X99217000Y-95885000D01*
X99217000Y-93774691D01*
X100165000Y-93774691D01*
X100165000Y-94615250D01*
X100323750Y-94774000D01*
X101473000Y-94774000D01*
X101473000Y-93424750D01*
X101727000Y-93424750D01*
X101727000Y-94774000D01*
X102876250Y-94774000D01*
X102899000Y-94751250D01*
X102921750Y-94774000D01*
X104521000Y-94774000D01*
X104521000Y-93424750D01*
X104775000Y-93424750D01*
X104775000Y-94774000D01*
X106374250Y-94774000D01*
X106533000Y-94615250D01*
X106533000Y-93774691D01*
X106436327Y-93541302D01*
X106257699Y-93362673D01*
X106024310Y-93266000D01*
X104933750Y-93266000D01*
X104775000Y-93424750D01*
X104521000Y-93424750D01*
X104362250Y-93266000D01*
X103271690Y-93266000D01*
X103038301Y-93362673D01*
X102899000Y-93501975D01*
X102759699Y-93362673D01*
X102526310Y-93266000D01*
X101885750Y-93266000D01*
X101727000Y-93424750D01*
X101473000Y-93424750D01*
X101314250Y-93266000D01*
X100673690Y-93266000D01*
X100440301Y-93362673D01*
X100261673Y-93541302D01*
X100165000Y-93774691D01*
X99217000Y-93774691D01*
X99217000Y-82042000D01*
X99108376Y-81495911D01*
X99081040Y-81455000D01*
X98799042Y-81032959D01*
X94179795Y-76413712D01*
X94601276Y-76239560D01*
X97565152Y-73280852D01*
X99171169Y-69413136D01*
X99171956Y-68510550D01*
X102783022Y-68510550D01*
X103819444Y-71319895D01*
X104154228Y-71820936D01*
X104782009Y-72890991D01*
X105852064Y-73518772D01*
X108571432Y-74772417D01*
X111563550Y-74889978D01*
X114372895Y-73853556D01*
X114873936Y-73518772D01*
X115943991Y-72890991D01*
X116571772Y-71820936D01*
X117566132Y-69664000D01*
X119383650Y-69664000D01*
X119704514Y-69796906D01*
X119950093Y-70042485D01*
X120083000Y-70363349D01*
X120083000Y-69664000D01*
X119383650Y-69664000D01*
X117566132Y-69664000D01*
X117825417Y-69101568D01*
X117890818Y-67437000D01*
X119864750Y-67437000D01*
X120083000Y-67655250D01*
X120083000Y-69664000D01*
X120991750Y-69664000D01*
X121210000Y-69882250D01*
X121428250Y-69664000D01*
X122337000Y-69664000D01*
X122337000Y-70363349D01*
X122469907Y-70042485D01*
X122715486Y-69796906D01*
X123036350Y-69664000D01*
X122337000Y-69664000D01*
X122337000Y-67655250D01*
X122555250Y-67437000D01*
X122337000Y-67218750D01*
X122337000Y-65210000D01*
X123036350Y-65210000D01*
X122715486Y-65077094D01*
X122469907Y-64831515D01*
X122337000Y-64510651D01*
X122337000Y-65210000D01*
X121428250Y-65210000D01*
X121210000Y-64991750D01*
X120991750Y-65210000D01*
X120083000Y-65210000D01*
X120083000Y-67218750D01*
X119864750Y-67437000D01*
X117890818Y-67437000D01*
X117942978Y-66109450D01*
X117611154Y-65210000D01*
X119383650Y-65210000D01*
X120083000Y-65210000D01*
X120083000Y-64510651D01*
X119950093Y-64831515D01*
X119704514Y-65077094D01*
X119383650Y-65210000D01*
X117611154Y-65210000D01*
X116906556Y-63300105D01*
X116571772Y-62799064D01*
X115943991Y-61729009D01*
X114873936Y-61101228D01*
X112840930Y-60164000D01*
X134059651Y-60164000D01*
X134380515Y-60296907D01*
X134420608Y-60337000D01*
X134380515Y-60377093D01*
X134059651Y-60510000D01*
X134593608Y-60510000D01*
X134626094Y-60542486D01*
X134759000Y-60863350D01*
X134759000Y-60510000D01*
X148013000Y-60510000D01*
X148013000Y-60863350D01*
X148145906Y-60542486D01*
X148178392Y-60510000D01*
X148712349Y-60510000D01*
X148391485Y-60377093D01*
X148351392Y-60337000D01*
X148391485Y-60296907D01*
X148712349Y-60164000D01*
X148178392Y-60164000D01*
X148145906Y-60131514D01*
X148013000Y-59810650D01*
X148013000Y-60164000D01*
X134759000Y-60164000D01*
X134759000Y-59810650D01*
X134626094Y-60131514D01*
X134593608Y-60164000D01*
X134059651Y-60164000D01*
X112840930Y-60164000D01*
X112154568Y-59847583D01*
X109162450Y-59730022D01*
X106353105Y-60766444D01*
X105852064Y-61101228D01*
X104782009Y-61729009D01*
X104154228Y-62799064D01*
X102900583Y-65518432D01*
X102783022Y-68510550D01*
X99171956Y-68510550D01*
X99174823Y-65225237D01*
X97575560Y-61354724D01*
X94616852Y-58390848D01*
X90749136Y-56784831D01*
X86561237Y-56781177D01*
X82690724Y-58380440D01*
X79726848Y-61339148D01*
X79002000Y-63084775D01*
X79002000Y-49002000D01*
X205998000Y-49002000D01*
X205998000Y-61576026D01*
X205998000Y-61576026D01*
G37*
X205998000Y-61576026D02*
X205906560Y-61354724D01*
X202947852Y-58390848D01*
X199080136Y-56784831D01*
X194892237Y-56781177D01*
X191804509Y-58057000D01*
X183817161Y-58057000D01*
X183817161Y-56884000D01*
X183752522Y-56540474D01*
X183549499Y-56224967D01*
X183239721Y-56013304D01*
X182872000Y-55938839D01*
X169172000Y-55938839D01*
X168828474Y-56003478D01*
X168512967Y-56206501D01*
X168301304Y-56516279D01*
X168264115Y-56699925D01*
X166775190Y-55211000D01*
X169295651Y-55211000D01*
X169616515Y-55343907D01*
X169656608Y-55384000D01*
X169616515Y-55424093D01*
X169295651Y-55557000D01*
X169829608Y-55557000D01*
X169862094Y-55589486D01*
X169995000Y-55910350D01*
X169995000Y-55557000D01*
X183249000Y-55557000D01*
X183249000Y-55910350D01*
X183381906Y-55589486D01*
X183414392Y-55557000D01*
X183948349Y-55557000D01*
X183627485Y-55424093D01*
X183587392Y-55384000D01*
X183627485Y-55343907D01*
X183948349Y-55211000D01*
X183414392Y-55211000D01*
X183381906Y-55178514D01*
X183249000Y-54857650D01*
X183249000Y-55211000D01*
X169995000Y-55211000D01*
X169995000Y-54857650D01*
X169862094Y-55178514D01*
X169829608Y-55211000D01*
X169295651Y-55211000D01*
X166775190Y-55211000D01*
X166208595Y-54644405D01*
X165583431Y-54226684D01*
X164846000Y-54080000D01*
X163210672Y-54080000D01*
X163146721Y-54036304D01*
X162779000Y-53961839D01*
X159279000Y-53961839D01*
X158935474Y-54026478D01*
X158619967Y-54229501D01*
X158408304Y-54539279D01*
X158333839Y-54907000D01*
X158333839Y-57107000D01*
X158398478Y-57450526D01*
X158601501Y-57766033D01*
X158662254Y-57807544D01*
X158451304Y-58116279D01*
X158376839Y-58484000D01*
X158376839Y-61484000D01*
X158441478Y-61827526D01*
X158644501Y-62143033D01*
X158954279Y-62354696D01*
X159322000Y-62429161D01*
X163716971Y-62429161D01*
X163771810Y-62484000D01*
X153093190Y-62484000D01*
X157191595Y-58385595D01*
X157484018Y-57947953D01*
X157738033Y-57784499D01*
X157949696Y-57474721D01*
X158024161Y-57107000D01*
X158024161Y-54907000D01*
X157959522Y-54563474D01*
X157756499Y-54247967D01*
X157446721Y-54036304D01*
X157079000Y-53961839D01*
X153579000Y-53961839D01*
X153235474Y-54026478D01*
X152919967Y-54229501D01*
X152708304Y-54539279D01*
X152633839Y-54907000D01*
X152633839Y-57107000D01*
X152694963Y-57431847D01*
X149167783Y-60959027D01*
X148836000Y-60891839D01*
X135136000Y-60891839D01*
X134792474Y-60956478D01*
X134476967Y-61159501D01*
X134265304Y-61469279D01*
X134190839Y-61837000D01*
X134190839Y-63010000D01*
X133858000Y-63010000D01*
X132163860Y-63346985D01*
X132096731Y-63391839D01*
X128810000Y-63391839D01*
X128466474Y-63456478D01*
X128150967Y-63659501D01*
X128086398Y-63754000D01*
X123317000Y-63754000D01*
X123270841Y-63762685D01*
X123228447Y-63789965D01*
X123200006Y-63831590D01*
X123190000Y-63881000D01*
X123190000Y-70993000D01*
X118618000Y-70993000D01*
X118568590Y-71003006D01*
X118526965Y-71031447D01*
X118499685Y-71073841D01*
X118491000Y-71120000D01*
X118491000Y-72972394D01*
X115136394Y-76327000D01*
X114173000Y-76327000D01*
X114123590Y-76337006D01*
X114083197Y-76364197D01*
X108622197Y-81825197D01*
X108594334Y-81867211D01*
X108585000Y-81915000D01*
X108585000Y-86910889D01*
X108469005Y-86910788D01*
X108017869Y-87097194D01*
X107672407Y-87442053D01*
X107485214Y-87892864D01*
X107484788Y-88380995D01*
X107671194Y-88832131D01*
X108016053Y-89177593D01*
X108466864Y-89364786D01*
X108585000Y-89364889D01*
X108585000Y-95885000D01*
X106533000Y-95885000D01*
X106533000Y-95186750D01*
X106374250Y-95028000D01*
X104775000Y-95028000D01*
X104775000Y-95048000D01*
X104521000Y-95048000D01*
X104521000Y-95028000D01*
X102921750Y-95028000D01*
X102899000Y-95050750D01*
X102876250Y-95028000D01*
X101727000Y-95028000D01*
X101727000Y-95048000D01*
X101473000Y-95048000D01*
X101473000Y-95028000D01*
X100323750Y-95028000D01*
X100165000Y-95186750D01*
X100165000Y-95885000D01*
X99217000Y-95885000D01*
X99217000Y-93774691D01*
X100165000Y-93774691D01*
X100165000Y-94615250D01*
X100323750Y-94774000D01*
X101473000Y-94774000D01*
X101473000Y-93424750D01*
X101727000Y-93424750D01*
X101727000Y-94774000D01*
X102876250Y-94774000D01*
X102899000Y-94751250D01*
X102921750Y-94774000D01*
X104521000Y-94774000D01*
X104521000Y-93424750D01*
X104775000Y-93424750D01*
X104775000Y-94774000D01*
X106374250Y-94774000D01*
X106533000Y-94615250D01*
X106533000Y-93774691D01*
X106436327Y-93541302D01*
X106257699Y-93362673D01*
X106024310Y-93266000D01*
X104933750Y-93266000D01*
X104775000Y-93424750D01*
X104521000Y-93424750D01*
X104362250Y-93266000D01*
X103271690Y-93266000D01*
X103038301Y-93362673D01*
X102899000Y-93501975D01*
X102759699Y-93362673D01*
X102526310Y-93266000D01*
X101885750Y-93266000D01*
X101727000Y-93424750D01*
X101473000Y-93424750D01*
X101314250Y-93266000D01*
X100673690Y-93266000D01*
X100440301Y-93362673D01*
X100261673Y-93541302D01*
X100165000Y-93774691D01*
X99217000Y-93774691D01*
X99217000Y-82042000D01*
X99108376Y-81495911D01*
X99081040Y-81455000D01*
X98799042Y-81032959D01*
X94179795Y-76413712D01*
X94601276Y-76239560D01*
X97565152Y-73280852D01*
X99171169Y-69413136D01*
X99171956Y-68510550D01*
X102783022Y-68510550D01*
X103819444Y-71319895D01*
X104154228Y-71820936D01*
X104782009Y-72890991D01*
X105852064Y-73518772D01*
X108571432Y-74772417D01*
X111563550Y-74889978D01*
X114372895Y-73853556D01*
X114873936Y-73518772D01*
X115943991Y-72890991D01*
X116571772Y-71820936D01*
X117566132Y-69664000D01*
X119383650Y-69664000D01*
X119704514Y-69796906D01*
X119950093Y-70042485D01*
X120083000Y-70363349D01*
X120083000Y-69664000D01*
X119383650Y-69664000D01*
X117566132Y-69664000D01*
X117825417Y-69101568D01*
X117890818Y-67437000D01*
X119864750Y-67437000D01*
X120083000Y-67655250D01*
X120083000Y-69664000D01*
X120991750Y-69664000D01*
X121210000Y-69882250D01*
X121428250Y-69664000D01*
X122337000Y-69664000D01*
X122337000Y-70363349D01*
X122469907Y-70042485D01*
X122715486Y-69796906D01*
X123036350Y-69664000D01*
X122337000Y-69664000D01*
X122337000Y-67655250D01*
X122555250Y-67437000D01*
X122337000Y-67218750D01*
X122337000Y-65210000D01*
X123036350Y-65210000D01*
X122715486Y-65077094D01*
X122469907Y-64831515D01*
X122337000Y-64510651D01*
X122337000Y-65210000D01*
X121428250Y-65210000D01*
X121210000Y-64991750D01*
X120991750Y-65210000D01*
X120083000Y-65210000D01*
X120083000Y-67218750D01*
X119864750Y-67437000D01*
X117890818Y-67437000D01*
X117942978Y-66109450D01*
X117611154Y-65210000D01*
X119383650Y-65210000D01*
X120083000Y-65210000D01*
X120083000Y-64510651D01*
X119950093Y-64831515D01*
X119704514Y-65077094D01*
X119383650Y-65210000D01*
X117611154Y-65210000D01*
X116906556Y-63300105D01*
X116571772Y-62799064D01*
X115943991Y-61729009D01*
X114873936Y-61101228D01*
X112840930Y-60164000D01*
X134059651Y-60164000D01*
X134380515Y-60296907D01*
X134420608Y-60337000D01*
X134380515Y-60377093D01*
X134059651Y-60510000D01*
X134593608Y-60510000D01*
X134626094Y-60542486D01*
X134759000Y-60863350D01*
X134759000Y-60510000D01*
X148013000Y-60510000D01*
X148013000Y-60863350D01*
X148145906Y-60542486D01*
X148178392Y-60510000D01*
X148712349Y-60510000D01*
X148391485Y-60377093D01*
X148351392Y-60337000D01*
X148391485Y-60296907D01*
X148712349Y-60164000D01*
X148178392Y-60164000D01*
X148145906Y-60131514D01*
X148013000Y-59810650D01*
X148013000Y-60164000D01*
X134759000Y-60164000D01*
X134759000Y-59810650D01*
X134626094Y-60131514D01*
X134593608Y-60164000D01*
X134059651Y-60164000D01*
X112840930Y-60164000D01*
X112154568Y-59847583D01*
X109162450Y-59730022D01*
X106353105Y-60766444D01*
X105852064Y-61101228D01*
X104782009Y-61729009D01*
X104154228Y-62799064D01*
X102900583Y-65518432D01*
X102783022Y-68510550D01*
X99171956Y-68510550D01*
X99174823Y-65225237D01*
X97575560Y-61354724D01*
X94616852Y-58390848D01*
X90749136Y-56784831D01*
X86561237Y-56781177D01*
X82690724Y-58380440D01*
X79726848Y-61339148D01*
X79002000Y-63084775D01*
X79002000Y-49002000D01*
X205998000Y-49002000D01*
X205998000Y-61576026D01*
G36*
X152781000Y-63238678D02*
X152740839Y-63437000D01*
X152740839Y-66437000D01*
X152781000Y-66650437D01*
X152781000Y-67310000D01*
X152791006Y-67359410D01*
X152819447Y-67401035D01*
X152861841Y-67428315D01*
X152908000Y-67437000D01*
X164570000Y-67437000D01*
X164570000Y-76893810D01*
X161026000Y-80437810D01*
X161026000Y-80359000D01*
X160879316Y-79621569D01*
X160461595Y-78996405D01*
X157613000Y-76147810D01*
X157613000Y-72382161D01*
X158686000Y-72382161D01*
X159029526Y-72317522D01*
X159345033Y-72114499D01*
X159556696Y-71804721D01*
X159631161Y-71437000D01*
X159631161Y-68437000D01*
X159566522Y-68093474D01*
X159363499Y-67777967D01*
X159053721Y-67566304D01*
X158686000Y-67491839D01*
X153686000Y-67491839D01*
X153342474Y-67556478D01*
X153026967Y-67759501D01*
X152815304Y-68069279D01*
X152740839Y-68437000D01*
X152740839Y-71437000D01*
X152805478Y-71780526D01*
X153008501Y-72096033D01*
X153318279Y-72307696D01*
X153686000Y-72382161D01*
X153759000Y-72382161D01*
X153759000Y-76946000D01*
X153905684Y-77683431D01*
X154323405Y-78308595D01*
X157172000Y-81157190D01*
X157172000Y-84150318D01*
X157153839Y-84240000D01*
X157153839Y-85940000D01*
X157218478Y-86283526D01*
X157304575Y-86417324D01*
X157239839Y-86737000D01*
X157239839Y-88187000D01*
X157304478Y-88530526D01*
X157507501Y-88846033D01*
X157817279Y-89057696D01*
X158185000Y-89132161D01*
X158635000Y-89132161D01*
X158738671Y-89112654D01*
X158835000Y-89132161D01*
X158916201Y-89132161D01*
X158966124Y-89206876D01*
X159149124Y-89389876D01*
X159490417Y-89617921D01*
X159893000Y-89698000D01*
X160843000Y-89698000D01*
X160843000Y-90244085D01*
X160585000Y-90191839D01*
X160135000Y-90191839D01*
X159791474Y-90256478D01*
X159712611Y-90307225D01*
X159652721Y-90266304D01*
X159285000Y-90191839D01*
X158835000Y-90191839D01*
X158731329Y-90211346D01*
X158635000Y-90191839D01*
X158185000Y-90191839D01*
X157841474Y-90256478D01*
X157525967Y-90459501D01*
X157314304Y-90769279D01*
X157239839Y-91137000D01*
X157239839Y-92456000D01*
X156897606Y-92456000D01*
X149817356Y-85375750D01*
X153464000Y-85375750D01*
X153464000Y-86066310D01*
X153560673Y-86299699D01*
X153739302Y-86478327D01*
X153972691Y-86575000D01*
X154813250Y-86575000D01*
X154972000Y-86416250D01*
X154972000Y-85217000D01*
X155226000Y-85217000D01*
X155226000Y-86416250D01*
X155384750Y-86575000D01*
X156225309Y-86575000D01*
X156458698Y-86478327D01*
X156637327Y-86299699D01*
X156734000Y-86066310D01*
X156734000Y-85375750D01*
X156575250Y-85217000D01*
X155226000Y-85217000D01*
X154972000Y-85217000D01*
X153622750Y-85217000D01*
X153464000Y-85375750D01*
X149817356Y-85375750D01*
X148555296Y-84113690D01*
X153464000Y-84113690D01*
X153464000Y-84804250D01*
X153622750Y-84963000D01*
X154972000Y-84963000D01*
X154972000Y-83763750D01*
X155226000Y-83763750D01*
X155226000Y-84963000D01*
X156575250Y-84963000D01*
X156734000Y-84804250D01*
X156734000Y-84113690D01*
X156637327Y-83880301D01*
X156458698Y-83701673D01*
X156225309Y-83605000D01*
X155384750Y-83605000D01*
X155226000Y-83763750D01*
X154972000Y-83763750D01*
X154813250Y-83605000D01*
X153972691Y-83605000D01*
X153739302Y-83701673D01*
X153560673Y-83880301D01*
X153464000Y-84113690D01*
X148555296Y-84113690D01*
X140678803Y-76237197D01*
X140636789Y-76209334D01*
X140589000Y-76200000D01*
X133223000Y-76200000D01*
X133223000Y-74364000D01*
X134059651Y-74364000D01*
X134380515Y-74496907D01*
X134420608Y-74537000D01*
X134380515Y-74577093D01*
X134059651Y-74710000D01*
X134593608Y-74710000D01*
X134626094Y-74742486D01*
X134759000Y-75063350D01*
X134759000Y-74710000D01*
X148013000Y-74710000D01*
X148013000Y-75063350D01*
X148145906Y-74742486D01*
X148178392Y-74710000D01*
X148712349Y-74710000D01*
X148391485Y-74577093D01*
X148351392Y-74537000D01*
X148391485Y-74496907D01*
X148712349Y-74364000D01*
X148178392Y-74364000D01*
X148145906Y-74331514D01*
X148013000Y-74010650D01*
X148013000Y-74364000D01*
X134759000Y-74364000D01*
X134759000Y-74010650D01*
X134626094Y-74331514D01*
X134593608Y-74364000D01*
X134059651Y-74364000D01*
X133223000Y-74364000D01*
X133223000Y-71737691D01*
X133858000Y-71864000D01*
X134190839Y-71864000D01*
X134190839Y-73037000D01*
X134255478Y-73380526D01*
X134458501Y-73696033D01*
X134768279Y-73907696D01*
X135136000Y-73982161D01*
X148836000Y-73982161D01*
X149179526Y-73917522D01*
X149495033Y-73714499D01*
X149706696Y-73404721D01*
X149781161Y-73037000D01*
X149781161Y-65796029D01*
X152781000Y-62796190D01*
X152781000Y-63238678D01*
X152781000Y-63238678D01*
G37*
X152781000Y-63238678D02*
X152740839Y-63437000D01*
X152740839Y-66437000D01*
X152781000Y-66650437D01*
X152781000Y-67310000D01*
X152791006Y-67359410D01*
X152819447Y-67401035D01*
X152861841Y-67428315D01*
X152908000Y-67437000D01*
X164570000Y-67437000D01*
X164570000Y-76893810D01*
X161026000Y-80437810D01*
X161026000Y-80359000D01*
X160879316Y-79621569D01*
X160461595Y-78996405D01*
X157613000Y-76147810D01*
X157613000Y-72382161D01*
X158686000Y-72382161D01*
X159029526Y-72317522D01*
X159345033Y-72114499D01*
X159556696Y-71804721D01*
X159631161Y-71437000D01*
X159631161Y-68437000D01*
X159566522Y-68093474D01*
X159363499Y-67777967D01*
X159053721Y-67566304D01*
X158686000Y-67491839D01*
X153686000Y-67491839D01*
X153342474Y-67556478D01*
X153026967Y-67759501D01*
X152815304Y-68069279D01*
X152740839Y-68437000D01*
X152740839Y-71437000D01*
X152805478Y-71780526D01*
X153008501Y-72096033D01*
X153318279Y-72307696D01*
X153686000Y-72382161D01*
X153759000Y-72382161D01*
X153759000Y-76946000D01*
X153905684Y-77683431D01*
X154323405Y-78308595D01*
X157172000Y-81157190D01*
X157172000Y-84150318D01*
X157153839Y-84240000D01*
X157153839Y-85940000D01*
X157218478Y-86283526D01*
X157304575Y-86417324D01*
X157239839Y-86737000D01*
X157239839Y-88187000D01*
X157304478Y-88530526D01*
X157507501Y-88846033D01*
X157817279Y-89057696D01*
X158185000Y-89132161D01*
X158635000Y-89132161D01*
X158738671Y-89112654D01*
X158835000Y-89132161D01*
X158916201Y-89132161D01*
X158966124Y-89206876D01*
X159149124Y-89389876D01*
X159490417Y-89617921D01*
X159893000Y-89698000D01*
X160843000Y-89698000D01*
X160843000Y-90244085D01*
X160585000Y-90191839D01*
X160135000Y-90191839D01*
X159791474Y-90256478D01*
X159712611Y-90307225D01*
X159652721Y-90266304D01*
X159285000Y-90191839D01*
X158835000Y-90191839D01*
X158731329Y-90211346D01*
X158635000Y-90191839D01*
X158185000Y-90191839D01*
X157841474Y-90256478D01*
X157525967Y-90459501D01*
X157314304Y-90769279D01*
X157239839Y-91137000D01*
X157239839Y-92456000D01*
X156897606Y-92456000D01*
X149817356Y-85375750D01*
X153464000Y-85375750D01*
X153464000Y-86066310D01*
X153560673Y-86299699D01*
X153739302Y-86478327D01*
X153972691Y-86575000D01*
X154813250Y-86575000D01*
X154972000Y-86416250D01*
X154972000Y-85217000D01*
X155226000Y-85217000D01*
X155226000Y-86416250D01*
X155384750Y-86575000D01*
X156225309Y-86575000D01*
X156458698Y-86478327D01*
X156637327Y-86299699D01*
X156734000Y-86066310D01*
X156734000Y-85375750D01*
X156575250Y-85217000D01*
X155226000Y-85217000D01*
X154972000Y-85217000D01*
X153622750Y-85217000D01*
X153464000Y-85375750D01*
X149817356Y-85375750D01*
X148555296Y-84113690D01*
X153464000Y-84113690D01*
X153464000Y-84804250D01*
X153622750Y-84963000D01*
X154972000Y-84963000D01*
X154972000Y-83763750D01*
X155226000Y-83763750D01*
X155226000Y-84963000D01*
X156575250Y-84963000D01*
X156734000Y-84804250D01*
X156734000Y-84113690D01*
X156637327Y-83880301D01*
X156458698Y-83701673D01*
X156225309Y-83605000D01*
X155384750Y-83605000D01*
X155226000Y-83763750D01*
X154972000Y-83763750D01*
X154813250Y-83605000D01*
X153972691Y-83605000D01*
X153739302Y-83701673D01*
X153560673Y-83880301D01*
X153464000Y-84113690D01*
X148555296Y-84113690D01*
X140678803Y-76237197D01*
X140636789Y-76209334D01*
X140589000Y-76200000D01*
X133223000Y-76200000D01*
X133223000Y-74364000D01*
X134059651Y-74364000D01*
X134380515Y-74496907D01*
X134420608Y-74537000D01*
X134380515Y-74577093D01*
X134059651Y-74710000D01*
X134593608Y-74710000D01*
X134626094Y-74742486D01*
X134759000Y-75063350D01*
X134759000Y-74710000D01*
X148013000Y-74710000D01*
X148013000Y-75063350D01*
X148145906Y-74742486D01*
X148178392Y-74710000D01*
X148712349Y-74710000D01*
X148391485Y-74577093D01*
X148351392Y-74537000D01*
X148391485Y-74496907D01*
X148712349Y-74364000D01*
X148178392Y-74364000D01*
X148145906Y-74331514D01*
X148013000Y-74010650D01*
X148013000Y-74364000D01*
X134759000Y-74364000D01*
X134759000Y-74010650D01*
X134626094Y-74331514D01*
X134593608Y-74364000D01*
X134059651Y-74364000D01*
X133223000Y-74364000D01*
X133223000Y-71737691D01*
X133858000Y-71864000D01*
X134190839Y-71864000D01*
X134190839Y-73037000D01*
X134255478Y-73380526D01*
X134458501Y-73696033D01*
X134768279Y-73907696D01*
X135136000Y-73982161D01*
X148836000Y-73982161D01*
X149179526Y-73917522D01*
X149495033Y-73714499D01*
X149706696Y-73404721D01*
X149781161Y-73037000D01*
X149781161Y-65796029D01*
X152781000Y-62796190D01*
X152781000Y-63238678D01*
G36*
X186448177Y-69394763D02*
X188047440Y-73265276D01*
X191006148Y-76229152D01*
X194873864Y-77835169D01*
X199061763Y-77838823D01*
X202932276Y-76239560D01*
X205896152Y-73280852D01*
X205998000Y-73035575D01*
X205998000Y-92456000D01*
X163197000Y-92456000D01*
X163197000Y-90063716D01*
X163841144Y-89375161D01*
X164862000Y-89375161D01*
X165205526Y-89310522D01*
X165521033Y-89107499D01*
X165732696Y-88797721D01*
X165807161Y-88430000D01*
X165807161Y-87915750D01*
X166227000Y-87915750D01*
X166227000Y-88556310D01*
X166323673Y-88789699D01*
X166502302Y-88968327D01*
X166735691Y-89065000D01*
X167576250Y-89065000D01*
X167735000Y-88906250D01*
X167735000Y-87757000D01*
X167989000Y-87757000D01*
X167989000Y-88906250D01*
X168147750Y-89065000D01*
X168988309Y-89065000D01*
X169221698Y-88968327D01*
X169400327Y-88789699D01*
X169497000Y-88556310D01*
X169497000Y-87915750D01*
X169338250Y-87757000D01*
X167989000Y-87757000D01*
X167735000Y-87757000D01*
X166385750Y-87757000D01*
X166227000Y-87915750D01*
X165807161Y-87915750D01*
X165807161Y-86830000D01*
X165783395Y-86703690D01*
X166227000Y-86703690D01*
X166227000Y-87344250D01*
X166385750Y-87503000D01*
X167735000Y-87503000D01*
X167735000Y-86353750D01*
X167989000Y-86353750D01*
X167989000Y-87503000D01*
X169338250Y-87503000D01*
X169497000Y-87344250D01*
X169497000Y-86703690D01*
X169400327Y-86470301D01*
X169221698Y-86291673D01*
X168988309Y-86195000D01*
X168147750Y-86195000D01*
X167989000Y-86353750D01*
X167735000Y-86353750D01*
X167576250Y-86195000D01*
X166735691Y-86195000D01*
X166502302Y-86291673D01*
X166323673Y-86470301D01*
X166227000Y-86703690D01*
X165783395Y-86703690D01*
X165742522Y-86486474D01*
X165539499Y-86170967D01*
X165229721Y-85959304D01*
X164862000Y-85884839D01*
X162862000Y-85884839D01*
X162518474Y-85949478D01*
X162202967Y-86152501D01*
X161991304Y-86462279D01*
X161916839Y-86830000D01*
X161916839Y-87594000D01*
X161530161Y-87594000D01*
X161530161Y-86737000D01*
X161465522Y-86393474D01*
X161262499Y-86077967D01*
X161044161Y-85928782D01*
X161044161Y-85870029D01*
X167859595Y-79054595D01*
X168277316Y-78429431D01*
X168424000Y-77692000D01*
X168424000Y-69411000D01*
X169295651Y-69411000D01*
X169616515Y-69543907D01*
X169656608Y-69584000D01*
X169616515Y-69624093D01*
X169295651Y-69757000D01*
X169829608Y-69757000D01*
X169862094Y-69789486D01*
X169995000Y-70110350D01*
X169995000Y-69757000D01*
X183249000Y-69757000D01*
X183249000Y-70110350D01*
X183381906Y-69789486D01*
X183414392Y-69757000D01*
X183948349Y-69757000D01*
X183627485Y-69624093D01*
X183587392Y-69584000D01*
X183627485Y-69543907D01*
X183948349Y-69411000D01*
X183414392Y-69411000D01*
X183381906Y-69378514D01*
X183249000Y-69057650D01*
X183249000Y-69411000D01*
X169995000Y-69411000D01*
X169995000Y-69057650D01*
X169862094Y-69378514D01*
X169829608Y-69411000D01*
X169295651Y-69411000D01*
X168424000Y-69411000D01*
X168424000Y-68633471D01*
X168494501Y-68743033D01*
X168804279Y-68954696D01*
X169172000Y-69029161D01*
X182872000Y-69029161D01*
X183215526Y-68964522D01*
X183531033Y-68761499D01*
X183742696Y-68451721D01*
X183817161Y-68084000D01*
X183817161Y-66911000D01*
X186450344Y-66911000D01*
X186448177Y-69394763D01*
X186448177Y-69394763D01*
G37*
X186448177Y-69394763D02*
X188047440Y-73265276D01*
X191006148Y-76229152D01*
X194873864Y-77835169D01*
X199061763Y-77838823D01*
X202932276Y-76239560D01*
X205896152Y-73280852D01*
X205998000Y-73035575D01*
X205998000Y-92456000D01*
X163197000Y-92456000D01*
X163197000Y-90063716D01*
X163841144Y-89375161D01*
X164862000Y-89375161D01*
X165205526Y-89310522D01*
X165521033Y-89107499D01*
X165732696Y-88797721D01*
X165807161Y-88430000D01*
X165807161Y-87915750D01*
X166227000Y-87915750D01*
X166227000Y-88556310D01*
X166323673Y-88789699D01*
X166502302Y-88968327D01*
X166735691Y-89065000D01*
X167576250Y-89065000D01*
X167735000Y-88906250D01*
X167735000Y-87757000D01*
X167989000Y-87757000D01*
X167989000Y-88906250D01*
X168147750Y-89065000D01*
X168988309Y-89065000D01*
X169221698Y-88968327D01*
X169400327Y-88789699D01*
X169497000Y-88556310D01*
X169497000Y-87915750D01*
X169338250Y-87757000D01*
X167989000Y-87757000D01*
X167735000Y-87757000D01*
X166385750Y-87757000D01*
X166227000Y-87915750D01*
X165807161Y-87915750D01*
X165807161Y-86830000D01*
X165783395Y-86703690D01*
X166227000Y-86703690D01*
X166227000Y-87344250D01*
X166385750Y-87503000D01*
X167735000Y-87503000D01*
X167735000Y-86353750D01*
X167989000Y-86353750D01*
X167989000Y-87503000D01*
X169338250Y-87503000D01*
X169497000Y-87344250D01*
X169497000Y-86703690D01*
X169400327Y-86470301D01*
X169221698Y-86291673D01*
X168988309Y-86195000D01*
X168147750Y-86195000D01*
X167989000Y-86353750D01*
X167735000Y-86353750D01*
X167576250Y-86195000D01*
X166735691Y-86195000D01*
X166502302Y-86291673D01*
X166323673Y-86470301D01*
X166227000Y-86703690D01*
X165783395Y-86703690D01*
X165742522Y-86486474D01*
X165539499Y-86170967D01*
X165229721Y-85959304D01*
X164862000Y-85884839D01*
X162862000Y-85884839D01*
X162518474Y-85949478D01*
X162202967Y-86152501D01*
X161991304Y-86462279D01*
X161916839Y-86830000D01*
X161916839Y-87594000D01*
X161530161Y-87594000D01*
X161530161Y-86737000D01*
X161465522Y-86393474D01*
X161262499Y-86077967D01*
X161044161Y-85928782D01*
X161044161Y-85870029D01*
X167859595Y-79054595D01*
X168277316Y-78429431D01*
X168424000Y-77692000D01*
X168424000Y-69411000D01*
X169295651Y-69411000D01*
X169616515Y-69543907D01*
X169656608Y-69584000D01*
X169616515Y-69624093D01*
X169295651Y-69757000D01*
X169829608Y-69757000D01*
X169862094Y-69789486D01*
X169995000Y-70110350D01*
X169995000Y-69757000D01*
X183249000Y-69757000D01*
X183249000Y-70110350D01*
X183381906Y-69789486D01*
X183414392Y-69757000D01*
X183948349Y-69757000D01*
X183627485Y-69624093D01*
X183587392Y-69584000D01*
X183627485Y-69543907D01*
X183948349Y-69411000D01*
X183414392Y-69411000D01*
X183381906Y-69378514D01*
X183249000Y-69057650D01*
X183249000Y-69411000D01*
X169995000Y-69411000D01*
X169995000Y-69057650D01*
X169862094Y-69378514D01*
X169829608Y-69411000D01*
X169295651Y-69411000D01*
X168424000Y-69411000D01*
X168424000Y-68633471D01*
X168494501Y-68743033D01*
X168804279Y-68954696D01*
X169172000Y-69029161D01*
X182872000Y-69029161D01*
X183215526Y-68964522D01*
X183531033Y-68761499D01*
X183742696Y-68451721D01*
X183817161Y-68084000D01*
X183817161Y-66911000D01*
X186450344Y-66911000D01*
X186448177Y-69394763D01*
G36*
X79716440Y-73265276D02*
X82675148Y-76229152D01*
X86542864Y-77835169D01*
X90730763Y-77838823D01*
X91323731Y-77593814D01*
X96363000Y-82633083D01*
X96363000Y-90726328D01*
X96354553Y-90713965D01*
X96312159Y-90686685D01*
X96266000Y-90678000D01*
X94416322Y-90678000D01*
X94218000Y-90637839D01*
X92218000Y-90637839D01*
X92004563Y-90678000D01*
X79002000Y-90678000D01*
X79002000Y-88010000D01*
X91570560Y-88010000D01*
X91570560Y-89383000D01*
X91614838Y-89618317D01*
X91753910Y-89834441D01*
X91966110Y-89979431D01*
X92218000Y-90030440D01*
X93091000Y-90030440D01*
X93091000Y-88010000D01*
X93345000Y-88010000D01*
X93345000Y-90030440D01*
X94218000Y-90030440D01*
X94453317Y-89986162D01*
X94669441Y-89847090D01*
X94814431Y-89634890D01*
X94865440Y-89383000D01*
X94865440Y-88010000D01*
X93345000Y-88010000D01*
X93091000Y-88010000D01*
X91570560Y-88010000D01*
X79002000Y-88010000D01*
X79002000Y-86383000D01*
X91570560Y-86383000D01*
X91570560Y-87756000D01*
X93091000Y-87756000D01*
X93091000Y-85735560D01*
X93345000Y-85735560D01*
X93345000Y-87756000D01*
X94865440Y-87756000D01*
X94865440Y-86383000D01*
X94821162Y-86147683D01*
X94682090Y-85931559D01*
X94469890Y-85786569D01*
X94218000Y-85735560D01*
X93345000Y-85735560D01*
X93091000Y-85735560D01*
X92218000Y-85735560D01*
X91982683Y-85779838D01*
X91766559Y-85918910D01*
X91621569Y-86131110D01*
X91570560Y-86383000D01*
X79002000Y-86383000D01*
X79002000Y-71536199D01*
X79716440Y-73265276D01*
X79716440Y-73265276D01*
G37*
X79716440Y-73265276D02*
X82675148Y-76229152D01*
X86542864Y-77835169D01*
X90730763Y-77838823D01*
X91323731Y-77593814D01*
X96363000Y-82633083D01*
X96363000Y-90726328D01*
X96354553Y-90713965D01*
X96312159Y-90686685D01*
X96266000Y-90678000D01*
X94416322Y-90678000D01*
X94218000Y-90637839D01*
X92218000Y-90637839D01*
X92004563Y-90678000D01*
X79002000Y-90678000D01*
X79002000Y-88010000D01*
X91570560Y-88010000D01*
X91570560Y-89383000D01*
X91614838Y-89618317D01*
X91753910Y-89834441D01*
X91966110Y-89979431D01*
X92218000Y-90030440D01*
X93091000Y-90030440D01*
X93091000Y-88010000D01*
X93345000Y-88010000D01*
X93345000Y-90030440D01*
X94218000Y-90030440D01*
X94453317Y-89986162D01*
X94669441Y-89847090D01*
X94814431Y-89634890D01*
X94865440Y-89383000D01*
X94865440Y-88010000D01*
X93345000Y-88010000D01*
X93091000Y-88010000D01*
X91570560Y-88010000D01*
X79002000Y-88010000D01*
X79002000Y-86383000D01*
X91570560Y-86383000D01*
X91570560Y-87756000D01*
X93091000Y-87756000D01*
X93091000Y-85735560D01*
X93345000Y-85735560D01*
X93345000Y-87756000D01*
X94865440Y-87756000D01*
X94865440Y-86383000D01*
X94821162Y-86147683D01*
X94682090Y-85931559D01*
X94469890Y-85786569D01*
X94218000Y-85735560D01*
X93345000Y-85735560D01*
X93091000Y-85735560D01*
X92218000Y-85735560D01*
X91982683Y-85779838D01*
X91766559Y-85918910D01*
X91621569Y-86131110D01*
X91570560Y-86383000D01*
X79002000Y-86383000D01*
X79002000Y-71536199D01*
X79716440Y-73265276D01*
G36*
X91570560Y-91583000D02*
X91570560Y-92956000D01*
X93091000Y-92956000D01*
X93091000Y-92936000D01*
X93345000Y-92936000D01*
X93345000Y-92956000D01*
X94865440Y-92956000D01*
X94865440Y-91583000D01*
X94838533Y-91440000D01*
X95377000Y-91440000D01*
X95377000Y-97028000D01*
X93980000Y-97028000D01*
X93930590Y-97038006D01*
X93888965Y-97066447D01*
X93861685Y-97108841D01*
X93853000Y-97155000D01*
X93853000Y-98624560D01*
X92579000Y-98624560D01*
X92343683Y-98668838D01*
X92237756Y-98737000D01*
X91902440Y-98737000D01*
X91902440Y-98671000D01*
X91858162Y-98435683D01*
X91719090Y-98219559D01*
X91694000Y-98202416D01*
X91694000Y-98171000D01*
X91683994Y-98121590D01*
X91655553Y-98079965D01*
X91613159Y-98052685D01*
X91567000Y-98044000D01*
X91470303Y-98044000D01*
X91496876Y-98032993D01*
X91616993Y-97912876D01*
X91682000Y-97755935D01*
X91682000Y-97300750D01*
X91575250Y-97194000D01*
X90928000Y-97194000D01*
X90928000Y-97214000D01*
X90682000Y-97214000D01*
X90682000Y-97194000D01*
X90034750Y-97194000D01*
X89928000Y-97300750D01*
X89928000Y-97755935D01*
X89993007Y-97912876D01*
X90113124Y-98032993D01*
X90139697Y-98044000D01*
X84963000Y-98044000D01*
X84963000Y-96386065D01*
X89928000Y-96386065D01*
X89928000Y-96841250D01*
X90034750Y-96948000D01*
X90682000Y-96948000D01*
X90682000Y-96150750D01*
X90928000Y-96150750D01*
X90928000Y-96948000D01*
X91575250Y-96948000D01*
X91682000Y-96841250D01*
X91682000Y-96386065D01*
X91616993Y-96229124D01*
X91496876Y-96109007D01*
X91339936Y-96044000D01*
X91034750Y-96044000D01*
X90928000Y-96150750D01*
X90682000Y-96150750D01*
X90575250Y-96044000D01*
X90270064Y-96044000D01*
X90113124Y-96109007D01*
X89993007Y-96229124D01*
X89928000Y-96386065D01*
X84963000Y-96386065D01*
X84963000Y-93464225D01*
X85662500Y-93464225D01*
X85757484Y-93604358D01*
X86181493Y-93693276D01*
X86607253Y-93613165D01*
X86628516Y-93604358D01*
X86723500Y-93464225D01*
X86469275Y-93210000D01*
X91570560Y-93210000D01*
X91570560Y-94583000D01*
X91614838Y-94818317D01*
X91753910Y-95034441D01*
X91966110Y-95179431D01*
X92218000Y-95230440D01*
X93091000Y-95230440D01*
X93091000Y-93210000D01*
X93345000Y-93210000D01*
X93345000Y-95230440D01*
X94218000Y-95230440D01*
X94453317Y-95186162D01*
X94669441Y-95047090D01*
X94814431Y-94834890D01*
X94865440Y-94583000D01*
X94865440Y-93210000D01*
X93345000Y-93210000D01*
X93091000Y-93210000D01*
X91570560Y-93210000D01*
X86469275Y-93210000D01*
X86193000Y-92933725D01*
X85662500Y-93464225D01*
X84963000Y-93464225D01*
X84963000Y-92571493D01*
X85082724Y-92571493D01*
X85162835Y-92997253D01*
X85171642Y-93018516D01*
X85311775Y-93113500D01*
X85842275Y-92583000D01*
X86543725Y-92583000D01*
X87074225Y-93113500D01*
X87214358Y-93018516D01*
X87303276Y-92594507D01*
X87223165Y-92168747D01*
X87214358Y-92147484D01*
X87074225Y-92052500D01*
X86543725Y-92583000D01*
X85842275Y-92583000D01*
X85311775Y-92052500D01*
X85171642Y-92147484D01*
X85082724Y-92571493D01*
X84963000Y-92571493D01*
X84963000Y-91701775D01*
X85662500Y-91701775D01*
X86193000Y-92232275D01*
X86723500Y-91701775D01*
X86628516Y-91561642D01*
X86204507Y-91472724D01*
X85778747Y-91552835D01*
X85757484Y-91561642D01*
X85662500Y-91701775D01*
X84963000Y-91701775D01*
X84963000Y-91440000D01*
X91599518Y-91440000D01*
X91570560Y-91583000D01*
X91570560Y-91583000D01*
G37*
X91570560Y-91583000D02*
X91570560Y-92956000D01*
X93091000Y-92956000D01*
X93091000Y-92936000D01*
X93345000Y-92936000D01*
X93345000Y-92956000D01*
X94865440Y-92956000D01*
X94865440Y-91583000D01*
X94838533Y-91440000D01*
X95377000Y-91440000D01*
X95377000Y-97028000D01*
X93980000Y-97028000D01*
X93930590Y-97038006D01*
X93888965Y-97066447D01*
X93861685Y-97108841D01*
X93853000Y-97155000D01*
X93853000Y-98624560D01*
X92579000Y-98624560D01*
X92343683Y-98668838D01*
X92237756Y-98737000D01*
X91902440Y-98737000D01*
X91902440Y-98671000D01*
X91858162Y-98435683D01*
X91719090Y-98219559D01*
X91694000Y-98202416D01*
X91694000Y-98171000D01*
X91683994Y-98121590D01*
X91655553Y-98079965D01*
X91613159Y-98052685D01*
X91567000Y-98044000D01*
X91470303Y-98044000D01*
X91496876Y-98032993D01*
X91616993Y-97912876D01*
X91682000Y-97755935D01*
X91682000Y-97300750D01*
X91575250Y-97194000D01*
X90928000Y-97194000D01*
X90928000Y-97214000D01*
X90682000Y-97214000D01*
X90682000Y-97194000D01*
X90034750Y-97194000D01*
X89928000Y-97300750D01*
X89928000Y-97755935D01*
X89993007Y-97912876D01*
X90113124Y-98032993D01*
X90139697Y-98044000D01*
X84963000Y-98044000D01*
X84963000Y-96386065D01*
X89928000Y-96386065D01*
X89928000Y-96841250D01*
X90034750Y-96948000D01*
X90682000Y-96948000D01*
X90682000Y-96150750D01*
X90928000Y-96150750D01*
X90928000Y-96948000D01*
X91575250Y-96948000D01*
X91682000Y-96841250D01*
X91682000Y-96386065D01*
X91616993Y-96229124D01*
X91496876Y-96109007D01*
X91339936Y-96044000D01*
X91034750Y-96044000D01*
X90928000Y-96150750D01*
X90682000Y-96150750D01*
X90575250Y-96044000D01*
X90270064Y-96044000D01*
X90113124Y-96109007D01*
X89993007Y-96229124D01*
X89928000Y-96386065D01*
X84963000Y-96386065D01*
X84963000Y-93464225D01*
X85662500Y-93464225D01*
X85757484Y-93604358D01*
X86181493Y-93693276D01*
X86607253Y-93613165D01*
X86628516Y-93604358D01*
X86723500Y-93464225D01*
X86469275Y-93210000D01*
X91570560Y-93210000D01*
X91570560Y-94583000D01*
X91614838Y-94818317D01*
X91753910Y-95034441D01*
X91966110Y-95179431D01*
X92218000Y-95230440D01*
X93091000Y-95230440D01*
X93091000Y-93210000D01*
X93345000Y-93210000D01*
X93345000Y-95230440D01*
X94218000Y-95230440D01*
X94453317Y-95186162D01*
X94669441Y-95047090D01*
X94814431Y-94834890D01*
X94865440Y-94583000D01*
X94865440Y-93210000D01*
X93345000Y-93210000D01*
X93091000Y-93210000D01*
X91570560Y-93210000D01*
X86469275Y-93210000D01*
X86193000Y-92933725D01*
X85662500Y-93464225D01*
X84963000Y-93464225D01*
X84963000Y-92571493D01*
X85082724Y-92571493D01*
X85162835Y-92997253D01*
X85171642Y-93018516D01*
X85311775Y-93113500D01*
X85842275Y-92583000D01*
X86543725Y-92583000D01*
X87074225Y-93113500D01*
X87214358Y-93018516D01*
X87303276Y-92594507D01*
X87223165Y-92168747D01*
X87214358Y-92147484D01*
X87074225Y-92052500D01*
X86543725Y-92583000D01*
X85842275Y-92583000D01*
X85311775Y-92052500D01*
X85171642Y-92147484D01*
X85082724Y-92571493D01*
X84963000Y-92571493D01*
X84963000Y-91701775D01*
X85662500Y-91701775D01*
X86193000Y-92232275D01*
X86723500Y-91701775D01*
X86628516Y-91561642D01*
X86204507Y-91472724D01*
X85778747Y-91552835D01*
X85757484Y-91561642D01*
X85662500Y-91701775D01*
X84963000Y-91701775D01*
X84963000Y-91440000D01*
X91599518Y-91440000D01*
X91570560Y-91583000D01*
G36*
X164465000Y-66675000D02*
X153543000Y-66675000D01*
X153543000Y-63246000D01*
X164465000Y-63246000D01*
X164465000Y-66675000D01*
X164465000Y-66675000D01*
G37*
X164465000Y-66675000D02*
X153543000Y-66675000D01*
X153543000Y-63246000D01*
X164465000Y-63246000D01*
X164465000Y-66675000D01*
M02*
