G04 #@! TF.FileFunction,Soldermask,Bot*
%FSLAX46Y46*%
G04 Gerber Fmt 4.6, Leading zero omitted, Abs format (unit mm)*
G04 Created by KiCad (PCBNEW 4.0.4-stable) date 04/19/17 19:13:54*
%MOMM*%
%LPD*%
G01*
G04 APERTURE LIST*
%ADD10C,0.100000*%
%ADD11C,2.000000*%
%ADD12C,4.400000*%
%ADD13R,2.800000X2.000000*%
%ADD14O,2.800000X2.000000*%
%ADD15C,1.924000*%
%ADD16C,17.200000*%
G04 APERTURE END LIST*
D10*
D11*
X199771000Y-122448000D03*
X199771000Y-124948000D03*
X201771000Y-124948000D03*
X201771000Y-122448000D03*
D12*
X204471000Y-117698000D03*
X204471000Y-129698000D03*
D13*
X142750000Y-129000000D03*
D14*
X127510000Y-90900000D03*
X142750000Y-126460000D03*
X127510000Y-93440000D03*
X142750000Y-123920000D03*
X127510000Y-95980000D03*
X142750000Y-121380000D03*
X127510000Y-98520000D03*
X142750000Y-118840000D03*
X127510000Y-101060000D03*
X142750000Y-116300000D03*
X127510000Y-103600000D03*
X142750000Y-113760000D03*
X127510000Y-106140000D03*
X142750000Y-111220000D03*
X127510000Y-108680000D03*
X142750000Y-108680000D03*
X127510000Y-111220000D03*
X142750000Y-106140000D03*
X127510000Y-113760000D03*
X142750000Y-103600000D03*
X127510000Y-116300000D03*
X142750000Y-101060000D03*
X127510000Y-118840000D03*
X142750000Y-98520000D03*
X127510000Y-121380000D03*
X142750000Y-95980000D03*
X127510000Y-123920000D03*
X142750000Y-93440000D03*
X127510000Y-126460000D03*
X142750000Y-90900000D03*
X127510000Y-129000000D03*
D15*
X81193000Y-92583000D03*
X86193000Y-92583000D03*
D16*
X88646000Y-67310000D03*
X110363000Y-67310000D03*
X196977000Y-67310000D03*
M02*
