M48
INCH,TZ
T1C0.016
T2C0.030
T3C0.031
T4C0.039
T5C0.091
T6C0.118
T7C0.331
%
G90
G05
T1
X33909Y-46774
X34046Y-47274
X34209Y-46774
X35827Y-41831
X36700Y-39800
X38827Y-47573
X39100Y-39250
X39100Y-40200
X39221Y-47573
X41634Y-41732
X41634Y-43307
X42578Y-49051
X42800Y-34700
X43701Y-47539
X44980Y-44193
X45150Y-35750
X45650Y-36250
X45965Y-31004
X46650Y-42131
X46959Y-48224
X46959Y-48674
X47650Y-40813
X47650Y-42387
X48500Y-31850
X48720Y-29921
X48720Y-30315
X49300Y-31350
X50591Y-30807
X51673Y-30807
X54159Y-43698
X54759Y-41998
X55559Y-42348
X58109Y-41248
X58459Y-41248
X59609Y-41898
X60800Y-33300
X60800Y-33700
X61300Y-33300
X61300Y-33700
X62008Y-37697
X62008Y-38091
X62205Y-37894
X62359Y-36774
X62709Y-35374
X62859Y-35774
X63009Y-35424
X63959Y-39898
X63959Y-40148
X65209Y-37174
X65950Y-34300
X65950Y-34700
X66300Y-34300
X66300Y-34700
X70722Y-50448
X70722Y-50948
X73409Y-49348
X74809Y-49898
T2
X31966Y-36450
X33934Y-36450
T3
X31909Y-41024
X38509Y-37824
X51559Y-44698
X51559Y-50698
X52559Y-44698
X52559Y-50698
X53559Y-44698
X53559Y-50698
X54559Y-44698
X54559Y-50698
X55559Y-44698
X55559Y-50698
X56559Y-44698
X56559Y-50698
X57559Y-44698
X57559Y-50698
X58559Y-44698
X58559Y-50698
X59559Y-44698
X59559Y-50698
X60559Y-44698
X60559Y-50698
X61559Y-44698
X61559Y-50698
X62559Y-44698
X62559Y-50698
X63559Y-44698
X63559Y-50698
X64559Y-44698
X64559Y-50698
X65559Y-44698
X65559Y-50698
X66559Y-44698
X66559Y-50698
X78650Y-48208
X78650Y-49192
X79437Y-48208
X79437Y-49192
T4
X45609Y-50624
X46609Y-50624
T5
X80500Y-46338
X80500Y-51062
T6
X41040Y-9905
X41040Y-44944
X77260Y-9905
X77260Y-44944
T7
X34900Y-26500
X43450Y-26500
X77550Y-26500
T0
M30
