G04 #@! TF.FileFunction,Legend,Top*
%FSLAX46Y46*%
G04 Gerber Fmt 4.6, Leading zero omitted, Abs format (unit mm)*
G04 Created by KiCad (PCBNEW 4.0.4-stable) date 05/13/17 14:37:42*
%MOMM*%
%LPD*%
G01*
G04 APERTURE LIST*
%ADD10C,0.100000*%
%ADD11C,0.500000*%
%ADD12C,0.200000*%
%ADD13C,0.010000*%
%ADD14C,0.150000*%
%ADD15C,0.120000*%
G04 APERTURE END LIST*
D10*
D11*
X139762797Y-39603868D02*
X139501330Y-36615284D01*
X139600936Y-37753792D02*
X139873112Y-37586577D01*
X140442367Y-37536774D01*
X140739444Y-37654185D01*
X140894209Y-37784048D01*
X141061424Y-38056224D01*
X141136129Y-38910105D01*
X141018717Y-39207184D01*
X140888854Y-39361948D01*
X140616678Y-39529163D01*
X140047424Y-39578966D01*
X139750346Y-39461555D01*
X142007815Y-37399815D02*
X142893695Y-39329950D01*
X143430951Y-37275306D02*
X142893695Y-39329950D01*
X142671322Y-40066419D01*
X142541459Y-40221184D01*
X142269282Y-40388399D01*
X144718869Y-38883462D02*
X144873633Y-39013325D01*
X144743771Y-39168089D01*
X144589006Y-39038227D01*
X144718869Y-38883462D01*
X144743771Y-39168089D01*
X144581910Y-37318013D02*
X144736674Y-37447876D01*
X144606811Y-37602640D01*
X144452047Y-37472777D01*
X144581910Y-37318013D01*
X144606811Y-37602640D01*
X119700976Y-33065823D02*
X119439509Y-30077239D01*
X121408738Y-32916413D02*
X119978507Y-31320708D01*
X121147271Y-29927829D02*
X119588919Y-31785002D01*
X122589954Y-31665848D02*
X124866970Y-31466635D01*
X126252754Y-30915185D02*
X127248948Y-30828030D01*
X127812847Y-32356126D02*
X126389713Y-32480635D01*
X126128245Y-29492050D01*
X127551380Y-29367542D01*
X128405262Y-29292837D02*
X129662923Y-32194266D01*
X130397651Y-29118526D01*
X133932330Y-31820741D02*
X133670863Y-28832157D01*
X134809371Y-28732550D01*
X135106448Y-28849962D01*
X135261213Y-28979825D01*
X135428428Y-29252001D01*
X135465780Y-29678942D01*
X135348368Y-29976019D01*
X135218506Y-30130784D01*
X134946330Y-30297999D01*
X133807822Y-30397605D01*
X137347854Y-31521921D02*
X137050777Y-31404510D01*
X136896012Y-31274647D01*
X136728797Y-31002470D01*
X136654092Y-30148589D01*
X136771504Y-29851511D01*
X136901367Y-29696747D01*
X137173543Y-29529532D01*
X137600484Y-29492179D01*
X137897561Y-29609591D01*
X138052326Y-29739454D01*
X138219541Y-30011630D01*
X138294246Y-30865511D01*
X138176834Y-31162590D01*
X138046971Y-31317354D01*
X137774795Y-31484569D01*
X137347854Y-31521921D01*
X139165932Y-29355220D02*
X139909498Y-31297807D01*
X140354244Y-29824867D01*
X141048006Y-31198200D01*
X141442949Y-29156007D01*
X143881826Y-30806870D02*
X143609650Y-30974085D01*
X143040396Y-31023889D01*
X142743318Y-30906477D01*
X142576103Y-30634300D01*
X142476496Y-29495792D01*
X142593908Y-29198714D01*
X142866084Y-29031499D01*
X143435339Y-28981696D01*
X143732416Y-29099108D01*
X143899631Y-29371284D01*
X143924533Y-29655911D01*
X142526300Y-30065046D01*
X145317413Y-30824675D02*
X145143101Y-28832286D01*
X145192905Y-29401539D02*
X145310316Y-29104462D01*
X145440179Y-28949698D01*
X145712355Y-28782483D01*
X145996983Y-28757581D01*
X151127365Y-30029565D02*
X150997502Y-30184329D01*
X150583013Y-30363995D01*
X150298386Y-30388897D01*
X149858994Y-30283936D01*
X149549466Y-30024210D01*
X149382251Y-29752034D01*
X149190134Y-29195231D01*
X149152782Y-28768290D01*
X149245292Y-28186585D01*
X149362704Y-27889507D01*
X149622429Y-27579978D01*
X150036919Y-27400313D01*
X150321546Y-27375411D01*
X150760937Y-27480372D01*
X150915701Y-27610234D01*
X152860029Y-30164782D02*
X152562952Y-30047370D01*
X152408187Y-29917508D01*
X152240972Y-29645331D01*
X152166267Y-28791449D01*
X152283679Y-28494372D01*
X152413542Y-28339607D01*
X152685718Y-28172392D01*
X153112659Y-28135040D01*
X153409737Y-28252452D01*
X153564501Y-28382314D01*
X153731716Y-28654490D01*
X153806421Y-29508372D01*
X153689009Y-29805450D01*
X153559146Y-29960214D01*
X153286970Y-30127429D01*
X152860029Y-30164782D01*
X154962735Y-27973179D02*
X155137046Y-29965569D01*
X154987637Y-28257806D02*
X155117499Y-28103042D01*
X155389675Y-27935827D01*
X155816616Y-27898474D01*
X156113694Y-28015886D01*
X156280909Y-28288062D01*
X156417868Y-29853511D01*
X157239751Y-27773966D02*
X158378259Y-27674360D01*
X157579537Y-26740419D02*
X157803651Y-29302062D01*
X157970866Y-29574239D01*
X158267944Y-29691651D01*
X158552571Y-29666749D01*
X159548766Y-29579593D02*
X159374455Y-27587204D01*
X159424258Y-28156457D02*
X159541670Y-27859380D01*
X159671532Y-27704616D01*
X159943708Y-27537401D01*
X160228336Y-27512499D01*
X161825783Y-29380380D02*
X161528705Y-29262968D01*
X161373941Y-29133106D01*
X161206726Y-28860929D01*
X161132021Y-28007048D01*
X161249433Y-27709970D01*
X161379295Y-27555206D01*
X161651471Y-27387991D01*
X162078412Y-27350638D01*
X162375490Y-27468050D01*
X162530254Y-27597913D01*
X162697469Y-27870089D01*
X162772174Y-28723970D01*
X162654762Y-29021048D01*
X162524900Y-29175813D01*
X162252724Y-29343028D01*
X161825783Y-29380380D01*
X164529740Y-29143815D02*
X164232662Y-29026403D01*
X164065447Y-28754226D01*
X163841332Y-26192583D01*
X167683798Y-25856411D02*
X167895462Y-28275740D01*
X168062677Y-28547917D01*
X168217441Y-28677780D01*
X168514519Y-28795192D01*
X169083773Y-28745388D01*
X169355949Y-28578173D01*
X169485812Y-28423409D01*
X169603223Y-28126330D01*
X169391560Y-25707001D01*
X170901851Y-26578687D02*
X171076163Y-28571077D01*
X170926753Y-26863314D02*
X171056615Y-26708550D01*
X171328791Y-26541335D01*
X171755732Y-26503982D01*
X172052810Y-26621394D01*
X172220025Y-26893570D01*
X172356984Y-28459019D01*
X173780120Y-28334511D02*
X173605808Y-26342122D01*
X173518653Y-25345927D02*
X173388790Y-25500691D01*
X173543554Y-25630554D01*
X173673417Y-25475790D01*
X173518653Y-25345927D01*
X173543554Y-25630554D01*
X174602002Y-26254966D02*
X175740510Y-26155360D01*
X174941788Y-25221419D02*
X175165902Y-27783062D01*
X175333117Y-28055239D01*
X175630195Y-28172651D01*
X175914822Y-28147749D01*
X178729094Y-25893892D02*
X179614974Y-27824028D01*
X180152230Y-25769384D01*
X181772836Y-24623780D02*
X182057464Y-24598878D01*
X182354541Y-24716290D01*
X182509306Y-24846152D01*
X182676521Y-25118328D01*
X182868637Y-25675132D01*
X182930891Y-26386700D01*
X182838381Y-26968404D01*
X182720970Y-27265483D01*
X182591107Y-27420247D01*
X182318931Y-27587462D01*
X182034303Y-27612364D01*
X181737226Y-27494952D01*
X181582462Y-27365089D01*
X181415246Y-27092912D01*
X181223130Y-26536110D01*
X181160876Y-25824542D01*
X181253386Y-25242836D01*
X181370798Y-24945759D01*
X181500660Y-24790995D01*
X181772836Y-24623780D01*
X184286419Y-27128524D02*
X184441183Y-27258386D01*
X184311320Y-27413150D01*
X184156556Y-27283288D01*
X184286419Y-27128524D01*
X184311320Y-27413150D01*
X185355576Y-24597136D02*
X185485439Y-24442372D01*
X185757615Y-24275157D01*
X186469183Y-24212902D01*
X186766260Y-24330314D01*
X186921025Y-24460177D01*
X187088240Y-24732353D01*
X187113141Y-25016981D01*
X187008180Y-25456372D01*
X185449828Y-27313544D01*
X187299904Y-27151683D01*
D12*
X105741000Y-114159000D02*
G75*
G03X105741000Y-114159000I-1500000J0D01*
G01*
X197741000Y-114159000D02*
G75*
G03X197741000Y-114159000I-1500000J0D01*
G01*
X197741000Y-25159000D02*
G75*
G03X197741000Y-25159000I-1500000J0D01*
G01*
X105741000Y-25159000D02*
G75*
G03X105741000Y-25159000I-1500000J0D01*
G01*
D13*
G36*
X154750610Y-34580508D02*
X155199077Y-34842049D01*
X155403951Y-34976087D01*
X155835499Y-35219682D01*
X156492411Y-35540264D01*
X157283261Y-35895077D01*
X158067321Y-36221696D01*
X158938069Y-36581946D01*
X159531732Y-36860004D01*
X159892552Y-37080658D01*
X160064773Y-37268693D01*
X160093802Y-37356988D01*
X160053670Y-37606469D01*
X159800220Y-37808958D01*
X159416468Y-37971705D01*
X158790762Y-38193249D01*
X158049634Y-38441286D01*
X157268459Y-38692394D01*
X156522609Y-38923153D01*
X155887458Y-39110141D01*
X155438378Y-39229937D01*
X155265197Y-39261667D01*
X155184901Y-39333940D01*
X155125643Y-39575394D01*
X155084845Y-40022982D01*
X155059930Y-40713658D01*
X155048320Y-41684374D01*
X155046667Y-42394334D01*
X155046667Y-45527000D01*
X154200000Y-45527000D01*
X154200000Y-42563667D01*
X154194193Y-41604388D01*
X154178080Y-40774557D01*
X154153626Y-40128363D01*
X154122792Y-39719996D01*
X154092646Y-39600334D01*
X153876394Y-39644964D01*
X153466994Y-39756428D01*
X153315067Y-39801138D01*
X152644842Y-40001942D01*
X152761407Y-40944138D01*
X152854749Y-41502697D01*
X152970465Y-41934233D01*
X153045964Y-42091064D01*
X153131645Y-42390390D01*
X153100857Y-42810731D01*
X152950310Y-43191221D01*
X152675796Y-43321847D01*
X152587873Y-43325667D01*
X152322924Y-43303658D01*
X152148126Y-43195541D01*
X152035766Y-42938183D01*
X151958134Y-42468449D01*
X151888234Y-41731684D01*
X151814212Y-41033802D01*
X151708959Y-40628145D01*
X151529759Y-40468468D01*
X151233891Y-40508525D01*
X150889856Y-40650855D01*
X150442442Y-40854710D01*
X150500888Y-43783594D01*
X150559334Y-46712477D01*
X150116683Y-46712405D01*
X149840852Y-46676392D01*
X149687611Y-46509465D01*
X149594970Y-46123119D01*
X149566350Y-45926699D01*
X149520791Y-45420548D01*
X149484778Y-44689772D01*
X149462988Y-43848380D01*
X149458667Y-43302033D01*
X149450916Y-42558678D01*
X149429915Y-41959363D01*
X149399041Y-41572875D01*
X149368371Y-41463000D01*
X149073750Y-41555524D01*
X148609472Y-41792693D01*
X148075261Y-42113900D01*
X147570843Y-42458541D01*
X147195944Y-42766008D01*
X147153235Y-42809193D01*
X146693798Y-43203608D01*
X146341254Y-43320622D01*
X146125696Y-43159211D01*
X146072000Y-42846007D01*
X146235047Y-42365151D01*
X146725939Y-41841733D01*
X147547298Y-41273459D01*
X148407806Y-40803264D01*
X148963971Y-40509265D01*
X149279546Y-40286023D01*
X149421845Y-40063263D01*
X149458184Y-39770711D01*
X149458667Y-39706197D01*
X149482882Y-39172573D01*
X149543272Y-38535527D01*
X149566350Y-38353968D01*
X149655361Y-37869953D01*
X149784711Y-37637468D01*
X150010505Y-37569744D01*
X150074350Y-37568334D01*
X150290399Y-37590937D01*
X150410392Y-37709815D01*
X150462415Y-38001567D01*
X150474550Y-38542793D01*
X150474667Y-38660192D01*
X150474667Y-39752050D01*
X151529817Y-39384222D01*
X151415047Y-38219495D01*
X151361730Y-37360505D01*
X151407328Y-36791950D01*
X151559783Y-36478049D01*
X151822628Y-36383000D01*
X152104082Y-36480107D01*
X152268702Y-36802218D01*
X152335721Y-37395519D01*
X152339646Y-37624516D01*
X152364227Y-38167214D01*
X152422143Y-38619053D01*
X152438526Y-38690163D01*
X152520809Y-38900148D01*
X152679205Y-38972654D01*
X153009998Y-38924680D01*
X153325214Y-38846696D01*
X154115334Y-38643400D01*
X154107156Y-37203451D01*
X155046667Y-37203451D01*
X155046667Y-38398801D01*
X155851000Y-38143953D01*
X156537042Y-37927409D01*
X157275368Y-37695533D01*
X157484422Y-37630141D01*
X158313511Y-37371177D01*
X156891755Y-36779948D01*
X156236647Y-36507284D01*
X155689158Y-36278970D01*
X155333185Y-36130011D01*
X155258334Y-36098410D01*
X155141968Y-36140602D01*
X155074667Y-36419142D01*
X155048002Y-36978030D01*
X155046667Y-37203451D01*
X154107156Y-37203451D01*
X154103625Y-36581867D01*
X154107092Y-35633217D01*
X154147489Y-34990907D01*
X154250851Y-34622786D01*
X154443212Y-34496704D01*
X154750610Y-34580508D01*
X154750610Y-34580508D01*
G37*
X154750610Y-34580508D02*
X155199077Y-34842049D01*
X155403951Y-34976087D01*
X155835499Y-35219682D01*
X156492411Y-35540264D01*
X157283261Y-35895077D01*
X158067321Y-36221696D01*
X158938069Y-36581946D01*
X159531732Y-36860004D01*
X159892552Y-37080658D01*
X160064773Y-37268693D01*
X160093802Y-37356988D01*
X160053670Y-37606469D01*
X159800220Y-37808958D01*
X159416468Y-37971705D01*
X158790762Y-38193249D01*
X158049634Y-38441286D01*
X157268459Y-38692394D01*
X156522609Y-38923153D01*
X155887458Y-39110141D01*
X155438378Y-39229937D01*
X155265197Y-39261667D01*
X155184901Y-39333940D01*
X155125643Y-39575394D01*
X155084845Y-40022982D01*
X155059930Y-40713658D01*
X155048320Y-41684374D01*
X155046667Y-42394334D01*
X155046667Y-45527000D01*
X154200000Y-45527000D01*
X154200000Y-42563667D01*
X154194193Y-41604388D01*
X154178080Y-40774557D01*
X154153626Y-40128363D01*
X154122792Y-39719996D01*
X154092646Y-39600334D01*
X153876394Y-39644964D01*
X153466994Y-39756428D01*
X153315067Y-39801138D01*
X152644842Y-40001942D01*
X152761407Y-40944138D01*
X152854749Y-41502697D01*
X152970465Y-41934233D01*
X153045964Y-42091064D01*
X153131645Y-42390390D01*
X153100857Y-42810731D01*
X152950310Y-43191221D01*
X152675796Y-43321847D01*
X152587873Y-43325667D01*
X152322924Y-43303658D01*
X152148126Y-43195541D01*
X152035766Y-42938183D01*
X151958134Y-42468449D01*
X151888234Y-41731684D01*
X151814212Y-41033802D01*
X151708959Y-40628145D01*
X151529759Y-40468468D01*
X151233891Y-40508525D01*
X150889856Y-40650855D01*
X150442442Y-40854710D01*
X150500888Y-43783594D01*
X150559334Y-46712477D01*
X150116683Y-46712405D01*
X149840852Y-46676392D01*
X149687611Y-46509465D01*
X149594970Y-46123119D01*
X149566350Y-45926699D01*
X149520791Y-45420548D01*
X149484778Y-44689772D01*
X149462988Y-43848380D01*
X149458667Y-43302033D01*
X149450916Y-42558678D01*
X149429915Y-41959363D01*
X149399041Y-41572875D01*
X149368371Y-41463000D01*
X149073750Y-41555524D01*
X148609472Y-41792693D01*
X148075261Y-42113900D01*
X147570843Y-42458541D01*
X147195944Y-42766008D01*
X147153235Y-42809193D01*
X146693798Y-43203608D01*
X146341254Y-43320622D01*
X146125696Y-43159211D01*
X146072000Y-42846007D01*
X146235047Y-42365151D01*
X146725939Y-41841733D01*
X147547298Y-41273459D01*
X148407806Y-40803264D01*
X148963971Y-40509265D01*
X149279546Y-40286023D01*
X149421845Y-40063263D01*
X149458184Y-39770711D01*
X149458667Y-39706197D01*
X149482882Y-39172573D01*
X149543272Y-38535527D01*
X149566350Y-38353968D01*
X149655361Y-37869953D01*
X149784711Y-37637468D01*
X150010505Y-37569744D01*
X150074350Y-37568334D01*
X150290399Y-37590937D01*
X150410392Y-37709815D01*
X150462415Y-38001567D01*
X150474550Y-38542793D01*
X150474667Y-38660192D01*
X150474667Y-39752050D01*
X151529817Y-39384222D01*
X151415047Y-38219495D01*
X151361730Y-37360505D01*
X151407328Y-36791950D01*
X151559783Y-36478049D01*
X151822628Y-36383000D01*
X152104082Y-36480107D01*
X152268702Y-36802218D01*
X152335721Y-37395519D01*
X152339646Y-37624516D01*
X152364227Y-38167214D01*
X152422143Y-38619053D01*
X152438526Y-38690163D01*
X152520809Y-38900148D01*
X152679205Y-38972654D01*
X153009998Y-38924680D01*
X153325214Y-38846696D01*
X154115334Y-38643400D01*
X154107156Y-37203451D01*
X155046667Y-37203451D01*
X155046667Y-38398801D01*
X155851000Y-38143953D01*
X156537042Y-37927409D01*
X157275368Y-37695533D01*
X157484422Y-37630141D01*
X158313511Y-37371177D01*
X156891755Y-36779948D01*
X156236647Y-36507284D01*
X155689158Y-36278970D01*
X155333185Y-36130011D01*
X155258334Y-36098410D01*
X155141968Y-36140602D01*
X155074667Y-36419142D01*
X155048002Y-36978030D01*
X155046667Y-37203451D01*
X154107156Y-37203451D01*
X154103625Y-36581867D01*
X154107092Y-35633217D01*
X154147489Y-34990907D01*
X154250851Y-34622786D01*
X154443212Y-34496704D01*
X154750610Y-34580508D01*
D14*
X157710000Y-91337000D02*
X157885000Y-91337000D01*
X157710000Y-87987000D02*
X157960000Y-87987000D01*
X161060000Y-87987000D02*
X160810000Y-87987000D01*
X161060000Y-91337000D02*
X160810000Y-91337000D01*
X157710000Y-91337000D02*
X157710000Y-87987000D01*
X161060000Y-91337000D02*
X161060000Y-87987000D01*
X157885000Y-91337000D02*
X157885000Y-92587000D01*
X87101000Y-118136000D02*
X87101000Y-118186000D01*
X91251000Y-118136000D02*
X91251000Y-118281000D01*
X91251000Y-123286000D02*
X91251000Y-123141000D01*
X87101000Y-123286000D02*
X87101000Y-123141000D01*
X87101000Y-118136000D02*
X91251000Y-118136000D01*
X87101000Y-123286000D02*
X91251000Y-123286000D01*
X87101000Y-118186000D02*
X85701000Y-118186000D01*
D15*
X133060000Y-64187000D02*
X119060000Y-64187000D01*
X133060000Y-70687000D02*
X119060000Y-70687000D01*
D12*
X198071000Y-129798000D02*
X198071000Y-117598000D01*
D14*
X93829000Y-98147000D02*
X93829000Y-98322000D01*
X97179000Y-98147000D02*
X97179000Y-98397000D01*
X97179000Y-101497000D02*
X97179000Y-101247000D01*
X93829000Y-101497000D02*
X93829000Y-101247000D01*
X93829000Y-98147000D02*
X97179000Y-98147000D01*
X93829000Y-101497000D02*
X97179000Y-101497000D01*
X93829000Y-98322000D02*
X92579000Y-98322000D01*
D15*
X90125000Y-98671000D02*
X90125000Y-97671000D01*
X91485000Y-97671000D02*
X91485000Y-98671000D01*
D11*
X95018000Y-85883000D02*
X91418000Y-85883000D01*
X91418000Y-85983000D02*
X91418000Y-95083000D01*
X91418000Y-95083000D02*
X95018000Y-95083000D01*
X95018000Y-95083000D02*
X95018000Y-85983000D01*
X88443000Y-92583000D02*
G75*
G03X88443000Y-92583000I-4750000J0D01*
G01*
D15*
X89989000Y-104886000D02*
X89989000Y-102886000D01*
X92129000Y-102886000D02*
X92129000Y-104886000D01*
X119961000Y-100060000D02*
X119961000Y-98060000D01*
X122101000Y-98060000D02*
X122101000Y-100060000D01*
X119961000Y-106664000D02*
X119961000Y-104664000D01*
X122101000Y-104664000D02*
X122101000Y-106664000D01*
X102759000Y-101165000D02*
X104759000Y-101165000D01*
X104759000Y-103305000D02*
X102759000Y-103305000D01*
X97139000Y-111052000D02*
X95139000Y-111052000D01*
X95139000Y-108912000D02*
X97139000Y-108912000D01*
X104759000Y-111052000D02*
X102759000Y-111052000D01*
X102759000Y-108912000D02*
X104759000Y-108912000D01*
X115243000Y-83455000D02*
X115243000Y-85455000D01*
X113103000Y-85455000D02*
X113103000Y-83455000D01*
X119745000Y-83366000D02*
X117745000Y-83366000D01*
X117745000Y-81226000D02*
X119745000Y-81226000D01*
X117745000Y-77543000D02*
X119745000Y-77543000D01*
X119745000Y-79683000D02*
X117745000Y-79683000D01*
X110436000Y-111109000D02*
X110436000Y-109109000D01*
X112576000Y-109109000D02*
X112576000Y-111109000D01*
X156099000Y-84020000D02*
X158099000Y-84020000D01*
X158099000Y-86160000D02*
X156099000Y-86160000D01*
X130180000Y-84500000D02*
X130180000Y-82500000D01*
X132320000Y-82500000D02*
X132320000Y-84500000D01*
X152241000Y-97133000D02*
X152241000Y-95133000D01*
X154381000Y-95133000D02*
X154381000Y-97133000D01*
X192538000Y-121206000D02*
X190538000Y-121206000D01*
X190538000Y-119066000D02*
X192538000Y-119066000D01*
X190538000Y-121987000D02*
X192538000Y-121987000D01*
X192538000Y-124127000D02*
X190538000Y-124127000D01*
X103516000Y-121051000D02*
X105316000Y-121051000D01*
X105316000Y-117831000D02*
X102866000Y-117831000D01*
D14*
X174858000Y-126197000D02*
X174858000Y-126247000D01*
X179008000Y-126197000D02*
X179008000Y-126342000D01*
X179008000Y-131347000D02*
X179008000Y-131202000D01*
X174858000Y-131347000D02*
X174858000Y-131202000D01*
X174858000Y-126197000D02*
X179008000Y-126197000D01*
X174858000Y-131347000D02*
X179008000Y-131347000D01*
X174858000Y-126247000D02*
X173458000Y-126247000D01*
D15*
X127430000Y-84500000D02*
X127430000Y-82500000D01*
X129570000Y-82500000D02*
X129570000Y-84500000D01*
X163027000Y-101103000D02*
X163027000Y-99303000D01*
X159807000Y-99303000D02*
X159807000Y-101753000D01*
X102670000Y-95901000D02*
X102670000Y-97901000D01*
X100530000Y-97901000D02*
X100530000Y-95901000D01*
X106128000Y-95901000D02*
X106128000Y-97901000D01*
X103168000Y-97901000D02*
X103168000Y-95901000D01*
X104759000Y-106988000D02*
X102759000Y-106988000D01*
X102759000Y-104848000D02*
X104759000Y-104848000D01*
X117611000Y-106264000D02*
X117611000Y-105064000D01*
X119371000Y-105064000D02*
X119371000Y-106264000D01*
X96739000Y-107179000D02*
X95539000Y-107179000D01*
X95539000Y-105419000D02*
X96739000Y-105419000D01*
X123987000Y-80019000D02*
X125187000Y-80019000D01*
X125187000Y-81779000D02*
X123987000Y-81779000D01*
X98012000Y-119679000D02*
X98012000Y-117679000D01*
X100152000Y-117679000D02*
X100152000Y-119679000D01*
X107156000Y-123362000D02*
X107156000Y-121362000D01*
X109296000Y-121362000D02*
X109296000Y-123362000D01*
X113230000Y-111109000D02*
X113230000Y-109109000D01*
X115370000Y-109109000D02*
X115370000Y-111109000D01*
X109928000Y-119745000D02*
X109928000Y-117745000D01*
X112068000Y-117745000D02*
X112068000Y-119745000D01*
X146907000Y-108182000D02*
X146907000Y-106182000D01*
X149047000Y-106182000D02*
X149047000Y-108182000D01*
X166862000Y-88700000D02*
X164862000Y-88700000D01*
X164862000Y-86560000D02*
X166862000Y-86560000D01*
X168643000Y-125334000D02*
X167443000Y-125334000D01*
X167443000Y-123574000D02*
X168643000Y-123574000D01*
X159750000Y-104956000D02*
X157750000Y-104956000D01*
X157750000Y-102816000D02*
X159750000Y-102816000D01*
X159750000Y-107369000D02*
X157750000Y-107369000D01*
X157750000Y-105229000D02*
X159750000Y-105229000D01*
X183020000Y-128172000D02*
X183020000Y-129372000D01*
X181260000Y-129372000D02*
X181260000Y-128172000D01*
X185388000Y-128502000D02*
X185388000Y-126502000D01*
X187528000Y-126502000D02*
X187528000Y-128502000D01*
X159020000Y-95196000D02*
X161020000Y-95196000D01*
X161020000Y-97336000D02*
X159020000Y-97336000D01*
X188944000Y-129772000D02*
X188944000Y-127772000D01*
X191084000Y-127772000D02*
X191084000Y-129772000D01*
X144539000Y-67410000D02*
X144539000Y-65760000D01*
X144539000Y-65760000D02*
X142739000Y-65760000D01*
X142739000Y-75960000D02*
X144539000Y-75960000D01*
X144539000Y-75960000D02*
X144539000Y-74310000D01*
X153955000Y-69230000D02*
X153955000Y-70880000D01*
X153955000Y-70880000D02*
X155755000Y-70880000D01*
X155755000Y-60680000D02*
X153955000Y-60680000D01*
X153955000Y-60680000D02*
X153955000Y-62330000D01*
X144539000Y-56615000D02*
X144539000Y-54965000D01*
X144539000Y-54965000D02*
X142739000Y-54965000D01*
X142739000Y-65165000D02*
X144539000Y-65165000D01*
X144539000Y-65165000D02*
X144539000Y-63515000D01*
X153955000Y-58435000D02*
X153955000Y-60085000D01*
X153955000Y-60085000D02*
X155755000Y-60085000D01*
X155755000Y-49885000D02*
X153955000Y-49885000D01*
X153955000Y-49885000D02*
X153955000Y-51535000D01*
X118243000Y-121644000D02*
X116243000Y-121644000D01*
X116243000Y-124604000D02*
X118243000Y-124604000D01*
X82518000Y-124378000D02*
X82518000Y-122378000D01*
X84658000Y-122378000D02*
X84658000Y-124378000D01*
D12*
X91876000Y-124557000D02*
X101876000Y-124557000D01*
X101876000Y-129057000D02*
X91876000Y-129057000D01*
D15*
X117116000Y-127255000D02*
X114516000Y-127255000D01*
X114516000Y-127255000D02*
X114516000Y-129915000D01*
X114516000Y-129915000D02*
X117116000Y-129915000D01*
X117116000Y-129915000D02*
X117116000Y-127255000D01*
X118386000Y-127255000D02*
X119716000Y-127255000D01*
X119716000Y-127255000D02*
X119716000Y-128585000D01*
D14*
X156237381Y-90423905D02*
X157046905Y-90423905D01*
X157142143Y-90376286D01*
X157189762Y-90328667D01*
X157237381Y-90233429D01*
X157237381Y-90042952D01*
X157189762Y-89947714D01*
X157142143Y-89900095D01*
X157046905Y-89852476D01*
X156237381Y-89852476D01*
X156570714Y-88947714D02*
X157237381Y-88947714D01*
X156189762Y-89185810D02*
X156904048Y-89423905D01*
X156904048Y-88804857D01*
X89080762Y-117758619D02*
X88985524Y-117711000D01*
X88890286Y-117615762D01*
X88747429Y-117472905D01*
X88652190Y-117425286D01*
X88556952Y-117425286D01*
X88604571Y-117663381D02*
X88509333Y-117615762D01*
X88414095Y-117520524D01*
X88366476Y-117330048D01*
X88366476Y-116996714D01*
X88414095Y-116806238D01*
X88509333Y-116711000D01*
X88604571Y-116663381D01*
X88795048Y-116663381D01*
X88890286Y-116711000D01*
X88985524Y-116806238D01*
X89033143Y-116996714D01*
X89033143Y-117330048D01*
X88985524Y-117520524D01*
X88890286Y-117615762D01*
X88795048Y-117663381D01*
X88604571Y-117663381D01*
X89937905Y-116663381D02*
X89461714Y-116663381D01*
X89414095Y-117139571D01*
X89461714Y-117091952D01*
X89556952Y-117044333D01*
X89795048Y-117044333D01*
X89890286Y-117091952D01*
X89937905Y-117139571D01*
X89985524Y-117234810D01*
X89985524Y-117472905D01*
X89937905Y-117568143D01*
X89890286Y-117615762D01*
X89795048Y-117663381D01*
X89556952Y-117663381D01*
X89461714Y-117615762D01*
X89414095Y-117568143D01*
X125817334Y-62809381D02*
X125484000Y-62333190D01*
X125245905Y-62809381D02*
X125245905Y-61809381D01*
X125626858Y-61809381D01*
X125722096Y-61857000D01*
X125769715Y-61904619D01*
X125817334Y-61999857D01*
X125817334Y-62142714D01*
X125769715Y-62237952D01*
X125722096Y-62285571D01*
X125626858Y-62333190D01*
X125245905Y-62333190D01*
X126722096Y-61809381D02*
X126245905Y-61809381D01*
X126198286Y-62285571D01*
X126245905Y-62237952D01*
X126341143Y-62190333D01*
X126579239Y-62190333D01*
X126674477Y-62237952D01*
X126722096Y-62285571D01*
X126769715Y-62380810D01*
X126769715Y-62618905D01*
X126722096Y-62714143D01*
X126674477Y-62761762D01*
X126579239Y-62809381D01*
X126341143Y-62809381D01*
X126245905Y-62761762D01*
X126198286Y-62714143D01*
X206973381Y-124686095D02*
X205973381Y-124686095D01*
X205973381Y-124305142D01*
X206021000Y-124209904D01*
X206068619Y-124162285D01*
X206163857Y-124114666D01*
X206306714Y-124114666D01*
X206401952Y-124162285D01*
X206449571Y-124209904D01*
X206497190Y-124305142D01*
X206497190Y-124686095D01*
X206306714Y-123257523D02*
X206973381Y-123257523D01*
X205925762Y-123495619D02*
X206640048Y-123733714D01*
X206640048Y-123114666D01*
X94742095Y-96674381D02*
X94742095Y-97483905D01*
X94789714Y-97579143D01*
X94837333Y-97626762D01*
X94932571Y-97674381D01*
X95123048Y-97674381D01*
X95218286Y-97626762D01*
X95265905Y-97579143D01*
X95313524Y-97483905D01*
X95313524Y-96674381D01*
X96313524Y-97674381D02*
X95742095Y-97674381D01*
X96027809Y-97674381D02*
X96027809Y-96674381D01*
X95932571Y-96817238D01*
X95837333Y-96912476D01*
X95742095Y-96960095D01*
X92289334Y-96877143D02*
X92241715Y-96924762D01*
X92098858Y-96972381D01*
X92003620Y-96972381D01*
X91860762Y-96924762D01*
X91765524Y-96829524D01*
X91717905Y-96734286D01*
X91670286Y-96543810D01*
X91670286Y-96400952D01*
X91717905Y-96210476D01*
X91765524Y-96115238D01*
X91860762Y-96020000D01*
X92003620Y-95972381D01*
X92098858Y-95972381D01*
X92241715Y-96020000D01*
X92289334Y-96067619D01*
X93241715Y-96972381D02*
X92670286Y-96972381D01*
X92956000Y-96972381D02*
X92956000Y-95972381D01*
X92860762Y-96115238D01*
X92765524Y-96210476D01*
X92670286Y-96258095D01*
X93670381Y-85193095D02*
X92670381Y-85193095D01*
X92670381Y-84955000D01*
X92718000Y-84812142D01*
X92813238Y-84716904D01*
X92908476Y-84669285D01*
X93098952Y-84621666D01*
X93241810Y-84621666D01*
X93432286Y-84669285D01*
X93527524Y-84716904D01*
X93622762Y-84812142D01*
X93670381Y-84955000D01*
X93670381Y-85193095D01*
X93670381Y-83669285D02*
X93670381Y-84240714D01*
X93670381Y-83955000D02*
X92670381Y-83955000D01*
X92813238Y-84050238D01*
X92908476Y-84145476D01*
X92956095Y-84240714D01*
X133141905Y-51754381D02*
X133141905Y-50754381D01*
X133380000Y-50754381D01*
X133522858Y-50802000D01*
X133618096Y-50897238D01*
X133665715Y-50992476D01*
X133713334Y-51182952D01*
X133713334Y-51325810D01*
X133665715Y-51516286D01*
X133618096Y-51611524D01*
X133522858Y-51706762D01*
X133380000Y-51754381D01*
X133141905Y-51754381D01*
X134094286Y-50849619D02*
X134141905Y-50802000D01*
X134237143Y-50754381D01*
X134475239Y-50754381D01*
X134570477Y-50802000D01*
X134618096Y-50849619D01*
X134665715Y-50944857D01*
X134665715Y-51040095D01*
X134618096Y-51182952D01*
X134046667Y-51754381D01*
X134665715Y-51754381D01*
X83526334Y-100535381D02*
X83050143Y-100535381D01*
X83050143Y-99535381D01*
X84383477Y-100535381D02*
X83812048Y-100535381D01*
X84097762Y-100535381D02*
X84097762Y-99535381D01*
X84002524Y-99678238D01*
X83907286Y-99773476D01*
X83812048Y-99821095D01*
X87907905Y-58362381D02*
X87907905Y-57362381D01*
X88288858Y-57362381D01*
X88384096Y-57410000D01*
X88431715Y-57457619D01*
X88479334Y-57552857D01*
X88479334Y-57695714D01*
X88431715Y-57790952D01*
X88384096Y-57838571D01*
X88288858Y-57886190D01*
X87907905Y-57886190D01*
X89431715Y-58362381D02*
X88860286Y-58362381D01*
X89146000Y-58362381D02*
X89146000Y-57362381D01*
X89050762Y-57505238D01*
X88955524Y-57600476D01*
X88860286Y-57648095D01*
X109624905Y-58362381D02*
X109624905Y-57362381D01*
X110005858Y-57362381D01*
X110101096Y-57410000D01*
X110148715Y-57457619D01*
X110196334Y-57552857D01*
X110196334Y-57695714D01*
X110148715Y-57790952D01*
X110101096Y-57838571D01*
X110005858Y-57886190D01*
X109624905Y-57886190D01*
X110577286Y-57457619D02*
X110624905Y-57410000D01*
X110720143Y-57362381D01*
X110958239Y-57362381D01*
X111053477Y-57410000D01*
X111101096Y-57457619D01*
X111148715Y-57552857D01*
X111148715Y-57648095D01*
X111101096Y-57790952D01*
X110529667Y-58362381D01*
X111148715Y-58362381D01*
X196238905Y-58362381D02*
X196238905Y-57362381D01*
X196619858Y-57362381D01*
X196715096Y-57410000D01*
X196762715Y-57457619D01*
X196810334Y-57552857D01*
X196810334Y-57695714D01*
X196762715Y-57790952D01*
X196715096Y-57838571D01*
X196619858Y-57886190D01*
X196238905Y-57886190D01*
X197143667Y-57362381D02*
X197762715Y-57362381D01*
X197429381Y-57743333D01*
X197572239Y-57743333D01*
X197667477Y-57790952D01*
X197715096Y-57838571D01*
X197762715Y-57933810D01*
X197762715Y-58171905D01*
X197715096Y-58267143D01*
X197667477Y-58314762D01*
X197572239Y-58362381D01*
X197286524Y-58362381D01*
X197191286Y-58314762D01*
X197143667Y-58267143D01*
X91019334Y-108402381D02*
X90686000Y-107926190D01*
X90447905Y-108402381D02*
X90447905Y-107402381D01*
X90828858Y-107402381D01*
X90924096Y-107450000D01*
X90971715Y-107497619D01*
X91019334Y-107592857D01*
X91019334Y-107735714D01*
X90971715Y-107830952D01*
X90924096Y-107878571D01*
X90828858Y-107926190D01*
X90447905Y-107926190D01*
X91971715Y-108402381D02*
X91400286Y-108402381D01*
X91686000Y-108402381D02*
X91686000Y-107402381D01*
X91590762Y-107545238D01*
X91495524Y-107640476D01*
X91400286Y-107688095D01*
X123333381Y-99226666D02*
X122857190Y-99560000D01*
X123333381Y-99798095D02*
X122333381Y-99798095D01*
X122333381Y-99417142D01*
X122381000Y-99321904D01*
X122428619Y-99274285D01*
X122523857Y-99226666D01*
X122666714Y-99226666D01*
X122761952Y-99274285D01*
X122809571Y-99321904D01*
X122857190Y-99417142D01*
X122857190Y-99798095D01*
X122428619Y-98845714D02*
X122381000Y-98798095D01*
X122333381Y-98702857D01*
X122333381Y-98464761D01*
X122381000Y-98369523D01*
X122428619Y-98321904D01*
X122523857Y-98274285D01*
X122619095Y-98274285D01*
X122761952Y-98321904D01*
X123333381Y-98893333D01*
X123333381Y-98274285D01*
X123333381Y-105830666D02*
X122857190Y-106164000D01*
X123333381Y-106402095D02*
X122333381Y-106402095D01*
X122333381Y-106021142D01*
X122381000Y-105925904D01*
X122428619Y-105878285D01*
X122523857Y-105830666D01*
X122666714Y-105830666D01*
X122761952Y-105878285D01*
X122809571Y-105925904D01*
X122857190Y-106021142D01*
X122857190Y-106402095D01*
X122333381Y-105497333D02*
X122333381Y-104878285D01*
X122714333Y-105211619D01*
X122714333Y-105068761D01*
X122761952Y-104973523D01*
X122809571Y-104925904D01*
X122904810Y-104878285D01*
X123142905Y-104878285D01*
X123238143Y-104925904D01*
X123285762Y-104973523D01*
X123333381Y-105068761D01*
X123333381Y-105354476D01*
X123285762Y-105449714D01*
X123238143Y-105497333D01*
X103592334Y-104537381D02*
X103259000Y-104061190D01*
X103020905Y-104537381D02*
X103020905Y-103537381D01*
X103401858Y-103537381D01*
X103497096Y-103585000D01*
X103544715Y-103632619D01*
X103592334Y-103727857D01*
X103592334Y-103870714D01*
X103544715Y-103965952D01*
X103497096Y-104013571D01*
X103401858Y-104061190D01*
X103020905Y-104061190D01*
X104449477Y-103870714D02*
X104449477Y-104537381D01*
X104211381Y-103489762D02*
X103973286Y-104204048D01*
X104592334Y-104204048D01*
X95972334Y-108584381D02*
X95639000Y-108108190D01*
X95400905Y-108584381D02*
X95400905Y-107584381D01*
X95781858Y-107584381D01*
X95877096Y-107632000D01*
X95924715Y-107679619D01*
X95972334Y-107774857D01*
X95972334Y-107917714D01*
X95924715Y-108012952D01*
X95877096Y-108060571D01*
X95781858Y-108108190D01*
X95400905Y-108108190D01*
X96829477Y-107584381D02*
X96639000Y-107584381D01*
X96543762Y-107632000D01*
X96496143Y-107679619D01*
X96400905Y-107822476D01*
X96353286Y-108012952D01*
X96353286Y-108393905D01*
X96400905Y-108489143D01*
X96448524Y-108536762D01*
X96543762Y-108584381D01*
X96734239Y-108584381D01*
X96829477Y-108536762D01*
X96877096Y-108489143D01*
X96924715Y-108393905D01*
X96924715Y-108155810D01*
X96877096Y-108060571D01*
X96829477Y-108012952D01*
X96734239Y-107965333D01*
X96543762Y-107965333D01*
X96448524Y-108012952D01*
X96400905Y-108060571D01*
X96353286Y-108155810D01*
X106789334Y-108717381D02*
X106456000Y-108241190D01*
X106217905Y-108717381D02*
X106217905Y-107717381D01*
X106598858Y-107717381D01*
X106694096Y-107765000D01*
X106741715Y-107812619D01*
X106789334Y-107907857D01*
X106789334Y-108050714D01*
X106741715Y-108145952D01*
X106694096Y-108193571D01*
X106598858Y-108241190D01*
X106217905Y-108241190D01*
X107122667Y-107717381D02*
X107789334Y-107717381D01*
X107360762Y-108717381D01*
X112775381Y-84621666D02*
X112299190Y-84955000D01*
X112775381Y-85193095D02*
X111775381Y-85193095D01*
X111775381Y-84812142D01*
X111823000Y-84716904D01*
X111870619Y-84669285D01*
X111965857Y-84621666D01*
X112108714Y-84621666D01*
X112203952Y-84669285D01*
X112251571Y-84716904D01*
X112299190Y-84812142D01*
X112299190Y-85193095D01*
X112203952Y-84050238D02*
X112156333Y-84145476D01*
X112108714Y-84193095D01*
X112013476Y-84240714D01*
X111965857Y-84240714D01*
X111870619Y-84193095D01*
X111823000Y-84145476D01*
X111775381Y-84050238D01*
X111775381Y-83859761D01*
X111823000Y-83764523D01*
X111870619Y-83716904D01*
X111965857Y-83669285D01*
X112013476Y-83669285D01*
X112108714Y-83716904D01*
X112156333Y-83764523D01*
X112203952Y-83859761D01*
X112203952Y-84050238D01*
X112251571Y-84145476D01*
X112299190Y-84193095D01*
X112394429Y-84240714D01*
X112584905Y-84240714D01*
X112680143Y-84193095D01*
X112727762Y-84145476D01*
X112775381Y-84050238D01*
X112775381Y-83859761D01*
X112727762Y-83764523D01*
X112680143Y-83716904D01*
X112584905Y-83669285D01*
X112394429Y-83669285D01*
X112299190Y-83716904D01*
X112251571Y-83764523D01*
X112203952Y-83859761D01*
X118578334Y-84653381D02*
X118245000Y-84177190D01*
X118006905Y-84653381D02*
X118006905Y-83653381D01*
X118387858Y-83653381D01*
X118483096Y-83701000D01*
X118530715Y-83748619D01*
X118578334Y-83843857D01*
X118578334Y-83986714D01*
X118530715Y-84081952D01*
X118483096Y-84129571D01*
X118387858Y-84177190D01*
X118006905Y-84177190D01*
X119054524Y-84653381D02*
X119245000Y-84653381D01*
X119340239Y-84605762D01*
X119387858Y-84558143D01*
X119483096Y-84415286D01*
X119530715Y-84224810D01*
X119530715Y-83843857D01*
X119483096Y-83748619D01*
X119435477Y-83701000D01*
X119340239Y-83653381D01*
X119149762Y-83653381D01*
X119054524Y-83701000D01*
X119006905Y-83748619D01*
X118959286Y-83843857D01*
X118959286Y-84081952D01*
X119006905Y-84177190D01*
X119054524Y-84224810D01*
X119149762Y-84272429D01*
X119340239Y-84272429D01*
X119435477Y-84224810D01*
X119483096Y-84177190D01*
X119530715Y-84081952D01*
X118102143Y-80915381D02*
X117768809Y-80439190D01*
X117530714Y-80915381D02*
X117530714Y-79915381D01*
X117911667Y-79915381D01*
X118006905Y-79963000D01*
X118054524Y-80010619D01*
X118102143Y-80105857D01*
X118102143Y-80248714D01*
X118054524Y-80343952D01*
X118006905Y-80391571D01*
X117911667Y-80439190D01*
X117530714Y-80439190D01*
X119054524Y-80915381D02*
X118483095Y-80915381D01*
X118768809Y-80915381D02*
X118768809Y-79915381D01*
X118673571Y-80058238D01*
X118578333Y-80153476D01*
X118483095Y-80201095D01*
X119673571Y-79915381D02*
X119768810Y-79915381D01*
X119864048Y-79963000D01*
X119911667Y-80010619D01*
X119959286Y-80105857D01*
X120006905Y-80296333D01*
X120006905Y-80534429D01*
X119959286Y-80724905D01*
X119911667Y-80820143D01*
X119864048Y-80867762D01*
X119768810Y-80915381D01*
X119673571Y-80915381D01*
X119578333Y-80867762D01*
X119530714Y-80820143D01*
X119483095Y-80724905D01*
X119435476Y-80534429D01*
X119435476Y-80296333D01*
X119483095Y-80105857D01*
X119530714Y-80010619D01*
X119578333Y-79963000D01*
X119673571Y-79915381D01*
X110609143Y-114752381D02*
X110275809Y-114276190D01*
X110037714Y-114752381D02*
X110037714Y-113752381D01*
X110418667Y-113752381D01*
X110513905Y-113800000D01*
X110561524Y-113847619D01*
X110609143Y-113942857D01*
X110609143Y-114085714D01*
X110561524Y-114180952D01*
X110513905Y-114228571D01*
X110418667Y-114276190D01*
X110037714Y-114276190D01*
X111561524Y-114752381D02*
X110990095Y-114752381D01*
X111275809Y-114752381D02*
X111275809Y-113752381D01*
X111180571Y-113895238D01*
X111085333Y-113990476D01*
X110990095Y-114038095D01*
X112513905Y-114752381D02*
X111942476Y-114752381D01*
X112228190Y-114752381D02*
X112228190Y-113752381D01*
X112132952Y-113895238D01*
X112037714Y-113990476D01*
X111942476Y-114038095D01*
X154424143Y-87574381D02*
X154090809Y-87098190D01*
X153852714Y-87574381D02*
X153852714Y-86574381D01*
X154233667Y-86574381D01*
X154328905Y-86622000D01*
X154376524Y-86669619D01*
X154424143Y-86764857D01*
X154424143Y-86907714D01*
X154376524Y-87002952D01*
X154328905Y-87050571D01*
X154233667Y-87098190D01*
X153852714Y-87098190D01*
X155376524Y-87574381D02*
X154805095Y-87574381D01*
X155090809Y-87574381D02*
X155090809Y-86574381D01*
X154995571Y-86717238D01*
X154900333Y-86812476D01*
X154805095Y-86860095D01*
X155757476Y-86669619D02*
X155805095Y-86622000D01*
X155900333Y-86574381D01*
X156138429Y-86574381D01*
X156233667Y-86622000D01*
X156281286Y-86669619D01*
X156328905Y-86764857D01*
X156328905Y-86860095D01*
X156281286Y-87002952D01*
X155709857Y-87574381D01*
X156328905Y-87574381D01*
X133702381Y-86142857D02*
X133226190Y-86476191D01*
X133702381Y-86714286D02*
X132702381Y-86714286D01*
X132702381Y-86333333D01*
X132750000Y-86238095D01*
X132797619Y-86190476D01*
X132892857Y-86142857D01*
X133035714Y-86142857D01*
X133130952Y-86190476D01*
X133178571Y-86238095D01*
X133226190Y-86333333D01*
X133226190Y-86714286D01*
X133702381Y-85190476D02*
X133702381Y-85761905D01*
X133702381Y-85476191D02*
X132702381Y-85476191D01*
X132845238Y-85571429D01*
X132940476Y-85666667D01*
X132988095Y-85761905D01*
X132702381Y-84857143D02*
X132702381Y-84238095D01*
X133083333Y-84571429D01*
X133083333Y-84428571D01*
X133130952Y-84333333D01*
X133178571Y-84285714D01*
X133273810Y-84238095D01*
X133511905Y-84238095D01*
X133607143Y-84285714D01*
X133654762Y-84333333D01*
X133702381Y-84428571D01*
X133702381Y-84714286D01*
X133654762Y-84809524D01*
X133607143Y-84857143D01*
X155613381Y-96775857D02*
X155137190Y-97109191D01*
X155613381Y-97347286D02*
X154613381Y-97347286D01*
X154613381Y-96966333D01*
X154661000Y-96871095D01*
X154708619Y-96823476D01*
X154803857Y-96775857D01*
X154946714Y-96775857D01*
X155041952Y-96823476D01*
X155089571Y-96871095D01*
X155137190Y-96966333D01*
X155137190Y-97347286D01*
X155613381Y-95823476D02*
X155613381Y-96394905D01*
X155613381Y-96109191D02*
X154613381Y-96109191D01*
X154756238Y-96204429D01*
X154851476Y-96299667D01*
X154899095Y-96394905D01*
X154946714Y-94966333D02*
X155613381Y-94966333D01*
X154565762Y-95204429D02*
X155280048Y-95442524D01*
X155280048Y-94823476D01*
X185942143Y-118810381D02*
X185608809Y-118334190D01*
X185370714Y-118810381D02*
X185370714Y-117810381D01*
X185751667Y-117810381D01*
X185846905Y-117858000D01*
X185894524Y-117905619D01*
X185942143Y-118000857D01*
X185942143Y-118143714D01*
X185894524Y-118238952D01*
X185846905Y-118286571D01*
X185751667Y-118334190D01*
X185370714Y-118334190D01*
X186894524Y-118810381D02*
X186323095Y-118810381D01*
X186608809Y-118810381D02*
X186608809Y-117810381D01*
X186513571Y-117953238D01*
X186418333Y-118048476D01*
X186323095Y-118096095D01*
X187799286Y-117810381D02*
X187323095Y-117810381D01*
X187275476Y-118286571D01*
X187323095Y-118238952D01*
X187418333Y-118191333D01*
X187656429Y-118191333D01*
X187751667Y-118238952D01*
X187799286Y-118286571D01*
X187846905Y-118381810D01*
X187846905Y-118619905D01*
X187799286Y-118715143D01*
X187751667Y-118762762D01*
X187656429Y-118810381D01*
X187418333Y-118810381D01*
X187323095Y-118762762D01*
X187275476Y-118715143D01*
X185815143Y-122493381D02*
X185481809Y-122017190D01*
X185243714Y-122493381D02*
X185243714Y-121493381D01*
X185624667Y-121493381D01*
X185719905Y-121541000D01*
X185767524Y-121588619D01*
X185815143Y-121683857D01*
X185815143Y-121826714D01*
X185767524Y-121921952D01*
X185719905Y-121969571D01*
X185624667Y-122017190D01*
X185243714Y-122017190D01*
X186767524Y-122493381D02*
X186196095Y-122493381D01*
X186481809Y-122493381D02*
X186481809Y-121493381D01*
X186386571Y-121636238D01*
X186291333Y-121731476D01*
X186196095Y-121779095D01*
X187624667Y-121493381D02*
X187434190Y-121493381D01*
X187338952Y-121541000D01*
X187291333Y-121588619D01*
X187196095Y-121731476D01*
X187148476Y-121921952D01*
X187148476Y-122302905D01*
X187196095Y-122398143D01*
X187243714Y-122445762D01*
X187338952Y-122493381D01*
X187529429Y-122493381D01*
X187624667Y-122445762D01*
X187672286Y-122398143D01*
X187719905Y-122302905D01*
X187719905Y-122064810D01*
X187672286Y-121969571D01*
X187624667Y-121921952D01*
X187529429Y-121874333D01*
X187338952Y-121874333D01*
X187243714Y-121921952D01*
X187196095Y-121969571D01*
X187148476Y-122064810D01*
X122555095Y-74128381D02*
X122555095Y-74937905D01*
X122602714Y-75033143D01*
X122650333Y-75080762D01*
X122745571Y-75128381D01*
X122936048Y-75128381D01*
X123031286Y-75080762D01*
X123078905Y-75033143D01*
X123126524Y-74937905D01*
X123126524Y-74128381D01*
X123555095Y-74223619D02*
X123602714Y-74176000D01*
X123697952Y-74128381D01*
X123936048Y-74128381D01*
X124031286Y-74176000D01*
X124078905Y-74223619D01*
X124126524Y-74318857D01*
X124126524Y-74414095D01*
X124078905Y-74556952D01*
X123507476Y-75128381D01*
X124126524Y-75128381D01*
X103422095Y-121494381D02*
X103422095Y-122303905D01*
X103469714Y-122399143D01*
X103517333Y-122446762D01*
X103612571Y-122494381D01*
X103803048Y-122494381D01*
X103898286Y-122446762D01*
X103945905Y-122399143D01*
X103993524Y-122303905D01*
X103993524Y-121494381D01*
X104374476Y-121494381D02*
X104993524Y-121494381D01*
X104660190Y-121875333D01*
X104803048Y-121875333D01*
X104898286Y-121922952D01*
X104945905Y-121970571D01*
X104993524Y-122065810D01*
X104993524Y-122303905D01*
X104945905Y-122399143D01*
X104898286Y-122446762D01*
X104803048Y-122494381D01*
X104517333Y-122494381D01*
X104422095Y-122446762D01*
X104374476Y-122399143D01*
X176298095Y-124541381D02*
X176298095Y-125350905D01*
X176345714Y-125446143D01*
X176393333Y-125493762D01*
X176488571Y-125541381D01*
X176679048Y-125541381D01*
X176774286Y-125493762D01*
X176821905Y-125446143D01*
X176869524Y-125350905D01*
X176869524Y-124541381D01*
X177821905Y-124541381D02*
X177345714Y-124541381D01*
X177298095Y-125017571D01*
X177345714Y-124969952D01*
X177440952Y-124922333D01*
X177679048Y-124922333D01*
X177774286Y-124969952D01*
X177821905Y-125017571D01*
X177869524Y-125112810D01*
X177869524Y-125350905D01*
X177821905Y-125446143D01*
X177774286Y-125493762D01*
X177679048Y-125541381D01*
X177440952Y-125541381D01*
X177345714Y-125493762D01*
X177298095Y-125446143D01*
X126952381Y-86142857D02*
X126476190Y-86476191D01*
X126952381Y-86714286D02*
X125952381Y-86714286D01*
X125952381Y-86333333D01*
X126000000Y-86238095D01*
X126047619Y-86190476D01*
X126142857Y-86142857D01*
X126285714Y-86142857D01*
X126380952Y-86190476D01*
X126428571Y-86238095D01*
X126476190Y-86333333D01*
X126476190Y-86714286D01*
X126952381Y-85190476D02*
X126952381Y-85761905D01*
X126952381Y-85476191D02*
X125952381Y-85476191D01*
X126095238Y-85571429D01*
X126190476Y-85666667D01*
X126238095Y-85761905D01*
X125952381Y-84857143D02*
X125952381Y-84190476D01*
X126952381Y-84619048D01*
X157969381Y-100964905D02*
X158778905Y-100964905D01*
X158874143Y-100917286D01*
X158921762Y-100869667D01*
X158969381Y-100774429D01*
X158969381Y-100583952D01*
X158921762Y-100488714D01*
X158874143Y-100441095D01*
X158778905Y-100393476D01*
X157969381Y-100393476D01*
X157969381Y-99488714D02*
X157969381Y-99679191D01*
X158017000Y-99774429D01*
X158064619Y-99822048D01*
X158207476Y-99917286D01*
X158397952Y-99964905D01*
X158778905Y-99964905D01*
X158874143Y-99917286D01*
X158921762Y-99869667D01*
X158969381Y-99774429D01*
X158969381Y-99583952D01*
X158921762Y-99488714D01*
X158874143Y-99441095D01*
X158778905Y-99393476D01*
X158540810Y-99393476D01*
X158445571Y-99441095D01*
X158397952Y-99488714D01*
X158350333Y-99583952D01*
X158350333Y-99774429D01*
X158397952Y-99869667D01*
X158445571Y-99917286D01*
X158540810Y-99964905D01*
X100107143Y-97067666D02*
X100154762Y-97115285D01*
X100202381Y-97258142D01*
X100202381Y-97353380D01*
X100154762Y-97496238D01*
X100059524Y-97591476D01*
X99964286Y-97639095D01*
X99773810Y-97686714D01*
X99630952Y-97686714D01*
X99440476Y-97639095D01*
X99345238Y-97591476D01*
X99250000Y-97496238D01*
X99202381Y-97353380D01*
X99202381Y-97258142D01*
X99250000Y-97115285D01*
X99297619Y-97067666D01*
X99297619Y-96686714D02*
X99250000Y-96639095D01*
X99202381Y-96543857D01*
X99202381Y-96305761D01*
X99250000Y-96210523D01*
X99297619Y-96162904D01*
X99392857Y-96115285D01*
X99488095Y-96115285D01*
X99630952Y-96162904D01*
X100202381Y-96734333D01*
X100202381Y-96115285D01*
X102705143Y-97067666D02*
X102752762Y-97115285D01*
X102800381Y-97258142D01*
X102800381Y-97353380D01*
X102752762Y-97496238D01*
X102657524Y-97591476D01*
X102562286Y-97639095D01*
X102371810Y-97686714D01*
X102228952Y-97686714D01*
X102038476Y-97639095D01*
X101943238Y-97591476D01*
X101848000Y-97496238D01*
X101800381Y-97353380D01*
X101800381Y-97258142D01*
X101848000Y-97115285D01*
X101895619Y-97067666D01*
X101800381Y-96734333D02*
X101800381Y-96115285D01*
X102181333Y-96448619D01*
X102181333Y-96305761D01*
X102228952Y-96210523D01*
X102276571Y-96162904D01*
X102371810Y-96115285D01*
X102609905Y-96115285D01*
X102705143Y-96162904D01*
X102752762Y-96210523D01*
X102800381Y-96305761D01*
X102800381Y-96591476D01*
X102752762Y-96686714D01*
X102705143Y-96734333D01*
X103592334Y-104425143D02*
X103544715Y-104472762D01*
X103401858Y-104520381D01*
X103306620Y-104520381D01*
X103163762Y-104472762D01*
X103068524Y-104377524D01*
X103020905Y-104282286D01*
X102973286Y-104091810D01*
X102973286Y-103948952D01*
X103020905Y-103758476D01*
X103068524Y-103663238D01*
X103163762Y-103568000D01*
X103306620Y-103520381D01*
X103401858Y-103520381D01*
X103544715Y-103568000D01*
X103592334Y-103615619D01*
X104449477Y-103853714D02*
X104449477Y-104520381D01*
X104211381Y-103472762D02*
X103973286Y-104187048D01*
X104592334Y-104187048D01*
X120548143Y-105830666D02*
X120595762Y-105878285D01*
X120643381Y-106021142D01*
X120643381Y-106116380D01*
X120595762Y-106259238D01*
X120500524Y-106354476D01*
X120405286Y-106402095D01*
X120214810Y-106449714D01*
X120071952Y-106449714D01*
X119881476Y-106402095D01*
X119786238Y-106354476D01*
X119691000Y-106259238D01*
X119643381Y-106116380D01*
X119643381Y-106021142D01*
X119691000Y-105878285D01*
X119738619Y-105830666D01*
X119643381Y-104925904D02*
X119643381Y-105402095D01*
X120119571Y-105449714D01*
X120071952Y-105402095D01*
X120024333Y-105306857D01*
X120024333Y-105068761D01*
X120071952Y-104973523D01*
X120119571Y-104925904D01*
X120214810Y-104878285D01*
X120452905Y-104878285D01*
X120548143Y-104925904D01*
X120595762Y-104973523D01*
X120643381Y-105068761D01*
X120643381Y-105306857D01*
X120595762Y-105402095D01*
X120548143Y-105449714D01*
X95972334Y-104956143D02*
X95924715Y-105003762D01*
X95781858Y-105051381D01*
X95686620Y-105051381D01*
X95543762Y-105003762D01*
X95448524Y-104908524D01*
X95400905Y-104813286D01*
X95353286Y-104622810D01*
X95353286Y-104479952D01*
X95400905Y-104289476D01*
X95448524Y-104194238D01*
X95543762Y-104099000D01*
X95686620Y-104051381D01*
X95781858Y-104051381D01*
X95924715Y-104099000D01*
X95972334Y-104146619D01*
X96829477Y-104051381D02*
X96639000Y-104051381D01*
X96543762Y-104099000D01*
X96496143Y-104146619D01*
X96400905Y-104289476D01*
X96353286Y-104479952D01*
X96353286Y-104860905D01*
X96400905Y-104956143D01*
X96448524Y-105003762D01*
X96543762Y-105051381D01*
X96734239Y-105051381D01*
X96829477Y-105003762D01*
X96877096Y-104956143D01*
X96924715Y-104860905D01*
X96924715Y-104622810D01*
X96877096Y-104527571D01*
X96829477Y-104479952D01*
X96734239Y-104432333D01*
X96543762Y-104432333D01*
X96448524Y-104479952D01*
X96400905Y-104527571D01*
X96353286Y-104622810D01*
X124420334Y-82956143D02*
X124372715Y-83003762D01*
X124229858Y-83051381D01*
X124134620Y-83051381D01*
X123991762Y-83003762D01*
X123896524Y-82908524D01*
X123848905Y-82813286D01*
X123801286Y-82622810D01*
X123801286Y-82479952D01*
X123848905Y-82289476D01*
X123896524Y-82194238D01*
X123991762Y-82099000D01*
X124134620Y-82051381D01*
X124229858Y-82051381D01*
X124372715Y-82099000D01*
X124420334Y-82146619D01*
X124753667Y-82051381D02*
X125420334Y-82051381D01*
X124991762Y-83051381D01*
X101289143Y-118845666D02*
X101336762Y-118893285D01*
X101384381Y-119036142D01*
X101384381Y-119131380D01*
X101336762Y-119274238D01*
X101241524Y-119369476D01*
X101146286Y-119417095D01*
X100955810Y-119464714D01*
X100812952Y-119464714D01*
X100622476Y-119417095D01*
X100527238Y-119369476D01*
X100432000Y-119274238D01*
X100384381Y-119131380D01*
X100384381Y-119036142D01*
X100432000Y-118893285D01*
X100479619Y-118845666D01*
X100812952Y-118274238D02*
X100765333Y-118369476D01*
X100717714Y-118417095D01*
X100622476Y-118464714D01*
X100574857Y-118464714D01*
X100479619Y-118417095D01*
X100432000Y-118369476D01*
X100384381Y-118274238D01*
X100384381Y-118083761D01*
X100432000Y-117988523D01*
X100479619Y-117940904D01*
X100574857Y-117893285D01*
X100622476Y-117893285D01*
X100717714Y-117940904D01*
X100765333Y-117988523D01*
X100812952Y-118083761D01*
X100812952Y-118274238D01*
X100860571Y-118369476D01*
X100908190Y-118417095D01*
X101003429Y-118464714D01*
X101193905Y-118464714D01*
X101289143Y-118417095D01*
X101336762Y-118369476D01*
X101384381Y-118274238D01*
X101384381Y-118083761D01*
X101336762Y-117988523D01*
X101289143Y-117940904D01*
X101193905Y-117893285D01*
X101003429Y-117893285D01*
X100908190Y-117940904D01*
X100860571Y-117988523D01*
X100812952Y-118083761D01*
X110433143Y-122528666D02*
X110480762Y-122576285D01*
X110528381Y-122719142D01*
X110528381Y-122814380D01*
X110480762Y-122957238D01*
X110385524Y-123052476D01*
X110290286Y-123100095D01*
X110099810Y-123147714D01*
X109956952Y-123147714D01*
X109766476Y-123100095D01*
X109671238Y-123052476D01*
X109576000Y-122957238D01*
X109528381Y-122814380D01*
X109528381Y-122719142D01*
X109576000Y-122576285D01*
X109623619Y-122528666D01*
X110528381Y-122052476D02*
X110528381Y-121862000D01*
X110480762Y-121766761D01*
X110433143Y-121719142D01*
X110290286Y-121623904D01*
X110099810Y-121576285D01*
X109718857Y-121576285D01*
X109623619Y-121623904D01*
X109576000Y-121671523D01*
X109528381Y-121766761D01*
X109528381Y-121957238D01*
X109576000Y-122052476D01*
X109623619Y-122100095D01*
X109718857Y-122147714D01*
X109956952Y-122147714D01*
X110052190Y-122100095D01*
X110099810Y-122052476D01*
X110147429Y-121957238D01*
X110147429Y-121766761D01*
X110099810Y-121671523D01*
X110052190Y-121623904D01*
X109956952Y-121576285D01*
X116507143Y-110751857D02*
X116554762Y-110799476D01*
X116602381Y-110942333D01*
X116602381Y-111037571D01*
X116554762Y-111180429D01*
X116459524Y-111275667D01*
X116364286Y-111323286D01*
X116173810Y-111370905D01*
X116030952Y-111370905D01*
X115840476Y-111323286D01*
X115745238Y-111275667D01*
X115650000Y-111180429D01*
X115602381Y-111037571D01*
X115602381Y-110942333D01*
X115650000Y-110799476D01*
X115697619Y-110751857D01*
X116602381Y-109799476D02*
X116602381Y-110370905D01*
X116602381Y-110085191D02*
X115602381Y-110085191D01*
X115745238Y-110180429D01*
X115840476Y-110275667D01*
X115888095Y-110370905D01*
X115602381Y-109180429D02*
X115602381Y-109085190D01*
X115650000Y-108989952D01*
X115697619Y-108942333D01*
X115792857Y-108894714D01*
X115983333Y-108847095D01*
X116221429Y-108847095D01*
X116411905Y-108894714D01*
X116507143Y-108942333D01*
X116554762Y-108989952D01*
X116602381Y-109085190D01*
X116602381Y-109180429D01*
X116554762Y-109275667D01*
X116507143Y-109323286D01*
X116411905Y-109370905D01*
X116221429Y-109418524D01*
X115983333Y-109418524D01*
X115792857Y-109370905D01*
X115697619Y-109323286D01*
X115650000Y-109275667D01*
X115602381Y-109180429D01*
X113205143Y-119387857D02*
X113252762Y-119435476D01*
X113300381Y-119578333D01*
X113300381Y-119673571D01*
X113252762Y-119816429D01*
X113157524Y-119911667D01*
X113062286Y-119959286D01*
X112871810Y-120006905D01*
X112728952Y-120006905D01*
X112538476Y-119959286D01*
X112443238Y-119911667D01*
X112348000Y-119816429D01*
X112300381Y-119673571D01*
X112300381Y-119578333D01*
X112348000Y-119435476D01*
X112395619Y-119387857D01*
X113300381Y-118435476D02*
X113300381Y-119006905D01*
X113300381Y-118721191D02*
X112300381Y-118721191D01*
X112443238Y-118816429D01*
X112538476Y-118911667D01*
X112586095Y-119006905D01*
X113300381Y-117483095D02*
X113300381Y-118054524D01*
X113300381Y-117768810D02*
X112300381Y-117768810D01*
X112443238Y-117864048D01*
X112538476Y-117959286D01*
X112586095Y-118054524D01*
X150184143Y-107824857D02*
X150231762Y-107872476D01*
X150279381Y-108015333D01*
X150279381Y-108110571D01*
X150231762Y-108253429D01*
X150136524Y-108348667D01*
X150041286Y-108396286D01*
X149850810Y-108443905D01*
X149707952Y-108443905D01*
X149517476Y-108396286D01*
X149422238Y-108348667D01*
X149327000Y-108253429D01*
X149279381Y-108110571D01*
X149279381Y-108015333D01*
X149327000Y-107872476D01*
X149374619Y-107824857D01*
X150279381Y-106872476D02*
X150279381Y-107443905D01*
X150279381Y-107158191D02*
X149279381Y-107158191D01*
X149422238Y-107253429D01*
X149517476Y-107348667D01*
X149565095Y-107443905D01*
X149374619Y-106491524D02*
X149327000Y-106443905D01*
X149279381Y-106348667D01*
X149279381Y-106110571D01*
X149327000Y-106015333D01*
X149374619Y-105967714D01*
X149469857Y-105920095D01*
X149565095Y-105920095D01*
X149707952Y-105967714D01*
X150279381Y-106539143D01*
X150279381Y-105920095D01*
X165219143Y-86137143D02*
X165171524Y-86184762D01*
X165028667Y-86232381D01*
X164933429Y-86232381D01*
X164790571Y-86184762D01*
X164695333Y-86089524D01*
X164647714Y-85994286D01*
X164600095Y-85803810D01*
X164600095Y-85660952D01*
X164647714Y-85470476D01*
X164695333Y-85375238D01*
X164790571Y-85280000D01*
X164933429Y-85232381D01*
X165028667Y-85232381D01*
X165171524Y-85280000D01*
X165219143Y-85327619D01*
X166171524Y-86232381D02*
X165600095Y-86232381D01*
X165885809Y-86232381D02*
X165885809Y-85232381D01*
X165790571Y-85375238D01*
X165695333Y-85470476D01*
X165600095Y-85518095D01*
X166504857Y-85232381D02*
X167123905Y-85232381D01*
X166790571Y-85613333D01*
X166933429Y-85613333D01*
X167028667Y-85660952D01*
X167076286Y-85708571D01*
X167123905Y-85803810D01*
X167123905Y-86041905D01*
X167076286Y-86137143D01*
X167028667Y-86184762D01*
X166933429Y-86232381D01*
X166647714Y-86232381D01*
X166552476Y-86184762D01*
X166504857Y-86137143D01*
X167400143Y-123111143D02*
X167352524Y-123158762D01*
X167209667Y-123206381D01*
X167114429Y-123206381D01*
X166971571Y-123158762D01*
X166876333Y-123063524D01*
X166828714Y-122968286D01*
X166781095Y-122777810D01*
X166781095Y-122634952D01*
X166828714Y-122444476D01*
X166876333Y-122349238D01*
X166971571Y-122254000D01*
X167114429Y-122206381D01*
X167209667Y-122206381D01*
X167352524Y-122254000D01*
X167400143Y-122301619D01*
X168352524Y-123206381D02*
X167781095Y-123206381D01*
X168066809Y-123206381D02*
X168066809Y-122206381D01*
X167971571Y-122349238D01*
X167876333Y-122444476D01*
X167781095Y-122492095D01*
X169209667Y-122539714D02*
X169209667Y-123206381D01*
X168971571Y-122158762D02*
X168733476Y-122873048D01*
X169352524Y-122873048D01*
X158107143Y-102393143D02*
X158059524Y-102440762D01*
X157916667Y-102488381D01*
X157821429Y-102488381D01*
X157678571Y-102440762D01*
X157583333Y-102345524D01*
X157535714Y-102250286D01*
X157488095Y-102059810D01*
X157488095Y-101916952D01*
X157535714Y-101726476D01*
X157583333Y-101631238D01*
X157678571Y-101536000D01*
X157821429Y-101488381D01*
X157916667Y-101488381D01*
X158059524Y-101536000D01*
X158107143Y-101583619D01*
X159059524Y-102488381D02*
X158488095Y-102488381D01*
X158773809Y-102488381D02*
X158773809Y-101488381D01*
X158678571Y-101631238D01*
X158583333Y-101726476D01*
X158488095Y-101774095D01*
X159964286Y-101488381D02*
X159488095Y-101488381D01*
X159440476Y-101964571D01*
X159488095Y-101916952D01*
X159583333Y-101869333D01*
X159821429Y-101869333D01*
X159916667Y-101916952D01*
X159964286Y-101964571D01*
X160011905Y-102059810D01*
X160011905Y-102297905D01*
X159964286Y-102393143D01*
X159916667Y-102440762D01*
X159821429Y-102488381D01*
X159583333Y-102488381D01*
X159488095Y-102440762D01*
X159440476Y-102393143D01*
X158107143Y-104806143D02*
X158059524Y-104853762D01*
X157916667Y-104901381D01*
X157821429Y-104901381D01*
X157678571Y-104853762D01*
X157583333Y-104758524D01*
X157535714Y-104663286D01*
X157488095Y-104472810D01*
X157488095Y-104329952D01*
X157535714Y-104139476D01*
X157583333Y-104044238D01*
X157678571Y-103949000D01*
X157821429Y-103901381D01*
X157916667Y-103901381D01*
X158059524Y-103949000D01*
X158107143Y-103996619D01*
X159059524Y-104901381D02*
X158488095Y-104901381D01*
X158773809Y-104901381D02*
X158773809Y-103901381D01*
X158678571Y-104044238D01*
X158583333Y-104139476D01*
X158488095Y-104187095D01*
X159916667Y-103901381D02*
X159726190Y-103901381D01*
X159630952Y-103949000D01*
X159583333Y-103996619D01*
X159488095Y-104139476D01*
X159440476Y-104329952D01*
X159440476Y-104710905D01*
X159488095Y-104806143D01*
X159535714Y-104853762D01*
X159630952Y-104901381D01*
X159821429Y-104901381D01*
X159916667Y-104853762D01*
X159964286Y-104806143D01*
X160011905Y-104710905D01*
X160011905Y-104472810D01*
X159964286Y-104377571D01*
X159916667Y-104329952D01*
X159821429Y-104282333D01*
X159630952Y-104282333D01*
X159535714Y-104329952D01*
X159488095Y-104377571D01*
X159440476Y-104472810D01*
X181878143Y-125827143D02*
X181830524Y-125874762D01*
X181687667Y-125922381D01*
X181592429Y-125922381D01*
X181449571Y-125874762D01*
X181354333Y-125779524D01*
X181306714Y-125684286D01*
X181259095Y-125493810D01*
X181259095Y-125350952D01*
X181306714Y-125160476D01*
X181354333Y-125065238D01*
X181449571Y-124970000D01*
X181592429Y-124922381D01*
X181687667Y-124922381D01*
X181830524Y-124970000D01*
X181878143Y-125017619D01*
X182830524Y-125922381D02*
X182259095Y-125922381D01*
X182544809Y-125922381D02*
X182544809Y-124922381D01*
X182449571Y-125065238D01*
X182354333Y-125160476D01*
X182259095Y-125208095D01*
X183163857Y-124922381D02*
X183830524Y-124922381D01*
X183401952Y-125922381D01*
X185815143Y-132050143D02*
X185767524Y-132097762D01*
X185624667Y-132145381D01*
X185529429Y-132145381D01*
X185386571Y-132097762D01*
X185291333Y-132002524D01*
X185243714Y-131907286D01*
X185196095Y-131716810D01*
X185196095Y-131573952D01*
X185243714Y-131383476D01*
X185291333Y-131288238D01*
X185386571Y-131193000D01*
X185529429Y-131145381D01*
X185624667Y-131145381D01*
X185767524Y-131193000D01*
X185815143Y-131240619D01*
X186767524Y-132145381D02*
X186196095Y-132145381D01*
X186481809Y-132145381D02*
X186481809Y-131145381D01*
X186386571Y-131288238D01*
X186291333Y-131383476D01*
X186196095Y-131431095D01*
X187338952Y-131573952D02*
X187243714Y-131526333D01*
X187196095Y-131478714D01*
X187148476Y-131383476D01*
X187148476Y-131335857D01*
X187196095Y-131240619D01*
X187243714Y-131193000D01*
X187338952Y-131145381D01*
X187529429Y-131145381D01*
X187624667Y-131193000D01*
X187672286Y-131240619D01*
X187719905Y-131335857D01*
X187719905Y-131383476D01*
X187672286Y-131478714D01*
X187624667Y-131526333D01*
X187529429Y-131573952D01*
X187338952Y-131573952D01*
X187243714Y-131621571D01*
X187196095Y-131669190D01*
X187148476Y-131764429D01*
X187148476Y-131954905D01*
X187196095Y-132050143D01*
X187243714Y-132097762D01*
X187338952Y-132145381D01*
X187529429Y-132145381D01*
X187624667Y-132097762D01*
X187672286Y-132050143D01*
X187719905Y-131954905D01*
X187719905Y-131764429D01*
X187672286Y-131669190D01*
X187624667Y-131621571D01*
X187529429Y-131573952D01*
X159377143Y-98473143D02*
X159329524Y-98520762D01*
X159186667Y-98568381D01*
X159091429Y-98568381D01*
X158948571Y-98520762D01*
X158853333Y-98425524D01*
X158805714Y-98330286D01*
X158758095Y-98139810D01*
X158758095Y-97996952D01*
X158805714Y-97806476D01*
X158853333Y-97711238D01*
X158948571Y-97616000D01*
X159091429Y-97568381D01*
X159186667Y-97568381D01*
X159329524Y-97616000D01*
X159377143Y-97663619D01*
X160329524Y-98568381D02*
X159758095Y-98568381D01*
X160043809Y-98568381D02*
X160043809Y-97568381D01*
X159948571Y-97711238D01*
X159853333Y-97806476D01*
X159758095Y-97854095D01*
X160805714Y-98568381D02*
X160996190Y-98568381D01*
X161091429Y-98520762D01*
X161139048Y-98473143D01*
X161234286Y-98330286D01*
X161281905Y-98139810D01*
X161281905Y-97758857D01*
X161234286Y-97663619D01*
X161186667Y-97616000D01*
X161091429Y-97568381D01*
X160900952Y-97568381D01*
X160805714Y-97616000D01*
X160758095Y-97663619D01*
X160710476Y-97758857D01*
X160710476Y-97996952D01*
X160758095Y-98092190D01*
X160805714Y-98139810D01*
X160900952Y-98187429D01*
X161091429Y-98187429D01*
X161186667Y-98139810D01*
X161234286Y-98092190D01*
X161281905Y-97996952D01*
X192038143Y-131796143D02*
X191990524Y-131843762D01*
X191847667Y-131891381D01*
X191752429Y-131891381D01*
X191609571Y-131843762D01*
X191514333Y-131748524D01*
X191466714Y-131653286D01*
X191419095Y-131462810D01*
X191419095Y-131319952D01*
X191466714Y-131129476D01*
X191514333Y-131034238D01*
X191609571Y-130939000D01*
X191752429Y-130891381D01*
X191847667Y-130891381D01*
X191990524Y-130939000D01*
X192038143Y-130986619D01*
X192419095Y-130986619D02*
X192466714Y-130939000D01*
X192561952Y-130891381D01*
X192800048Y-130891381D01*
X192895286Y-130939000D01*
X192942905Y-130986619D01*
X192990524Y-131081857D01*
X192990524Y-131177095D01*
X192942905Y-131319952D01*
X192371476Y-131891381D01*
X192990524Y-131891381D01*
X193609571Y-130891381D02*
X193704810Y-130891381D01*
X193800048Y-130939000D01*
X193847667Y-130986619D01*
X193895286Y-131081857D01*
X193942905Y-131272333D01*
X193942905Y-131510429D01*
X193895286Y-131700905D01*
X193847667Y-131796143D01*
X193800048Y-131843762D01*
X193704810Y-131891381D01*
X193609571Y-131891381D01*
X193514333Y-131843762D01*
X193466714Y-131796143D01*
X193419095Y-131700905D01*
X193371476Y-131510429D01*
X193371476Y-131272333D01*
X193419095Y-131081857D01*
X193466714Y-130986619D01*
X193514333Y-130939000D01*
X193609571Y-130891381D01*
X138928262Y-78138619D02*
X138833024Y-78091000D01*
X138737786Y-77995762D01*
X138594929Y-77852905D01*
X138499690Y-77805286D01*
X138404452Y-77805286D01*
X138452071Y-78043381D02*
X138356833Y-77995762D01*
X138261595Y-77900524D01*
X138213976Y-77710048D01*
X138213976Y-77376714D01*
X138261595Y-77186238D01*
X138356833Y-77091000D01*
X138452071Y-77043381D01*
X138642548Y-77043381D01*
X138737786Y-77091000D01*
X138833024Y-77186238D01*
X138880643Y-77376714D01*
X138880643Y-77710048D01*
X138833024Y-77900524D01*
X138737786Y-77995762D01*
X138642548Y-78043381D01*
X138452071Y-78043381D01*
X139833024Y-78043381D02*
X139261595Y-78043381D01*
X139547309Y-78043381D02*
X139547309Y-77043381D01*
X139452071Y-77186238D01*
X139356833Y-77281476D01*
X139261595Y-77329095D01*
X162677262Y-73249119D02*
X162582024Y-73201500D01*
X162486786Y-73106262D01*
X162343929Y-72963405D01*
X162248690Y-72915786D01*
X162153452Y-72915786D01*
X162201071Y-73153881D02*
X162105833Y-73106262D01*
X162010595Y-73011024D01*
X161962976Y-72820548D01*
X161962976Y-72487214D01*
X162010595Y-72296738D01*
X162105833Y-72201500D01*
X162201071Y-72153881D01*
X162391548Y-72153881D01*
X162486786Y-72201500D01*
X162582024Y-72296738D01*
X162629643Y-72487214D01*
X162629643Y-72820548D01*
X162582024Y-73011024D01*
X162486786Y-73106262D01*
X162391548Y-73153881D01*
X162201071Y-73153881D01*
X163010595Y-72249119D02*
X163058214Y-72201500D01*
X163153452Y-72153881D01*
X163391548Y-72153881D01*
X163486786Y-72201500D01*
X163534405Y-72249119D01*
X163582024Y-72344357D01*
X163582024Y-72439595D01*
X163534405Y-72582452D01*
X162962976Y-73153881D01*
X163582024Y-73153881D01*
X131562262Y-59977619D02*
X131467024Y-59930000D01*
X131371786Y-59834762D01*
X131228929Y-59691905D01*
X131133690Y-59644286D01*
X131038452Y-59644286D01*
X131086071Y-59882381D02*
X130990833Y-59834762D01*
X130895595Y-59739524D01*
X130847976Y-59549048D01*
X130847976Y-59215714D01*
X130895595Y-59025238D01*
X130990833Y-58930000D01*
X131086071Y-58882381D01*
X131276548Y-58882381D01*
X131371786Y-58930000D01*
X131467024Y-59025238D01*
X131514643Y-59215714D01*
X131514643Y-59549048D01*
X131467024Y-59739524D01*
X131371786Y-59834762D01*
X131276548Y-59882381D01*
X131086071Y-59882381D01*
X131847976Y-58882381D02*
X132467024Y-58882381D01*
X132133690Y-59263333D01*
X132276548Y-59263333D01*
X132371786Y-59310952D01*
X132419405Y-59358571D01*
X132467024Y-59453810D01*
X132467024Y-59691905D01*
X132419405Y-59787143D01*
X132371786Y-59834762D01*
X132276548Y-59882381D01*
X131990833Y-59882381D01*
X131895595Y-59834762D01*
X131847976Y-59787143D01*
X166868262Y-50516119D02*
X166773024Y-50468500D01*
X166677786Y-50373262D01*
X166534929Y-50230405D01*
X166439690Y-50182786D01*
X166344452Y-50182786D01*
X166392071Y-50420881D02*
X166296833Y-50373262D01*
X166201595Y-50278024D01*
X166153976Y-50087548D01*
X166153976Y-49754214D01*
X166201595Y-49563738D01*
X166296833Y-49468500D01*
X166392071Y-49420881D01*
X166582548Y-49420881D01*
X166677786Y-49468500D01*
X166773024Y-49563738D01*
X166820643Y-49754214D01*
X166820643Y-50087548D01*
X166773024Y-50278024D01*
X166677786Y-50373262D01*
X166582548Y-50420881D01*
X166392071Y-50420881D01*
X167677786Y-49754214D02*
X167677786Y-50420881D01*
X167439690Y-49373262D02*
X167201595Y-50087548D01*
X167820643Y-50087548D01*
X116600143Y-121231143D02*
X116552524Y-121278762D01*
X116409667Y-121326381D01*
X116314429Y-121326381D01*
X116171571Y-121278762D01*
X116076333Y-121183524D01*
X116028714Y-121088286D01*
X115981095Y-120897810D01*
X115981095Y-120754952D01*
X116028714Y-120564476D01*
X116076333Y-120469238D01*
X116171571Y-120374000D01*
X116314429Y-120326381D01*
X116409667Y-120326381D01*
X116552524Y-120374000D01*
X116600143Y-120421619D01*
X116981095Y-120421619D02*
X117028714Y-120374000D01*
X117123952Y-120326381D01*
X117362048Y-120326381D01*
X117457286Y-120374000D01*
X117504905Y-120421619D01*
X117552524Y-120516857D01*
X117552524Y-120612095D01*
X117504905Y-120754952D01*
X116933476Y-121326381D01*
X117552524Y-121326381D01*
X118504905Y-121326381D02*
X117933476Y-121326381D01*
X118219190Y-121326381D02*
X118219190Y-120326381D01*
X118123952Y-120469238D01*
X118028714Y-120564476D01*
X117933476Y-120612095D01*
X85890381Y-124020857D02*
X85414190Y-124354191D01*
X85890381Y-124592286D02*
X84890381Y-124592286D01*
X84890381Y-124211333D01*
X84938000Y-124116095D01*
X84985619Y-124068476D01*
X85080857Y-124020857D01*
X85223714Y-124020857D01*
X85318952Y-124068476D01*
X85366571Y-124116095D01*
X85414190Y-124211333D01*
X85414190Y-124592286D01*
X85890381Y-123068476D02*
X85890381Y-123639905D01*
X85890381Y-123354191D02*
X84890381Y-123354191D01*
X85033238Y-123449429D01*
X85128476Y-123544667D01*
X85176095Y-123639905D01*
X85318952Y-122497048D02*
X85271333Y-122592286D01*
X85223714Y-122639905D01*
X85128476Y-122687524D01*
X85080857Y-122687524D01*
X84985619Y-122639905D01*
X84938000Y-122592286D01*
X84890381Y-122497048D01*
X84890381Y-122306571D01*
X84938000Y-122211333D01*
X84985619Y-122163714D01*
X85080857Y-122116095D01*
X85128476Y-122116095D01*
X85223714Y-122163714D01*
X85271333Y-122211333D01*
X85318952Y-122306571D01*
X85318952Y-122497048D01*
X85366571Y-122592286D01*
X85414190Y-122639905D01*
X85509429Y-122687524D01*
X85699905Y-122687524D01*
X85795143Y-122639905D01*
X85842762Y-122592286D01*
X85890381Y-122497048D01*
X85890381Y-122306571D01*
X85842762Y-122211333D01*
X85795143Y-122163714D01*
X85699905Y-122116095D01*
X85509429Y-122116095D01*
X85414190Y-122163714D01*
X85366571Y-122211333D01*
X85318952Y-122306571D01*
X95983143Y-123759381D02*
X95649809Y-123283190D01*
X95411714Y-123759381D02*
X95411714Y-122759381D01*
X95792667Y-122759381D01*
X95887905Y-122807000D01*
X95935524Y-122854619D01*
X95983143Y-122949857D01*
X95983143Y-123092714D01*
X95935524Y-123187952D01*
X95887905Y-123235571D01*
X95792667Y-123283190D01*
X95411714Y-123283190D01*
X96935524Y-123759381D02*
X96364095Y-123759381D01*
X96649809Y-123759381D02*
X96649809Y-122759381D01*
X96554571Y-122902238D01*
X96459333Y-122997476D01*
X96364095Y-123045095D01*
X97411714Y-123759381D02*
X97602190Y-123759381D01*
X97697429Y-123711762D01*
X97745048Y-123664143D01*
X97840286Y-123521286D01*
X97887905Y-123330810D01*
X97887905Y-122949857D01*
X97840286Y-122854619D01*
X97792667Y-122807000D01*
X97697429Y-122759381D01*
X97506952Y-122759381D01*
X97411714Y-122807000D01*
X97364095Y-122854619D01*
X97316476Y-122949857D01*
X97316476Y-123187952D01*
X97364095Y-123283190D01*
X97411714Y-123330810D01*
X97506952Y-123378429D01*
X97697429Y-123378429D01*
X97792667Y-123330810D01*
X97840286Y-123283190D01*
X97887905Y-123187952D01*
X121168381Y-129323095D02*
X120168381Y-129323095D01*
X120168381Y-128942142D01*
X120216000Y-128846904D01*
X120263619Y-128799285D01*
X120358857Y-128751666D01*
X120501714Y-128751666D01*
X120596952Y-128799285D01*
X120644571Y-128846904D01*
X120692190Y-128942142D01*
X120692190Y-129323095D01*
X120168381Y-127846904D02*
X120168381Y-128323095D01*
X120644571Y-128370714D01*
X120596952Y-128323095D01*
X120549333Y-128227857D01*
X120549333Y-127989761D01*
X120596952Y-127894523D01*
X120644571Y-127846904D01*
X120739810Y-127799285D01*
X120977905Y-127799285D01*
X121073143Y-127846904D01*
X121120762Y-127894523D01*
X121168381Y-127989761D01*
X121168381Y-128227857D01*
X121120762Y-128323095D01*
X121073143Y-128370714D01*
M02*
