G04 #@! TF.FileFunction,Soldermask,Top*
%FSLAX46Y46*%
G04 Gerber Fmt 4.6, Leading zero omitted, Abs format (unit mm)*
G04 Created by KiCad (PCBNEW 4.0.4-stable) date 05/13/17 14:37:43*
%MOMM*%
%LPD*%
G01*
G04 APERTURE LIST*
%ADD10C,0.100000*%
%ADD11C,3.400000*%
%ADD12R,0.850000X1.850000*%
%ADD13R,1.950000X1.000000*%
%ADD14R,2.000000X2.800000*%
%ADD15O,2.000000X2.800000*%
%ADD16R,4.400000X6.600000*%
%ADD17C,2.000000*%
%ADD18C,4.400000*%
%ADD19R,1.850000X0.850000*%
%ADD20R,1.300000X1.600000*%
%ADD21R,3.900000X2.600000*%
%ADD22C,1.924000*%
%ADD23C,17.200000*%
%ADD24R,2.100000X2.400000*%
%ADD25R,2.400000X2.100000*%
%ADD26R,0.700000X1.900000*%
%ADD27R,1.960000X1.050000*%
%ADD28R,1.050000X1.960000*%
%ADD29R,2.900000X2.400000*%
%ADD30R,1.700000X1.900000*%
%ADD31R,1.900000X1.700000*%
%ADD32R,5.000000X1.790000*%
%ADD33R,9.800000X11.200000*%
%ADD34R,2.400000X2.900000*%
%ADD35R,4.400000X4.400000*%
%ADD36R,2.100000X2.100000*%
%ADD37O,2.100000X2.100000*%
%ADD38C,0.254000*%
G04 APERTURE END LIST*
D10*
D11*
X104241000Y-25159000D03*
X196241000Y-25159000D03*
X196241000Y-114159000D03*
X104241000Y-114159000D03*
D12*
X158410000Y-91862000D03*
X159060000Y-91862000D03*
X159710000Y-91862000D03*
X160360000Y-91862000D03*
X160360000Y-87462000D03*
X159710000Y-87462000D03*
X159060000Y-87462000D03*
X158410000Y-87462000D03*
D13*
X86476000Y-118806000D03*
X86476000Y-120076000D03*
X86476000Y-121346000D03*
X86476000Y-122616000D03*
X91876000Y-122616000D03*
X91876000Y-121346000D03*
X91876000Y-120076000D03*
X91876000Y-118806000D03*
D14*
X169059000Y-128772000D03*
D15*
X130959000Y-113532000D03*
X166519000Y-128772000D03*
X133499000Y-113532000D03*
X163979000Y-128772000D03*
X136039000Y-113532000D03*
X161439000Y-128772000D03*
X138579000Y-113532000D03*
X158899000Y-128772000D03*
X141119000Y-113532000D03*
X156359000Y-128772000D03*
X143659000Y-113532000D03*
X153819000Y-128772000D03*
X146199000Y-113532000D03*
X151279000Y-128772000D03*
X148739000Y-113532000D03*
X148739000Y-128772000D03*
X151279000Y-113532000D03*
X146199000Y-128772000D03*
X153819000Y-113532000D03*
X143659000Y-128772000D03*
X156359000Y-113532000D03*
X141119000Y-128772000D03*
X158899000Y-113532000D03*
X138579000Y-128772000D03*
X161439000Y-113532000D03*
X136039000Y-128772000D03*
X163979000Y-113532000D03*
X133499000Y-128772000D03*
X166519000Y-113532000D03*
X130959000Y-128772000D03*
X169059000Y-113532000D03*
D16*
X130810000Y-67437000D03*
X121210000Y-67437000D03*
D17*
X199771000Y-122448000D03*
X199771000Y-124948000D03*
X201771000Y-124948000D03*
X201771000Y-122448000D03*
D18*
X204471000Y-117698000D03*
X204471000Y-129698000D03*
D19*
X93304000Y-98847000D03*
X93304000Y-99497000D03*
X93304000Y-100147000D03*
X93304000Y-100797000D03*
X97704000Y-100797000D03*
X97704000Y-100147000D03*
X97704000Y-99497000D03*
X97704000Y-98847000D03*
D20*
X90805000Y-97071000D03*
X90805000Y-99271000D03*
D10*
G36*
X94418000Y-91383000D02*
X94418000Y-94783000D01*
X92018000Y-94783000D01*
X92018000Y-91383000D01*
X94418000Y-91383000D01*
X94418000Y-91383000D01*
G37*
G36*
X94418000Y-86183000D02*
X94418000Y-89583000D01*
X92018000Y-89583000D01*
X92018000Y-86183000D01*
X94418000Y-86183000D01*
X94418000Y-86183000D01*
G37*
D21*
X137444000Y-51365500D03*
X143144000Y-51365500D03*
D22*
X81193000Y-92583000D03*
X86193000Y-92583000D03*
D23*
X88646000Y-67310000D03*
X110363000Y-67310000D03*
X196977000Y-67310000D03*
D24*
X91059000Y-101886000D03*
X91059000Y-105886000D03*
X121031000Y-97060000D03*
X121031000Y-101060000D03*
X121031000Y-103664000D03*
X121031000Y-107664000D03*
D25*
X105759000Y-102235000D03*
X101759000Y-102235000D03*
X94139000Y-109982000D03*
X98139000Y-109982000D03*
X101759000Y-109982000D03*
X105759000Y-109982000D03*
D24*
X114173000Y-86455000D03*
X114173000Y-82455000D03*
D25*
X116745000Y-82296000D03*
X120745000Y-82296000D03*
X120745000Y-78613000D03*
X116745000Y-78613000D03*
D24*
X111506000Y-108109000D03*
X111506000Y-112109000D03*
D25*
X159099000Y-85090000D03*
X155099000Y-85090000D03*
D24*
X131250000Y-81500000D03*
X131250000Y-85500000D03*
X153311000Y-94133000D03*
X153311000Y-98133000D03*
D25*
X189538000Y-120136000D03*
X193538000Y-120136000D03*
X193538000Y-123057000D03*
X189538000Y-123057000D03*
D26*
X124980000Y-78239000D03*
X125480000Y-78239000D03*
X125980000Y-78239000D03*
X125980000Y-75939000D03*
X125480000Y-75939000D03*
X124980000Y-75939000D03*
D27*
X103066000Y-118491000D03*
X103066000Y-119441000D03*
X103066000Y-120391000D03*
X105766000Y-120391000D03*
X105766000Y-118491000D03*
D13*
X174233000Y-126867000D03*
X174233000Y-128137000D03*
X174233000Y-129407000D03*
X174233000Y-130677000D03*
X179633000Y-130677000D03*
X179633000Y-129407000D03*
X179633000Y-128137000D03*
X179633000Y-126867000D03*
D24*
X128500000Y-81500000D03*
X128500000Y-85500000D03*
D28*
X160467000Y-101553000D03*
X161417000Y-101553000D03*
X162367000Y-101553000D03*
X162367000Y-98853000D03*
X160467000Y-98853000D03*
D24*
X101600000Y-98901000D03*
X101600000Y-94901000D03*
D29*
X104648000Y-98901000D03*
X104648000Y-94901000D03*
D25*
X101759000Y-105918000D03*
X105759000Y-105918000D03*
D30*
X118491000Y-104314000D03*
X118491000Y-107014000D03*
D31*
X94789000Y-106299000D03*
X97489000Y-106299000D03*
X125937000Y-80899000D03*
X123237000Y-80899000D03*
D24*
X99082000Y-116679000D03*
X99082000Y-120679000D03*
X108226000Y-120362000D03*
X108226000Y-124362000D03*
X114300000Y-108109000D03*
X114300000Y-112109000D03*
X110998000Y-116745000D03*
X110998000Y-120745000D03*
X147977000Y-105182000D03*
X147977000Y-109182000D03*
D25*
X163862000Y-87630000D03*
X167862000Y-87630000D03*
D31*
X166693000Y-124454000D03*
X169393000Y-124454000D03*
D25*
X156750000Y-103886000D03*
X160750000Y-103886000D03*
X156750000Y-106299000D03*
X160750000Y-106299000D03*
D30*
X182140000Y-130122000D03*
X182140000Y-127422000D03*
D24*
X186458000Y-125502000D03*
X186458000Y-129502000D03*
D25*
X162020000Y-96266000D03*
X158020000Y-96266000D03*
D24*
X190014000Y-126772000D03*
X190014000Y-130772000D03*
D32*
X146969000Y-70860000D03*
D33*
X137809000Y-70860000D03*
D32*
X146969000Y-68320000D03*
X146969000Y-73400000D03*
X151525000Y-65780000D03*
D33*
X160685000Y-65780000D03*
D32*
X151525000Y-68320000D03*
X151525000Y-63240000D03*
X146969000Y-60065000D03*
D33*
X137809000Y-60065000D03*
D32*
X146969000Y-57525000D03*
X146969000Y-62605000D03*
X151525000Y-54985000D03*
D33*
X160685000Y-54985000D03*
D32*
X151525000Y-57525000D03*
X151525000Y-52445000D03*
D34*
X115243000Y-123124000D03*
X119243000Y-123124000D03*
D24*
X83588000Y-121378000D03*
X83588000Y-125378000D03*
D35*
X101876000Y-126807000D03*
X91876000Y-126807000D03*
D36*
X118386000Y-128585000D03*
D37*
X115846000Y-128585000D03*
D38*
G36*
X123085000Y-70415500D02*
X118068500Y-70415500D01*
X118068500Y-64446500D01*
X123085000Y-64446500D01*
X123085000Y-70415500D01*
X123085000Y-70415500D01*
G37*
X123085000Y-70415500D02*
X118068500Y-70415500D01*
X118068500Y-64446500D01*
X123085000Y-64446500D01*
X123085000Y-70415500D01*
G36*
X133118000Y-72331394D02*
X130705000Y-69918394D01*
X130705000Y-64562606D01*
X133118000Y-62149606D01*
X133118000Y-72331394D01*
X133118000Y-72331394D01*
G37*
X133118000Y-72331394D02*
X130705000Y-69918394D01*
X130705000Y-64562606D01*
X133118000Y-62149606D01*
X133118000Y-72331394D01*
G36*
X200555000Y-58339606D02*
X200555000Y-70860000D01*
X165884000Y-70860000D01*
X165884000Y-51556000D01*
X193771394Y-51556000D01*
X200555000Y-58339606D01*
X200555000Y-58339606D01*
G37*
X200555000Y-58339606D02*
X200555000Y-70860000D01*
X165884000Y-70860000D01*
X165884000Y-51556000D01*
X193771394Y-51556000D01*
X200555000Y-58339606D01*
M02*
